<?xml version="1.0" encoding="iso-8859-1"?>
<!-- Generator: Adobe Illustrator 19.0.0, SVG Export Plug-In . SVG Version: 6.00 Build 0)  -->
<svg version="1.1" id="Layer_1" xmlns="http://www.w3.org/2000/svg" xmlns:xlink="http://www.w3.org/1999/xlink" x="0px" y="0px"
	 viewBox="0 0 512 512" style="enable-background:new 0 0 512 512;" xml:space="preserve">
<path style="fill:#23A24D;" d="M60.746,4.339h442.576c4.79,0,8.678,3.888,8.678,8.678v485.966c0,4.79-3.888,8.678-8.678,8.678
	H60.746c-4.79,0-8.678-3.888-8.678-8.678V13.017C52.068,8.227,55.956,4.339,60.746,4.339z"/>
<g>
	<path style="fill:#949493;" d="M95.458,56.407H8.678C3.888,56.407,0,52.519,0,47.729s3.888-8.678,8.678-8.678h86.78
		c4.79,0,8.678,3.888,8.678,8.678S100.248,56.407,95.458,56.407z"/>
	<path style="fill:#949493;" d="M95.458,91.119H8.678C3.888,91.119,0,87.231,0,82.441s3.888-8.678,8.678-8.678h86.78
		c4.79,0,8.678,3.888,8.678,8.678S100.248,91.119,95.458,91.119z"/>
	<path style="fill:#949493;" d="M95.458,125.831H8.678c-4.79,0-8.678-3.888-8.678-8.678s3.888-8.678,8.678-8.678h86.78
		c4.79,0,8.678,3.888,8.678,8.678S100.248,125.831,95.458,125.831z"/>
	<path style="fill:#949493;" d="M95.458,160.542H8.678c-4.79,0-8.678-3.888-8.678-8.678s3.888-8.678,8.678-8.678h86.78
		c4.79,0,8.678,3.888,8.678,8.678S100.248,160.542,95.458,160.542z"/>
	<path style="fill:#949493;" d="M95.458,195.254H8.678c-4.79,0-8.678-3.888-8.678-8.678s3.888-8.678,8.678-8.678h86.78
		c4.79,0,8.678,3.888,8.678,8.678S100.248,195.254,95.458,195.254z"/>
	<path style="fill:#949493;" d="M95.458,229.966H8.678c-4.79,0-8.678-3.888-8.678-8.678s3.888-8.678,8.678-8.678h86.78
		c4.79,0,8.678,3.888,8.678,8.678S100.248,229.966,95.458,229.966z"/>
	<path style="fill:#949493;" d="M95.458,264.678H8.678C3.888,264.678,0,260.79,0,256c0-4.79,3.888-8.678,8.678-8.678h86.78
		c4.79,0,8.678,3.888,8.678,8.678C104.136,260.79,100.248,264.678,95.458,264.678z"/>
	<path style="fill:#949493;" d="M95.458,299.39H8.678c-4.79,0-8.678-3.888-8.678-8.678s3.888-8.678,8.678-8.678h86.78
		c4.79,0,8.678,3.888,8.678,8.678S100.248,299.39,95.458,299.39z"/>
	<path style="fill:#949493;" d="M95.458,334.102H8.678c-4.79,0-8.678-3.888-8.678-8.678s3.888-8.678,8.678-8.678h86.78
		c4.79,0,8.678,3.888,8.678,8.678S100.248,334.102,95.458,334.102z"/>
	<path style="fill:#949493;" d="M95.458,368.814H8.678c-4.79,0-8.678-3.888-8.678-8.678s3.888-8.678,8.678-8.678h86.78
		c4.79,0,8.678,3.888,8.678,8.678S100.248,368.814,95.458,368.814z"/>
	<path style="fill:#949493;" d="M95.458,403.525H8.678c-4.79,0-8.678-3.888-8.678-8.678c0-4.79,3.888-8.678,8.678-8.678h86.78
		c4.79,0,8.678,3.888,8.678,8.678C104.136,399.638,100.248,403.525,95.458,403.525z"/>
	<path style="fill:#949493;" d="M95.458,438.237H8.678c-4.79,0-8.678-3.888-8.678-8.678s3.888-8.678,8.678-8.678h86.78
		c4.79,0,8.678,3.888,8.678,8.678S100.248,438.237,95.458,438.237z"/>
	<path style="fill:#949493;" d="M95.458,472.949H8.678c-4.79,0-8.678-3.888-8.678-8.678s3.888-8.678,8.678-8.678h86.78
		c4.79,0,8.678,3.888,8.678,8.678S100.248,472.949,95.458,472.949z"/>
</g>
<g>
	<path style="fill:#FFFFFF;" d="M147.525,47.729h312.407c4.79,0,8.678,3.888,8.678,8.678v52.068c0,4.79-3.888,8.678-8.678,8.678
		H147.525c-4.79,0-8.678-3.888-8.678-8.678V56.407C138.847,51.617,142.735,47.729,147.525,47.729z"/>
	<path style="fill:#FFFFFF;" d="M147.525,151.864h312.407c4.79,0,8.678,3.888,8.678,8.678v17.356c0,4.79-3.888,8.678-8.678,8.678
		H147.525c-4.79,0-8.678-3.888-8.678-8.678v-17.356C138.847,155.752,142.735,151.864,147.525,151.864z"/>
</g>
<g>
</g>
<g>
</g>
<g>
</g>
<g>
</g>
<g>
</g>
<g>
</g>
<g>
</g>
<g>
</g>
<g>
</g>
<g>
</g>
<g>
</g>
<g>
</g>
<g>
</g>
<g>
</g>
<g>
</g>
</svg>
