<svg id="Capa_1" enable-background="new 0 0 512 512" height="512" viewBox="0 0 512 512" width="512" xmlns="http://www.w3.org/2000/svg"><path d="m272 242-16 270h-195v-512h195z" fill="#ffda2d"/><path d="m272 242-16 270h-100v-512h100z" fill="#fdbf00"/><path d="m256 0h195v512h-195z" fill="#76e2f8"/><path d="m356 0h95v512h-95z" fill="#4bb9ec"/><path d="m156 362c-24.81 0-45 20.19-45 45s20.19 45 45 45 45-20.19 45-45-20.19-45-45-45z" fill="#f2ebee"/><path d="m201 407c0 24.81-20.19 45-45 45v-90c24.81 0 45 20.19 45 45z" fill="#e8dde3"/><circle cx="156" cy="407" fill="#6c6fa9" r="15"/><path d="m171 407c0 8.27-6.73 15-15 15v-30c8.27 0 15 6.73 15 15z" fill="#574f7f"/><path d="m111 60v212h90v-212z" fill="#f2ebee"/><path d="m156 60h45v212h-45z" fill="#e8dde3"/><path d="m111 302h90v30h-90z" fill="#f2ebee"/><path d="m156 302h45v30h-45z" fill="#e8dde3"/><path d="m356 362c-24.81 0-45 20.19-45 45s20.19 45 45 45 45-20.19 45-45-20.19-45-45-45z" fill="#f2ebee"/><path d="m401 407c0 24.81-20.19 45-45 45v-90c24.81 0 45 20.19 45 45z" fill="#e8dde3"/><circle cx="356" cy="407" fill="#6c6fa9" r="15"/><path d="m371 407c0 8.27-6.73 15-15 15v-30c8.27 0 15 6.73 15 15z" fill="#574f7f"/><path d="m311 60v212h90v-212z" fill="#f2ebee"/><path d="m356 60h45v212h-45z" fill="#e8dde3"/><path d="m311 302h90v30h-90z" fill="#f2ebee"/><path d="m356 302h45v30h-45z" fill="#e8dde3"/></svg>