<?xml version="1.0" encoding="iso-8859-1"?>
<!-- Generator: Adobe Illustrator 19.0.0, SVG Export Plug-In . SVG Version: 6.00 Build 0)  -->
<svg version="1.1" id="Layer_1" xmlns="http://www.w3.org/2000/svg" xmlns:xlink="http://www.w3.org/1999/xlink" x="0px" y="0px"
	 viewBox="0 0 512 512" style="enable-background:new 0 0 512 512;" xml:space="preserve">
<path style="fill:#B3404A;" d="M255.425,464.827h-26.72c-32.282,0-58.545-26.264-58.545-58.546V161.196
	c0-7.494,6.076-13.572,13.572-13.572H300.4c7.494,0,13.572,6.077,13.572,13.572v74.856c0,7.494-6.077,13.572-13.572,13.572
	s-13.572-6.077-13.572-13.572v-61.284h-89.524v231.513c0,17.315,14.086,31.403,31.401,31.403h26.72
	c17.315,0,31.403-14.088,31.403-31.403v-75.225c0-7.494,6.077-13.572,13.572-13.572s13.572,6.077,13.572,13.572v75.225
	C313.97,438.564,287.707,464.827,255.425,464.827z"/>
<path style="fill:#F4B2B0;" d="M300.398,184.618H183.731V46.551c0-18.213,14.765-32.978,32.978-32.978h50.71
	c18.213,0,32.978,14.765,32.978,32.978v138.067H300.398z"/>
<path style="fill:#B3404A;" d="M300.398,198.19H183.731c-7.496,0-13.572-6.077-13.572-13.572V46.551
	C170.159,20.883,191.042,0,216.709,0h50.71c25.668,0,46.551,20.883,46.551,46.551v138.067
	C313.97,192.114,307.894,198.19,300.398,198.19z M197.302,171.046h89.524V46.551c0-10.701-8.706-19.408-19.408-19.408h-50.71
	c-10.701,0-19.406,8.706-19.406,19.408V171.046z"/>
<path style="fill:#F4B2B0;" d="M300.398,269.233L300.398,269.233c-15.392,0-27.87-12.478-27.87-27.87V63.649
	c0-9.128,7.399-16.528,16.528-16.528h22.684c9.128,0,16.528,7.399,16.528,16.528v177.714
	C328.27,256.755,315.792,269.233,300.398,269.233z"/>
<path style="fill:#B3404A;" d="M300.398,282.805c-22.851,0-41.442-18.591-41.442-41.442V63.648c0-16.597,13.503-30.1,30.1-30.1
	h22.685c16.597,0,30.1,13.503,30.1,30.1v177.714C341.841,264.214,323.249,282.805,300.398,282.805z M289.056,60.693
	c-1.63,0-2.956,1.326-2.956,2.956v177.714c0,7.885,6.414,14.298,14.298,14.298c7.884,0,14.298-6.414,14.298-14.298V63.648
	c0-1.63-1.326-2.956-2.956-2.956h-22.684V60.693z"/>
<polygon style="fill:#F4B2B0;" points="242.065,498.428 204.335,443.492 279.795,443.492 "/>
<path style="fill:#B3404A;" d="M242.065,512c-4.471,0-8.656-2.203-11.187-5.889l-37.73-54.936
	c-2.853-4.154-3.169-9.545-0.822-14.003c2.347-4.46,6.971-7.251,12.01-7.251h75.46c5.039,0,9.663,2.792,12.011,7.251
	c2.347,4.458,2.029,9.85-0.822,14.003l-37.73,54.936C250.721,509.797,246.536,512,242.065,512z M230.122,457.064l11.943,17.39
	l11.943-17.39H230.122z"/>
<g>
</g>
<g>
</g>
<g>
</g>
<g>
</g>
<g>
</g>
<g>
</g>
<g>
</g>
<g>
</g>
<g>
</g>
<g>
</g>
<g>
</g>
<g>
</g>
<g>
</g>
<g>
</g>
<g>
</g>
</svg>
