<svg height="512pt" viewBox="0 0 512 512" width="512pt" xmlns="http://www.w3.org/2000/svg"><g fill-rule="evenodd"><path d="m374.160156 512h-242.160156c-4.089844 0-7.792969-1.636719-10.496094-4.289062l-66.769531-59.519532c-2.71875-2.421875-4.347656-5.613281-4.851563-8.953125-4.691406-27.375-9.378906-54.75-14.066406-82.125-4.699218-27.46875-9.394531-54.941406-14.078125-82.414062-1.171875-6.871094-.953125-13.625.625-20.105469 1.585938-6.519531 4.519531-12.605469 8.757813-18.09375 4.339844-5.613281 9.515625-9.941406 15.382812-12.902344 6.019532-3.039062 12.570313-4.597656 19.507813-4.597656h379.914062c6.941407 0 13.496094 1.558594 19.519531 4.601562 5.871094 2.96875 11.046876 7.300782 15.382813 12.917969 4.242187 5.5 7.175781 11.589844 8.753906 18.109375 1.574219 6.492188 1.789063 13.253906.609375 20.117188-4.71875 27.457031-9.429687 54.917968-14.132812 82.382812-4.703125 27.460938-9.398438 54.925782-14.085938 82.390625-.691406 4.054688-2.953125 7.453125-6.058594 9.667969l-72.261718 59.355469c-2.785156 2.289062-6.148438 3.40625-9.492188 3.402343zm0 0" fill="#00465f"/><path d="m374.160156 512h-118.160156v-293h189.925781c6.941407 0 13.496094 1.558594 19.515625 4.601562 5.875 2.96875 11.046875 7.300782 15.382813 12.917969 4.246093 5.5 7.179687 11.589844 8.753906 18.109375 1.574219 6.492188 1.789063 13.253906.609375 20.117188-4.71875 27.457031-9.429688 54.917968-14.132812 82.382812-4.703126 27.460938-9.398438 54.925782-14.082032 82.390625-.695312 4.054688-2.957031 7.453125-6.058594 9.667969l-72.261718 59.355469c-2.785156 2.289062-6.148438 3.40625-9.492188 3.402343zm0 0" fill="#002c3c"/><path d="m397.570312 481.816406c1.910157 8.054688-3.074218 16.136719-11.132812 18.046875-8.054688 1.90625-16.136719-3.078125-18.046875-11.132812l-73.316406-308.597657c-2.796875-11.773437-3.527344-23.367187-2.207031-34.730468 1.328124-11.441406 4.710937-22.507813 10.128906-33.148438l23.558594-46.246094c2.027343-3.980468 3.042968-8.234374 3.042968-12.472656 0-4.238281-1.015625-8.492187-3.042968-12.472656-1.914063-3.757812-4.386719-6.628906-7.226563-8.484375-2.566406-1.679687-5.578125-2.578125-8.859375-2.578125h-6.707031c-.25.011719-.507813.019531-.765625.019531h-101.464844c-3.28125 0-6.292969.894531-8.859375 2.574219-2.839844 1.859375-5.3125 4.730469-7.226563 8.488281-2.027343 3.980469-3.042968 8.230469-3.042968 12.472657 0 4.238281 1.015625 8.488281 3.042968 12.46875l23.558594 46.246093c5.417969 10.640625 8.800782 21.707031 10.128906 33.148438 1.320313 11.363281.589844 22.957031-2.207031 34.730469l-72.246093 304.304687c-1.910157 8.058594-9.988282 13.042969-18.046876 11.132813-8.058593-1.910157-13.042968-9.988282-11.132812-18.046876l72.246094-304.300781c1.996094-8.410156 2.53125-16.558593 1.621094-24.417969-.90625-7.804687-3.273438-15.46875-7.085938-22.953124l-23.554688-46.246094c-4.214843-8.273438-6.324218-17.164063-6.324218-26.066406 0-8.902344 2.109375-17.789063 6.324218-26.066407 4.328126-8.492187 10.335938-15.257812 17.539063-19.96875 7.46875-4.890625 16.058594-7.4999998 25.265625-7.4999998h6.703125c.253906-.0117187.507813-.0195312.765625-.0195312h101.46875c9.207031 0 17.796875 2.609375 25.265625 7.5 7.203125 4.714844 13.210937 11.476562 17.539063 19.972656 4.214843 8.273438 6.324218 17.164063 6.324218 26.0625 0 8.902344-2.109375 17.792969-6.324218 26.066406l-23.558594 46.246094c-3.8125 7.488282-6.175782 15.148438-7.082032 22.957032-.914062 7.855468-.378906 16.007812 1.621094 24.414062zm0 0" fill="#dff3ff"/><path d="m15 422h57c20.664062 0 39.414062 8.421875 52.996094 22.003906 13.582031 13.582032 22.003906 32.332032 22.003906 52.996094 0 8.285156-6.714844 15-15 15h-117c-8.285156 0-15-6.714844-15-15v-60c0-8.285156 6.714844-15 15-15zm0 0" fill="#007a9f"/><path d="m397.570312 481.816406c1.910157 8.054688-3.074218 16.136719-11.132812 18.046875-8.054688 1.90625-16.136719-3.078125-18.046875-11.132812l-73.316406-308.597657c-2.796875-11.773437-3.527344-23.367187-2.207031-34.730468 1.328124-11.441406 4.710937-22.507813 10.128906-33.148438l23.558594-46.246094c2.027343-3.980468 3.042968-8.234374 3.042968-12.472656 0-4.238281-1.015625-8.492187-3.042968-12.472656-1.914063-3.757812-4.386719-6.628906-7.226563-8.484375-2.566406-1.679687-5.578125-2.578125-8.859375-2.578125h-6.707031c-.25.011719-.507813.019531-.765625.019531h-47v-30.019531h54.472656c9.203125 0 17.792969 2.609375 25.265625 7.5 7.203125 4.714844 13.210937 11.476562 17.539063 19.972656 4.214843 8.273438 6.320312 17.164063 6.320312 26.0625 0 8.902344-2.109375 17.792969-6.320312 26.066406l-23.558594 46.246094c-3.8125 7.488282-6.179688 15.148438-7.085938 22.957032-.914062 7.855468-.375 16.007812 1.621094 24.414062zm0 0" fill="#c5e7fd"/><path d="m222 422h68c12.402344 0 23.65625 5.050781 31.800781 13.199219 8.148438 8.144531 13.199219 19.398437 13.199219 31.800781v30c0 8.285156-6.714844 15-15 15h-128c-8.285156 0-15-6.714844-15-15v-30c0-12.402344 5.050781-23.65625 13.199219-31.800781 8.144531-8.148438 19.398437-13.199219 31.800781-13.199219zm0 0" fill="#007a9f"/><g fill="#00607f"><path d="m256 422h34c12.402344 0 23.65625 5.050781 31.800781 13.199219 8.148438 8.144531 13.199219 19.398437 13.199219 31.800781v30c0 8.285156-6.714844 15-15 15h-64zm0 0"/><path d="m497 422h-57c-20.664062 0-39.414062 8.421875-52.996094 22.003906-13.582031 13.578125-22.003906 32.332032-22.003906 52.996094 0 8.285156 6.714844 15 15 15h117c8.285156 0 15-6.714844 15-15v-60c0-8.285156-6.714844-15-15-15zm0 0"/></g></g></svg>