<svg height="512" viewBox="0 0 128 128" width="512" xmlns="http://www.w3.org/2000/svg"><g><g><path d="m121.25 107.66h-114.5a5 5 0 0 1 -5-5v-77.32a5 5 0 0 1 5-5h57.25l10.008 20.016h52.242v62.3a5 5 0 0 1 -5 5.004z" fill="#f4d844"/><path d="m68.5 29.335h52.75a5 5 0 0 1 5 5v6.021h-52.242z" fill="#de6246"/><path d="m77.25 72.875h39v24.785h-39z" fill="#607880"/><path d="m85.25 80.875h23v8.785h-23z" fill="#94e0da"/></g><g><path d="m1.75 66.417a1.749 1.749 0 0 0 1.75-1.75v-4.362a1.75 1.75 0 0 0 -3.5 0v4.362a1.749 1.749 0 0 0 1.75 1.75z"/><path d="m121.25 27.585h-51.671l-4.014-8.027a1.748 1.748 0 0 0 -1.565-.968h-57.25a6.758 6.758 0 0 0 -6.75 6.75v21.66a1.75 1.75 0 0 0 3.5 0v-21.66a3.254 3.254 0 0 1 3.25-3.25h56.168l4.013 8.026 5.51 11.021a1.751 1.751 0 0 0 1.566.967h50.493v60.556a3.254 3.254 0 0 1 -3.25 3.25h-114.5a3.254 3.254 0 0 1 -3.25-3.25v-24.688a1.75 1.75 0 0 0 -3.5 0v24.688a6.758 6.758 0 0 0 6.75 6.75h114.5a6.758 6.758 0 0 0 6.75-6.75v-68.325a6.758 6.758 0 0 0 -6.75-6.75zm-46.16 11.015-3.761-7.52h49.921a3.254 3.254 0 0 1 3.25 3.25v4.27z"/><path d="m108.25 71.125h-31a1.749 1.749 0 0 0 -1.75 1.75v24.785a1.749 1.749 0 0 0 1.75 1.75h39a1.749 1.749 0 0 0 1.75-1.75v-18.493a1.75 1.75 0 0 0 -3.5 0v16.743h-35.5v-21.285h29.25a1.75 1.75 0 0 0 0-3.5z"/><path d="m108.25 79.125h-23a1.749 1.749 0 0 0 -1.75 1.75v8.785a1.749 1.749 0 0 0 1.75 1.75h23a1.749 1.749 0 0 0 1.75-1.75v-8.785a1.749 1.749 0 0 0 -1.75-1.75zm-1.75 8.785h-19.5v-5.285h19.5z"/></g></g></svg>