<?xml version="1.0" encoding="iso-8859-1"?>
<!-- Generator: Adobe Illustrator 19.0.0, SVG Export Plug-In . SVG Version: 6.00 Build 0)  -->
<svg version="1.1" id="Layer_1" xmlns="http://www.w3.org/2000/svg" xmlns:xlink="http://www.w3.org/1999/xlink" x="0px" y="0px"
	 viewBox="0 0 512 512" style="enable-background:new 0 0 512 512;" xml:space="preserve">
<g>
	<path style="fill:#4C4C4F;" d="M436.28,511.779H151.928c-4.873,0-8.828-3.955-8.828-8.828c0-4.873,3.955-8.828,8.828-8.828H436.28
		c4.873,0,8.828,3.955,8.828,8.828C445.108,507.824,441.153,511.779,436.28,511.779z"/>
	<path style="fill:#4C4C4F;" d="M390.286,476.467H206.662c-4.873,0-8.828-3.955-8.828-8.828s3.955-8.828,8.828-8.828h183.624
		c4.873,0,8.828,3.955,8.828,8.828S395.158,476.467,390.286,476.467z"/>
	<path style="fill:#4C4C4F;" d="M390.456,441.325h-148.4c-4.873,0-8.828-3.955-8.828-8.828s3.955-8.828,8.828-8.828h148.4
		c4.873,0,8.828,3.955,8.828,8.828S395.328,441.325,390.456,441.325z"/>
</g>
<path style="fill:#DD352E;" d="M501.684,179.063L264.828,415.125l-86.426,86.338c-13.781,13.754-36.097,13.754-49.878,0
	L10.316,383.256c-13.754-13.781-13.754-36.097,0-49.878l86.779-85.985L333.156,10.536c13.781-13.754,36.097-13.754,49.878,0
	l118.649,118.649C515.438,142.965,515.438,165.283,501.684,179.063z"/>
<path style="fill:#C7CAC7;" d="M264.828,415.125l-86.426,86.338c-13.781,13.754-36.097,13.754-49.878,0L10.316,383.256
	c-13.754-13.781-13.754-36.097,0-49.878l86.779-85.985L264.828,415.125z"/>
<path style="fill:#B02721;" d="M467.873,159.112c-2.348,0.017-4.599-0.909-6.268-2.56L355.668,50.615
	c-3.17-3.699-2.736-9.278,0.962-12.447c3.302-2.834,8.184-2.834,11.485,0l105.937,105.936c3.416,3.478,3.355,9.067-0.123,12.483
	C472.313,158.176,470.142,159.086,467.873,159.112z"/>
<g>
</g>
<g>
</g>
<g>
</g>
<g>
</g>
<g>
</g>
<g>
</g>
<g>
</g>
<g>
</g>
<g>
</g>
<g>
</g>
<g>
</g>
<g>
</g>
<g>
</g>
<g>
</g>
<g>
</g>
</svg>
