<?xml version="1.0" encoding="iso-8859-1"?>
<!-- Generator: Adobe Illustrator 19.0.0, SVG Export Plug-In . SVG Version: 6.00 Build 0)  -->
<svg version="1.1" id="Capa_1" xmlns="http://www.w3.org/2000/svg" xmlns:xlink="http://www.w3.org/1999/xlink" x="0px" y="0px"
	 viewBox="0 0 480.002 480.002" style="enable-background:new 0 0 480.002 480.002;" xml:space="preserve">
<path style="fill:#D3843D;" d="M352.001,392h-80l-16-48h112L352.001,392z"/>
<g>
	<path style="fill:#FDBD40;" d="M368.001,344h-112V32c0-13.255,10.745-24,24-24h64c13.255,0,24,10.745,24,24V344z"/>
	<path style="fill:#FDBD40;" d="M288.001,472v-80h48v48L288.001,472z"/>
</g>
<path style="fill:#2D75BB;" d="M312.001,184c-13.255,0-24-10.745-24-24V8h48v152C336.001,173.255,325.256,184,312.001,184z"/>
<g>
	<path style="fill:#FDBD40;" d="M256.001,480h-96c-4.418,0-8-3.582-8-8s3.582-8,8-8h96c4.418,0,8,3.582,8,8S260.419,480,256.001,480
		z"/>
	<path style="fill:#FDBD40;" d="M128.001,480h-16c-4.418,0-8-3.582-8-8s3.582-8,8-8h16c4.418,0,8,3.582,8,8S132.419,480,128.001,480
		z"/>
</g>
<path style="fill:#2D75BB;" d="M256.001,248h112v48h-112V248z"/>
<path d="M284.225,479.056c2.603,1.393,5.761,1.239,8.216-0.4l48-32c2.225-1.484,3.56-3.982,3.56-6.656v-40h8
	c3.442-0.003,6.496-2.206,7.584-5.472l16-48c0.24-0.748,0.366-1.527,0.376-2.312c0-0.08,0.04-0.136,0.04-0.216V32
	c0-17.673-14.327-32-32-32h-64c-17.673,0-32,14.327-32,32v312v0.216c0.01,0.785,0.136,1.564,0.376,2.312l16,48
	c1.092,3.28,4.167,5.487,7.624,5.472h8v72C280,474.951,281.624,477.663,284.225,479.056L284.225,479.056z M328.001,435.72
	l-32,21.328V400h32V435.72z M296.001,16h32v144c0,8.837-7.163,16-16,16c-8.837,0-16-7.163-16-16V16z M264.001,32
	c0-8.837,7.163-16,16-16v144c0,17.673,14.327,32,32,32s32-14.327,32-32V16c8.837,0,16,7.163,16,16v208h-96V32z M264.001,256h96v32
	h-96V256z M264.001,336v-32h96v32H264.001z M277.769,384l-10.664-32h89.792l-10.664,32H277.769z"/>
<path d="M160.001,480h96c4.418,0,8-3.582,8-8s-3.582-8-8-8h-96c-4.418,0-8,3.582-8,8S155.583,480,160.001,480z"/>
<path d="M128.001,480c4.418,0,8-3.582,8-8s-3.582-8-8-8h-16c-4.418,0-8,3.582-8,8s3.582,8,8,8H128.001z"/>
<g>
</g>
<g>
</g>
<g>
</g>
<g>
</g>
<g>
</g>
<g>
</g>
<g>
</g>
<g>
</g>
<g>
</g>
<g>
</g>
<g>
</g>
<g>
</g>
<g>
</g>
<g>
</g>
<g>
</g>
</svg>
