<svg height="512" viewBox="0 0 64 64" width="512" xmlns="http://www.w3.org/2000/svg"><g id="Pencil_Case" data-name="Pencil Case"><path d="m55 35v4h-2-5-37-2v-4h8.81 4.14 4.05 4 4 4 4 10z" fill="#9cdd05"/><path d="m53 57v4h-42v-4h2 35 3z" fill="#9cdd05"/><path d="m53 39-2 18h-3v-3-8-2-2-3z" fill="#ff7956"/><path d="m52 27v8h-10v-24-8h10v4 4 4 4 4z" fill="#ffc477"/><path d="m48 54v3h-35l-2-18h37v3 2 2z" fill="#ff7956"/><path d="m38 11h4v24h-4z" fill="#ff3051"/><path d="m38 3 4 8h-4-4z" fill="#2488ff"/><path d="m34 11h4v24h-4z" fill="#ffcd00"/><path d="m30 11h4v24h-4z" fill="#ff3051"/><path d="m34 8v3h-4-4v-3z" fill="#2488ff"/><path d="m34 7v1h-8v-1a4 4 0 1 1 8 0z" fill="#46f8ff"/><path d="m26 11h4v24h-4z" fill="#ffcd00"/><path d="m17.34 17.82 4.61 17.18h-4.14l-4.33-16.14z" fill="#ff7956"/><path d="m14.94 5.01 3.37 12.55-.97.26-3.86 1.04-.97.26-3.36-12.56a3 3 0 0 1 5.79-1.55z" fill="#ffc477"/><path d="m11.306 5.75h2v2h-2z" transform="matrix(.966 -.259 .259 .966 -1.328 3.415)"/><path d="m12.859 9.545h2v6.001h-2z" transform="matrix(.966 -.259 .259 .966 -2.776 4.016)"/><path d="m55 34h-2v-31a1 1 0 0 0 -1-1h-10a1 1 0 0 0 -1 1v3.764l-2.1-4.211a1.042 1.042 0 0 0 -1.79 0l-2.13 4.247a4.992 4.992 0 0 0 -9.98.2v27h-2.283l-4.151-15.469a1 1 0 0 0 .707-1.224l-3.362-12.559a4 4 0 1 0 -7.727 2.071l3.105 11.591-2.9.777a1 1 0 0 0 -.707 1.224l2.587 9.659 1.932-.517-2.326-8.694 2.9-.776 3.731 13.917h-7.506a1 1 0 0 0 -1 1v4a1 1 0 0 0 1 1h1.105l1.778 16h-.883a1 1 0 0 0 -1 1v4a1 1 0 0 0 1 1h42a1 1 0 0 0 1-1v-4a1 1 0 0 0 -1-1h-.883l1.783-16h1.1a1 1 0 0 0 1-1v-4a1 1 0 0 0 -1-1zm-12-30h8v2h-5v2h5v2h-3v2h3v2h-5v2h5v2h-3v2h3v2h-5v2h5v2h-3v2h3v6h-8zm-4 30v-22h2v22zm-8 0v-22h2v22zm2-24h-6v-1h6zm2 2h2v22h-2zm3-6.764 2.382 4.764h-4.764zm-8-1.236a3 3 0 0 1 3 3h-6a3 3 0 0 1 3-3zm-3 8h2v22h-2zm-16.685-7.217a1.989 1.989 0 0 1 1.214-.931 2 2 0 0 1 2.45 1.414l3.106 11.591-3.864 1.036-3.106-11.593a2 2 0 0 1 .2-1.517zm4.39 14.782 1.929-.517 4.013 14.952h-2.07zm37.295 40.435h-40v-2h40zm-1.9-4h-36.2l-1.783-16h39.766zm3.9-18h-44v-2h44z"/><path d="m47 46h2v8h-2z"/><path d="m47 42h2v2h-2z"/></g></svg>