<?xml version="1.0"?>
<svg xmlns="http://www.w3.org/2000/svg" height="512px" viewBox="0 -31 503.0901 503" width="512px" class="hovered-paths"><g><path d="m136.9375 167.21875c37.40625-9.753906 75.917969-14.617188 114.570312-14.472656 38.65625-.144532 77.167969 4.71875 114.570313 14.472656 11.460937-7.03125 18.933594-19.050781 20.167969-32.4375 0-34.078125-61.699219-62.875-134.738282-62.875-73.035156 0-134.734374 28.796875-134.734374 62.875 1.230468 13.386719 8.707031 25.40625 20.164062 32.4375zm0 0" data-original="#000000" class="hovered-path active-path" data-old_color="#000000" fill="#886060"/><path d="m251.507812 269.519531c138.679688 0 251.507813-60.445312 251.507813-134.738281s-112.828125-134.734375-251.507813-134.734375c-138.679687 0-251.507812 60.441406-251.507812 134.734375s112.828125 134.738281 251.507812 134.738281zm0-215.578125c85.621094 0 152.703126 35.507813 152.703126 80.839844 0 18.449219-11.246094 35.210938-30.199219 48.675781-.511719.46875-1.078125.871094-1.6875 1.203125-27.710938 18.925782-71.078125 30.964844-120.816407 30.964844-49.601562 0-92.878906-11.964844-120.597656-30.8125-.410156-.242188-.796875-.515625-1.160156-.824219-19.410156-13.546875-30.941406-30.515625-30.941406-49.207031 0-45.332031 67.078125-80.839844 152.699218-80.839844zm0 0" data-original="#000000" class="hovered-path active-path" data-old_color="#000000" fill="#886060"/><path d="m441.261719 287.484375h-55.015625v152.699219h55.015625l-15.683594-12.410156c-2.152344-1.707032-3.410156-4.300782-3.410156-7.046876 0-2.75 1.257812-5.34375 3.410156-7.046874l27.03125-21.398438-27.03125-21.40625c-2.148437-1.703125-3.40625-4.296875-3.40625-7.039062 0-2.746094 1.257813-5.339844 3.40625-7.042969l27.03125-21.40625-27.03125-21.394531c-2.152344-1.703126-3.410156-4.300782-3.410156-7.046876 0-2.75 1.257812-5.34375 3.410156-7.046874zm0 0" data-original="#000000" class="hovered-path active-path" data-old_color="#000000" fill="#886060"/><path d="m503.015625 189.511719c-23.351563 34.375-68.050781 62.789062-124.855469 80.007812h88.925782c.179687 0 .324218.089844.496093.097657.632813.058593 1.261719.1875 1.867188.378906.519531.113281 1.027343.277344 1.519531.484375.480469.257812.9375.558593 1.363281.898437.511719.34375.984375.746094 1.410157 1.195313.117187.125.28125.1875.386718.320312.191406.328125.363282.667969.511719 1.015625.339844.515625.621094 1.066406.835937 1.644532.191407.582031.316407 1.1875.367188 1.796874.105469.375.179688.761719.226562 1.148438 0 .179688-.089843.324219-.097656.496094-.0625.609375-.1875 1.210937-.371094 1.796875-.121093.523437-.285156 1.039062-.492187 1.535156-.257813.484375-.558594.945313-.898437 1.375-.34375.507813-.742188.976563-1.1875 1.398437-.125.117188-.1875.289063-.332032.398438l-27.035156 21.402344 27.035156 21.398437c.242188.25.46875.519531.675782.796875.277343.207032.542968.433594.789062.675782.164062.207031.199219.449218.34375.664062.332031.515625.605469 1.0625.824219 1.636719.21875.507812.390625 1.035156.503906 1.578125.179687 1.121094.179687 2.265625 0 3.386718-.265625 1.136719-.714844 2.222657-1.328125 3.214844-.144531.21875-.179688.46875-.34375.667969-.160156.195313-.476562.332031-.683594.546875-.234375.320312-.496094.621094-.78125.898438l-27.0625 21.46875 17.480469 13.832031c26.039063-21.746094 39.90625-46.582031 39.90625-72.21875.027344-.515625.027344-1.03125 0-1.546875 0-.269532.082031-.511719.074219-.769532 0-.066406 0-.117187 0-.179687zm0 0" data-original="#000000" class="hovered-path active-path" data-old_color="#000000" fill="#886060"/><path d="m251.507812 440.183594h116.773438v-152.699219h-116.773438c-114.5625 0-212.585937-40.734375-251.507812-97.972656v115.9375c0 74.292969 112.828125 134.734375 251.507812 134.734375zm0 0" data-original="#000000" class="hovered-path active-path" data-old_color="#000000" fill="#886060"/></g> </svg>
