<?xml version="1.0" encoding="iso-8859-1"?>
<!-- Generator: Adobe Illustrator 19.0.0, SVG Export Plug-In . SVG Version: 6.00 Build 0)  -->
<svg version="1.1" id="Capa_1" xmlns="http://www.w3.org/2000/svg" xmlns:xlink="http://www.w3.org/1999/xlink" x="0px" y="0px"
	 viewBox="0 0 512.001 512.001" style="enable-background:new 0 0 512.001 512.001;" xml:space="preserve">
<linearGradient id="SVGID_1_" gradientUnits="userSpaceOnUse" x1="457.5112" y1="476.3845" x2="476.5412" y2="457.3585" gradientTransform="matrix(1.007 0 0 -1.007 0.3433 518.5751)">
	<stop  offset="0" style="stop-color:#4D4D4D"/>
	<stop  offset="1" style="stop-color:#333333"/>
</linearGradient>
<path style="fill:url(#SVGID_1_);" d="M450.099,86.605l-24.703-24.703c-4.251-4.251-4.251-11.144,0-15.394l43.319-43.319
	c4.251-4.251,11.144-4.251,15.394,0l24.703,24.703c4.251,4.251,4.251,11.144,0,15.394l-43.319,43.319
	C461.243,90.856,454.35,90.856,450.099,86.605z"/>
<linearGradient id="SVGID_2_" gradientUnits="userSpaceOnUse" x1="252.7474" y1="264.5947" x2="268.4073" y2="248.9347" gradientTransform="matrix(1.007 0 0 -1.007 0.3433 518.5751)">
	<stop  offset="0" style="stop-color:#67DCDC"/>
	<stop  offset="1" style="stop-color:#01C4C5"/>
</linearGradient>
<path style="fill:url(#SVGID_2_);" d="M94.534,480.432l-62.965-62.965L411.171,37.865c4.987-4.987,13.072-4.987,18.06,0
	l44.905,44.905c4.987,4.987,4.987,13.072,0,18.06L94.534,480.432z"/>
<path style="fill:#333333;" d="M1.112,510.888L1.112,510.888c-1.483-1.483-1.483-3.887,0-5.37l17.521-17.521l5.37,5.37
	L6.483,510.888C5.001,512.371,2.596,512.371,1.112,510.888z"/>
<linearGradient id="SVGID_3_" gradientUnits="userSpaceOnUse" x1="26.4842" y1="56.8225" x2="52.1252" y2="31.1825" gradientTransform="matrix(1.007 0 0 -1.007 0.3433 518.5751)">
	<stop  offset="0" style="stop-color:#67DCDC"/>
	<stop  offset="1" style="stop-color:#01C4C5"/>
</linearGradient>
<path style="fill:url(#SVGID_3_);" d="M27.936,502.144l66.598-21.712l-62.965-62.965L9.857,484.065
	c-1.309,4.016-0.512,8.068,2.104,10.682l5.293,5.293C19.869,502.655,23.92,503.453,27.936,502.144z"/>
<linearGradient id="SVGID_4_" gradientUnits="userSpaceOnUse" x1="146.4625" y1="-13.4428" x2="146.4625" y2="122.7172" gradientTransform="matrix(1.007 0 0 -1.007 0.3433 518.5751)">
	<stop  offset="0" style="stop-color:#67DCDC;stop-opacity:0"/>
	<stop  offset="1" style="stop-color:#019394"/>
</linearGradient>
<path style="fill:url(#SVGID_4_);" d="M234.562,339.446c0.343-3.77-0.379-7.481-2.324-10.639
	c-12.479-20.25-28.794-36.564-49.043-49.043c-3.461-2.133-7.587-2.796-11.728-2.194L61.238,387.798
	c-0.224,1.539-0.282,3.075-0.144,4.578v98.957l33.441-10.902l0,0l140.069-140.069C234.591,340.056,234.59,339.749,234.562,339.446z"
	/>
<linearGradient id="SVGID_5_" gradientUnits="userSpaceOnUse" x1="135.9595" y1="163.8268" x2="161.4995" y2="138.2869" gradientTransform="matrix(1.007 0 0 -1.007 0.3433 518.5751)">
	<stop  offset="0" style="stop-color:#4D4D4D"/>
	<stop  offset="1" style="stop-color:#333333"/>
</linearGradient>
<path style="fill:url(#SVGID_5_);" d="M70.295,372.486c31.831-25.364,60.482-54.015,85.846-85.845
	c7.048-8.846,18.894-11.904,27.054-6.876c20.249,12.478,36.564,28.792,49.043,49.043c5.028,8.16,1.969,20.006-6.876,27.054
	c-31.83,25.363-60.482,54.015-85.846,85.846c-7.048,8.846-18.895,11.904-27.054,6.876c-20.25-12.479-36.564-28.794-49.043-49.043
	C58.39,391.38,61.449,379.534,70.295,372.486z"/>
<linearGradient id="SVGID_6_" gradientUnits="userSpaceOnUse" x1="227.5954" y1="186.4772" x2="227.5954" y2="231.0072" gradientTransform="matrix(1.007 0 0 -1.007 0.3433 518.5751)">
	<stop  offset="0" style="stop-color:#67DCDC;stop-opacity:0"/>
	<stop  offset="1" style="stop-color:#019394"/>
</linearGradient>
<polygon style="fill:url(#SVGID_6_);" points="194.546,254.49 257.511,317.455 264.52,310.446 201.555,247.481 "/>
<linearGradient id="SVGID_7_" gradientUnits="userSpaceOnUse" x1="62.9274" y1="113.8772" x2="62.9274" y2="72.9772" gradientTransform="matrix(1.007 0 0 -1.007 0.3433 518.5751)">
	<stop  offset="0" style="stop-color:#67DCDC;stop-opacity:0"/>
	<stop  offset="1" style="stop-color:#019394"/>
</linearGradient>
<polygon style="fill:url(#SVGID_7_);" points="95.854,479.112 32.889,416.147 31.569,417.466 94.534,480.432 "/>
<linearGradient id="SVGID_8_" gradientUnits="userSpaceOnUse" x1="417.6896" y1="284.057" x2="362.2296" y2="374.707" gradientTransform="matrix(1.007 0 0 -1.007 0.3433 518.5751)">
	<stop  offset="0" style="stop-color:#67DCDC;stop-opacity:0"/>
	<stop  offset="1" style="stop-color:#019394"/>
</linearGradient>
<path style="fill:url(#SVGID_8_);" d="M451.074,123.892V81.896c0.299-2.322-0.422-4.763-2.229-6.57l-12.171-12.171
	c-3.333-3.333-8.829-3.005-11.742,0.701l-36.731,46.738c-12.967,16.501-28.211,31.077-45.276,43.293l-19.421,13.904
	c-6.368,4.559-9.799,11.942-9.483,19.462v73.689L451.074,123.892z"/>
<linearGradient id="SVGID_9_" gradientUnits="userSpaceOnUse" x1="374.9341" y1="385.3614" x2="387.0741" y2="373.2314" gradientTransform="matrix(1.007 0 0 -1.007 0.3433 518.5751)">
	<stop  offset="0" style="stop-color:#4D4D4D"/>
	<stop  offset="1" style="stop-color:#333333"/>
</linearGradient>
<path style="fill:url(#SVGID_9_);" d="M358.111,169.075c12.216-17.065,26.793-32.309,43.294-45.277l46.738-36.731
	c3.706-2.912,4.034-8.409,0.702-11.742l-12.171-12.171c-3.333-3.333-8.829-3.005-11.742,0.702l-36.731,46.738
	c-12.967,16.501-28.211,31.077-45.276,43.293l-19.421,13.903c-7.734,5.537-11.15,15.239-8.762,24.295
	c0.327,1.241,0.979,2.377,1.886,3.284l0,0c0.907,0.907,2.043,1.559,3.284,1.886c9.056,2.388,18.758-1.028,24.295-8.762
	L358.111,169.075z"/>
<g>
</g>
<g>
</g>
<g>
</g>
<g>
</g>
<g>
</g>
<g>
</g>
<g>
</g>
<g>
</g>
<g>
</g>
<g>
</g>
<g>
</g>
<g>
</g>
<g>
</g>
<g>
</g>
<g>
</g>
</svg>
