<svg height="512" viewBox="0 0 64 64" width="512" xmlns="http://www.w3.org/2000/svg"><g id="Color_pencils" data-name="Color pencils"><path d="m5 9h54v24h-54z" fill="#a97c50"/><path d="m57 9h2v24h-2z" fill="#8b5e3c"/><path d="m24.414 20.586 1.586-1.586-3-6-3 6 1.586 1.586a2 2 0 0 0 2.828 0z" fill="#ffb655"/><path d="m18.414 20.586 1.586-1.586-3-6-3 6 1.586 1.586a2 2 0 0 0 2.828 0z" fill="#ffda44"/><path d="m18.414 20.586a2 2 0 0 1 -2.828 0l-1.586-1.586v9.429l6 2.285v-11.714z" fill="#ffcd00"/><path d="m26 19-1.586 1.586a2 2 0 0 1 -2.828 0l-1.586-1.586v11.714l6 2.286z" fill="#f7941d"/><path d="m54.414 20.586 1.586-1.586-3-6-3 6 1.586 1.586a2 2 0 0 0 2.828 0z" fill="#58595b"/><path d="m5 55h54v6h-54z" fill="#ffc477"/><path d="m8 19 1.586 1.586a2 2 0 0 0 2.828 0l1.586-1.586-3-6z" fill="#ed1c24"/><path d="m53 3h-43l-5 6h54z" fill="#ff9811"/><path d="m42.414 20.586 1.586-1.586-3-6-3 6 1.586 1.586a2 2 0 0 0 2.828 0z" fill="#a25bcd"/><path d="m48.414 20.586 1.586-1.586-3-6-3 6 1.586 1.586a2 2 0 0 0 2.828 0z" fill="#8b5e3c"/><path d="m42.414 20.586a2 2 0 0 1 -2.828 0l-1.586-1.586v14l6-2.286v-11.714z" fill="#933ec5"/><path d="m50 19-1.586 1.586a2 2 0 0 1 -2.828 0l-1.586-1.586v11.714l6-2.285z" fill="#754c29"/><path d="m8 19 1.586 1.586a2 2 0 0 0 2.828 0l1.586-1.586-3-6z" fill="none"/><path d="m54.414 20.586 1.586-1.586-3-6-3 6 1.586 1.586a2 2 0 0 0 2.828 0z" fill="none"/><path d="m9.586 20.586-1.586-1.586v7.143l6 2.286v-9.429l-1.586 1.586a2 2 0 0 1 -2.828 0z" fill="#d80027"/><path d="m54.414 20.586 1.586-1.586-3-6-3 6 1.586 1.586a2 2 0 0 0 2.828 0z" fill="none"/><path d="m54.414 20.586a2 2 0 0 1 -2.828 0l-1.586-1.586v9.429l6-2.286v-7.143z" fill="#414042"/><path d="m59 25-9 3.429v.001-.001l-12 4.571h-6-6l-12-4.571v.001-.001l-9-3.429v14h54z" fill="#ffc477"/><path d="m30.414 20.586a2 2 0 0 1 -2.828 0l-1.586-1.586v14h6v-14z" fill="#5eac24"/><path d="m30.414 20.586 1.586-1.586-3-6-3 6 1.586 1.586a2 2 0 0 0 2.828 0z" fill="#7ed63e"/><path d="m36.414 20.586 1.586-1.586-3-6-3 6 1.586 1.586a2 2 0 0 0 2.828 0z" fill="#2488ff"/><path d="m36.414 20.586a2 2 0 0 1 -2.828 0l-1.586-1.586v14h6v-14z" fill="#006df0"/><path d="m5 39h54v16h-54z" fill="#ffcd00"/><path d="m57 55h2v6h-2z" fill="#ffb655"/><path d="m57 25.762v13.238h2v-14z" fill="#ffb655"/><path d="m57 39h2v16h-2z" fill="#ebbf00"/><g fill="#cca400"><path d="m32 50h20v2h-20z"/><path d="m54 50h2v2h-2z"/></g></g></svg>