<svg height="512pt" viewBox="-96 0 512 512" width="512pt" xmlns="http://www.w3.org/2000/svg"><path d="m112 64h96v96h-96zm0 0" fill="#b0b4b9"/><path d="m304 480h-17.390625l-29.363281-322.894531c-1.484375-16.480469-15.308594-29.105469-31.855469-29.105469h-130.765625c-16.546875 0-30.367188 12.625-31.871094 29.105469l-29.363281 322.894531h-17.390625c-8.832031 0-16 7.167969-16 16s7.167969 16 16 16h288c8.832031 0 16-7.167969 16-16s-7.167969-16-16-16zm0 0" fill="#e76e54"/><path d="m240 96h-160v-64c0-17.679688 14.320312-32 32-32h96c17.679688 0 32 14.320312 32 32zm0 0" fill="#e76e54"/><path d="m112 240h96v96h-96zm0 0" fill="#e4edfb"/><path d="m304 480h-288c-8.832031 0-16 7.167969-16 16s7.167969 16 16 16h288c8.832031 0 16-7.167969 16-16s-7.167969-16-16-16zm0 0" fill="#b0b4b9"/><path d="m282.238281 432h-244.476562l-4.371094 48h253.21875zm0 0" fill="#dd523c"/></svg>