<?xml version="1.0" encoding="UTF-8"?>
<svg xmlns="http://www.w3.org/2000/svg" xmlns:xlink="http://www.w3.org/1999/xlink" width="512" height="512" viewBox="0 0 58 58" version="1.1"><!-- Generator: Sketch 51.3 (57544) - http://www.bohemiancoding.com/sketch --><title>001 - Pencil</title><desc>Created with Sketch.</desc><defs/><g id="Page-1" stroke="none" stroke-width="1" fill="none" fill-rule="evenodd"><g id="001---Pencil" transform="translate(-1.000000, -1.000000)" fill-rule="nonzero"><polygon id="Shape" fill="#2C3E50" points="40.216 53.131 27.301 40.216 12.234 25.148 25.148 12.234 53.131 40.216"/><polygon id="Shape" fill="#35495E" points="53.13 40.22 40.22 53.13 39.59 52.5 46 46.09 18.65 18.73 25.15 12.23"/><path d="M44.521,48.826 C43.3998318,47.6265207 43.4319613,45.7540109 44.5936199,44.5937014 C45.7552785,43.433392 47.6278244,43.4034386 48.826,44.526 C48.0148096,43.766002 47.6823896,42.62426 47.9588329,41.5475957 C48.2352762,40.4709314 49.0766207,39.6305641 50.1536055,39.3553722 C51.2305903,39.0801803 52.3719452,39.4139269 53.131,40.226 L58.946,57.673 C59.0677399,58.0374988 58.9729669,58.4394966 58.7012318,58.7112318 C58.4294966,58.9829669 58.0274988,59.0777399 57.663,58.956 L40.216,53.131 C39.4048096,52.371002 39.0723896,51.22926 39.3488329,50.1525957 C39.6252762,49.0759314 40.4666207,48.2355641 41.5436055,47.9603722 C42.6205903,47.6851803 43.7619452,48.0189269 44.521,48.831 L44.521,48.826 Z" id="Shape" fill="#B19046"/><path d="M57.66,58.95 L51.38,56.85 C51.6533641,53.9497636 53.9497636,51.6533641 56.85,51.38 L58.95,57.66 C59.0711945,58.0263631 58.9754819,58.429753 58.7026175,58.7026175 C58.429753,58.9754819 58.0263631,59.0711945 57.66,58.95 Z" id="Shape" fill="#2C3E50"/><path d="M39.5,44.8 C39.2346514,44.8007185 38.9800531,44.6952061 38.793,44.507 L35.923,41.637 C35.5440278,41.2446211 35.5494476,40.6209152 35.9351814,40.2351814 C36.3209152,39.8494476 36.9446211,39.8440278 37.337,40.223 L40.207,43.093 C40.4929079,43.3789943 40.5784219,43.8090366 40.423678,44.1826546 C40.2689341,44.5562725 39.9043959,44.7999137 39.5,44.8 Z" id="Shape" fill="#35495E"/><path d="M33.041,38.346 C32.7758052,38.3459434 32.5214927,38.2405494 32.334,38.053 L18.7,24.42 C18.4400434,24.1689255 18.3357874,23.7971221 18.4273028,23.4474927 C18.5188183,23.0978632 18.7918632,22.8248183 19.1414927,22.7333028 C19.4911221,22.6417874 19.8629255,22.7460434 20.114,23.006 L33.748,36.639 C34.0339079,36.9249943 34.1194219,37.3550366 33.964678,37.7286546 C33.8099341,38.1022725 33.4453959,38.3459137 33.041,38.346 Z" id="Shape" fill="#35495E"/><path d="M26.583,23.278 C26.3178052,23.2779434 26.0634927,23.1725494 25.876,22.985 L23.006,20.116 C22.753056,19.8634132 22.6540795,19.4950694 22.746354,19.14972 C22.8386285,18.8043707 23.1081354,18.5344826 23.453354,18.44172 C23.7985726,18.3489574 24.167056,18.4474132 24.42,18.7 L27.291,21.569 C27.5770368,21.8551229 27.6624873,22.2854079 27.5074868,22.6591167 C27.3524864,23.0328255 26.9875779,23.2763183 26.583,23.276 L26.583,23.278 Z" id="Shape" fill="#2C3E50"/><path d="M43.8,40.5 C43.5348052,40.4999434 43.2804927,40.3945494 43.093,40.207 L29.464,26.573 C29.0850278,26.1806211 29.0904476,25.5569152 29.4761814,25.1711814 C29.8619152,24.7854476 30.4856211,24.7800278 30.878,25.159 L44.51,38.791 C44.7977366,39.0771885 44.8839775,39.5088953 44.7282792,39.8836675 C44.572581,40.2584397 44.2058231,40.5019492 43.8,40.5 Z" id="Shape" fill="#2C3E50"/><rect id="Rectangle-path" fill="#E6E7E8" transform="translate(16.538971, 16.539707) rotate(-45.000000) translate(-16.538971, -16.539707) " x="7.406971" y="13.4957071" width="18.264" height="6.088"/><path d="M20.84,7.93 L17.92,10.85 L7.93,20.84 L2.19,15.1 C0.623590803,13.5401703 0.596890811,11.0125711 2.13,9.42 L9.36,2.19 C10.1200222,1.4266669 11.1528226,0.997551399 12.23,0.997551399 C13.3071774,0.997551399 14.3399778,1.4266669 15.1,2.19 L20.84,7.93 Z" id="Shape" fill="#DF4D60"/><path d="M17.92,10.85 L7.93,20.84 L2.19,15.1 C0.623590803,13.5401703 0.596890811,11.0125711 2.13,9.42 L6.44,5.11 C8.02715201,3.53000809 10.592848,3.53000809 12.18,5.11 L17.92,10.85 Z" id="Shape" fill="#FF5364"/><polygon id="Shape" fill="#95A5A5" points="25.15 12.23 22.28 15.1 17.97 10.8 20.84 7.93"/><rect id="Rectangle-path" fill="#D1D4D1" transform="translate(18.333032, 14.745254) rotate(-45.000000) translate(-18.333032, -14.745254) " x="15.7960317" y="11.7027544" width="5.074" height="6.085"/><polygon id="Shape" fill="#D1D4D1" points="15.1 22.28 12.23 25.15 7.93 20.84 10.8 17.97"/><path d="M56.85,51.38 C55.4431569,51.5090782 54.126432,52.1285052 53.13,53.13 L44.52,44.52 C45.7102582,43.3300305 47.6397418,43.3300305 48.83,44.52 C47.6768372,43.3268819 47.6929906,41.4296117 48.8663011,40.2563011 C50.0396117,39.0829906 51.9368819,39.0668372 53.13,40.22 L56.85,51.38 Z" id="Shape" fill="#E4C05C"/><path d="M58.7,58.7 L53.13,53.13 C54.126432,52.1285052 55.4431569,51.5090782 56.85,51.38 L58.95,57.66 C59.0746499,58.0258496 58.9773118,58.4307758 58.7,58.7 Z" id="Shape" fill="#35495E"/></g></g></svg>
