<?xml version="1.0" encoding="iso-8859-1"?>
<!-- Generator: Adobe Illustrator 19.0.0, SVG Export Plug-In . SVG Version: 6.00 Build 0)  -->
<svg version="1.1" id="Capa_1" xmlns="http://www.w3.org/2000/svg" xmlns:xlink="http://www.w3.org/1999/xlink" x="0px" y="0px"
	 viewBox="0 0 403.432 403.432" style="enable-background:new 0 0 403.432 403.432;" xml:space="preserve">
<g>
	
		<rect x="342.198" y="9.717" transform="matrix(-0.7071 0.7071 -0.7071 -0.7071 642.2396 -172.9909)" style="fill:#ED664C;" width="29.5" height="73.599"/>
	<polygon style="fill:#ED664C;" points="372.507,82.916 350.207,105.216 350.207,105.216 350.407,102.916 300.407,52.916 
		298.307,53.216 320.507,30.916 	"/>
</g>
<polygon style="fill:#FDC75B;" points="298.307,53.216 300.407,52.916 350.407,102.916 350.207,105.216 341.807,180.616 
	222.707,61.516 "/>
<path style="fill:#ED664C;" d="M341.807,180.616l-138.4,164.9l-0.3-0.2l-145.3-145.3l165-138.4L341.807,180.616z M197.207,275.616
	l76.5-76.5l-65.8-65.8l-76.5,76.5L197.207,275.616z"/>
<g>
	
		<rect x="148.419" y="157.941" transform="matrix(-0.7071 0.7072 -0.7072 -0.7071 490.2916 205.7817)" style="fill:#FDC75B;" width="108.207" height="93.006"/>
	<polygon style="fill:#FDC75B;" points="203.407,345.516 163.307,393.316 10.007,240.016 57.807,200.016 203.107,345.316 	"/>
</g>
<path d="M280.707,192.016l-65.8-65.8c-1.9-1.9-4.4-2.9-7.1-2.9s-5.2,1.1-7.1,2.9l-76.4,76.5c-3.9,3.9-3.9,10.2,0,14.1l65.8,65.8
	c1.9,1.9,4.4,2.9,7.1,2.9s5.2-1.1,7.1-2.9l76.5-76.5C284.607,202.216,284.607,195.916,280.707,192.016z M197.207,261.416l-51.6-51.6
	l62.3-62.3l51.6,51.6L197.207,261.416z"/>
<path d="M348.407,3.016c-1.9-1.9-4.4-2.9-7.1-2.9s-5.2,1.1-7.1,2.9l-40.5,40.6l-72,8c-0.1,0-0.1,0-0.2,0c-0.4,0-0.8,0.1-1.1,0.2
	c-0.1,0-0.2,0-0.3,0.1c-0.4,0.1-0.8,0.3-1.2,0.4c0,0-0.1,0-0.1,0.1c-0.4,0.2-0.7,0.3-1.1,0.6c-0.1,0-0.1,0.1-0.2,0.1
	c-0.4,0.2-0.7,0.5-1.1,0.8l0,0l-162.5,136.2c-1.3,0.5-2.6,1.2-3.6,2.3c-0.6,0.6-1.1,1.3-1.6,2.1l-45.1,37.9
	c-2.1,1.8-3.4,4.4-3.6,7.2c-0.1,2.8,0.9,5.5,2.9,7.5l153.3,153.3c1.9,1.9,4.4,2.9,7.1,2.9c0.1,0,0.3,0,0.4,0
	c2.8-0.1,5.4-1.4,7.2-3.6l178.5-212.7l0,0c0.3-0.3,0.5-0.7,0.8-1.1c0-0.1,0.1-0.1,0.1-0.2c0.2-0.3,0.4-0.7,0.6-1.1
	c0,0,0-0.1,0.1-0.1c0.2-0.4,0.3-0.8,0.4-1.3c0-0.1,0-0.2,0.1-0.2c0.1-0.4,0.2-0.8,0.2-1.2v-0.1l8-71.8l19.8-19.8c0,0,0,0,0.1-0.1
	s0,0,0.1-0.1l20.8-20.8c3.9-3.9,3.9-10.2,0-14.1L348.407,3.016z M379.207,62.116l-6.7,6.7l-37.8-37.9l6.7-6.7L379.207,62.116z
	 M351.507,89.816l-37.9-37.9l6.9-6.9l37.9,37.9L351.507,89.816z M202.707,330.816l-130.1-130.2l149.6-125.5l106.1,106.1
	L202.707,330.816z M244.507,69.216l52.2-5.8l43.2,43.2l-5.8,52.2L244.507,69.216z M162.707,378.516l-137.9-137.8l32.4-27.2
	l132.6,132.6L162.707,378.516z"/>
<g>
</g>
<g>
</g>
<g>
</g>
<g>
</g>
<g>
</g>
<g>
</g>
<g>
</g>
<g>
</g>
<g>
</g>
<g>
</g>
<g>
</g>
<g>
</g>
<g>
</g>
<g>
</g>
<g>
</g>
</svg>
