<?xml version="1.0" encoding="UTF-8"?>
<svg xmlns="http://www.w3.org/2000/svg" xmlns:xlink="http://www.w3.org/1999/xlink" width="512" height="512" viewBox="0 0 60 60" version="1.1"><!-- Generator: Sketch 51.3 (57544) - http://www.bohemiancoding.com/sketch --><title>063 - Gluestick</title><desc>Created with Sketch.</desc><defs/><g id="Page-1" stroke="none" stroke-width="1" fill="none" fill-rule="evenodd"><g id="063---Gluestick" fill-rule="nonzero"><path d="M58.84,46.18 L46.18,58.84 L33.52,46.18 L1.15,13.82 C0.38,13.05 2.58,9.58 6.08,6.08 C7.47721857,4.65402479 9.00750742,3.36483178 10.65,2.23 C12.21,1.18 13.4,0.74 13.82,1.16 L21.54,8.88 L46.18,33.52 L58.84,46.18 Z" id="Shape" fill="#CFD8DC"/><path d="M56.59,47.34 L45.64,58.3 L33.52,46.18 L1.15,13.82 C0.38,13.05 2.58,9.58 6.08,6.08 C7.47721857,4.65402479 9.00750742,3.36483178 10.65,2.23 C11.08,2.12 11.39,2.14 11.57,2.32 L43.93,34.68 L56.59,47.34 Z" id="Shape" fill="#F5F5F5"/><path d="M58.84,46.18 L52.51,52.51 L46.18,58.84 L45.6,58.26 L33.52,46.18 C32.74,45.41 34.95,41.94 38.44,38.44 C39.8533382,37.002938 41.4003218,35.7037396 43.06,34.56 C44.6,33.54 45.77,33.1 46.18,33.52 L58.84,46.18 Z" id="Shape" fill="#283593"/><path d="M21.54,8.88 C21.15,8.53 20.16,8.85 18.84,9.67 C18.71,9.75 18.57,9.84 18.42,9.94 C16.7647713,11.0814939 15.2242185,12.3809167 13.82,13.82 C10.33,17.31 8.13,20.76 8.89,21.55 L7.34,20 L1.15,13.82 C0.38,13.05 2.58,9.58 6.08,6.08 C7.48791364,4.64099163 9.03177527,3.34160266 10.69,2.2 C12.23,1.17 13.4,0.74 13.82,1.16 L21.54,8.88 Z" id="Shape" fill="#283593"/><path d="M56.147,47.816 L49.817,54.146 L45.237,58.736 L33.157,46.656 C32.377,45.886 34.587,42.416 38.077,38.916 C39.4903382,37.478938 41.0373218,36.1797396 42.697,35.036 C42.9640258,34.9434536 43.2594998,34.9883357 43.487,35.156 L56.147,47.816 Z" id="Shape" fill="#3F51B5"/><path d="M19.21,10.04 C18.9783317,9.8808769 18.6840104,9.84362104 18.42,9.94 C17.01,10.25 14.26,12.2 11.49,14.98 C9.69,16.78 8.89,19.58 8,21 L1.15,13.82 C0.38,13.05 2.58,9.58 6.08,6.08 C7.48791364,4.64099163 9.03177527,3.34160266 10.69,2.2 C10.9603231,2.10762557 11.2586763,2.15237855 11.49,2.32 L18.84,9.67 L19.21,10.04 Z" id="Shape" fill="#3F51B5"/><path d="M33.52,33.52 C33.0543575,33.9703728 32.4534556,34.2550105 31.81,34.33 C29.7899206,34.4290011 27.8325268,33.6137264 26.48,32.11 C24.31,29.94 23.62,27.07 24.78,25.43 C24.8625206,25.3023013 24.9598642,25.1848175 25.07,25.08 L25.08,25.08 C26.64,23.52 29.78,24.15 32.11,26.48 C34.44,28.81 35.07,31.96 33.52,33.52 Z" id="Shape" fill="#0377BC"/><path d="M31.81,34.33 C29.7899206,34.4290011 27.8325268,33.6137264 26.48,32.11 C24.31,29.94 23.62,27.07 24.78,25.43 C26.8000794,25.3309989 28.7574732,26.1462736 30.11,27.65 C32.27,29.81 32.97,32.68 31.81,34.33 Z" id="Shape" fill="#02A9F4"/><path d="M22.96,21.56 L21.56,22.96 C21.5358965,22.9861098 21.5090783,23.0095757 21.48,23.03 C20.693782,23.7401182 19.4889326,23.7093374 18.74,22.96 L18.04,22.26 C17.278746,21.5037805 17.2609805,20.2779625 18,19.5 C18.0101639,19.4810277 18.0237215,19.4640806 18.04,19.45 L19.45,18.04 C19.8217154,17.6656536 20.3274514,17.4551254 20.855,17.4551254 C21.3825486,17.4551254 21.8882846,17.6656536 22.26,18.04 L22.96,18.74 C23.3344562,19.1136892 23.5448881,19.6209811 23.5448881,20.15 C23.5448881,20.6790189 23.3344562,21.1863108 22.96,21.56 Z" id="Shape" fill="#37474F"/><path d="M21.48,23.03 C20.693782,23.7401182 19.4889326,23.7093374 18.74,22.96 L18.04,22.26 C17.5291842,21.7899109 17.3166537,21.0779317 17.4861958,20.4047512 C17.655738,19.7315707 18.1801519,19.2051927 18.8526939,19.0331352 C19.5252358,18.8610777 20.2380046,19.0709451 20.71,19.58 L21.42,20.29 C22.1669518,21.0414191 22.1933427,22.2466037 21.48,23.03 Z" id="Shape" fill="#607D8B"/><path d="M52.512,46.478 C52.2468052,46.4779434 51.9924927,46.3725494 51.805,46.185 L51.105,45.485 C50.8450434,45.2339255 50.7407874,44.8621221 50.8323028,44.5124927 C50.9238183,44.1628632 51.1968632,43.8898183 51.5464927,43.7983028 C51.8961221,43.7067874 52.2679255,43.8110434 52.519,44.071 L53.219,44.771 C53.5049079,45.0569943 53.5904219,45.4870366 53.435678,45.8606546 C53.2809341,46.2342725 52.9163959,46.4779137 52.512,46.478 Z" id="Shape" fill="#35495E"/><path d="M49,42.96 C48.7348052,42.9599434 48.4804927,42.8545494 48.293,42.667 L44.071,38.446 C43.8110434,38.1949255 43.7067874,37.8231221 43.7983028,37.4734927 C43.8898183,37.1238632 44.1628632,36.8508183 44.5124927,36.7593028 C44.8621221,36.6677874 45.2339255,36.7720434 45.485,37.032 L49.7,41.253 C49.9850259,41.5380911 50.0709938,41.9664493 49.9180394,42.3394394 C49.7650851,42.7124296 49.4031232,42.9571024 49,42.96 Z" id="Shape" fill="#35495E"/><path d="M53.92,53.92 C53.36,54.48 52.8,55.01 52.25,55.5 C52.24,55.51 52.24,55.51 52.23,55.51 C49.37,58.05 46.83,59.49 46.18,58.84 C45.5,58.17 47.07,55.48 49.78,52.5 C49.7876786,52.4992708 49.7948095,52.4957054 49.8,52.49 C50.21,52.03 50.65,51.57 51.11,51.11 C54.6,47.61 58.07,45.4 58.84,46.18 C59.61,46.96 57.42,50.42 53.92,53.92 Z" id="Shape" fill="#37474F"/><path d="M52.25,55.5 C52.24,55.51 52.24,55.51 52.23,55.51 C49.37,58.05 46.83,59.49 46.18,58.84 C45.5,58.17 47.07,55.48 49.78,52.5 C49.7876786,52.4992708 49.7948095,52.4957054 49.8,52.49 C52.65,49.95 55.19,48.51 55.84,49.16 C56.52,49.83 54.95,52.52 52.25,55.5 Z" id="Shape" fill="#607D8B"/><path d="M46.626,60 C46.1963154,60.0145033 45.7796295,59.8513736 45.474,59.549 C44.444,58.518 45.394,56.719 46.197,55.455 C48.6865117,51.82501 51.8263973,48.6871586 55.458,46.2 C56.721,45.4 58.519,44.446 59.551,45.478 C60.583,46.51 59.632,48.307 58.828,49.57 C57.608014,51.3983137 56.2003752,53.0941833 54.628,54.63 C53.0917681,56.2015297 51.396322,57.6090952 49.569,58.83 C48.7049186,59.4665608 47.6912818,59.8695357 46.626,60 Z M57.861,47.164 C55.594483,48.3576536 53.5486873,49.9299638 51.812,51.813 C49.9285416,53.5493014 48.356172,55.5951744 47.163,57.862 C49.4298256,56.668828 51.4756986,55.0964584 53.212,53.213 C55.0956917,51.476912 56.6680942,49.4309962 57.861,47.164 Z" id="Shape" fill="#000000"/><path d="M33.517,47.182 C33.2518052,47.1819434 32.9974927,47.0765494 32.81,46.889 C30.85,44.927 36.083,39.389 37.734,37.735 C39.385,36.081 44.925,30.847 46.888,32.811 C47.2471577,33.1706203 47.2794327,33.7424454 46.9630226,34.1401961 C46.6466125,34.5379468 46.0821755,34.6350885 45.651,34.366 C44.946,34.447 42.419,35.879 39.151,39.149 C35.883,42.419 34.451,44.949 34.368,45.649 C34.561204,45.9573155 34.5716994,46.3462402 34.3954048,46.6645269 C34.2191101,46.9828137 33.8838492,47.1802286 33.52,47.18 L33.517,47.182 Z" id="Shape" fill="#000000"/><path d="M8.894,22.558 C8.62880519,22.5579434 8.37449273,22.4525494 8.187,22.265 C7.157,21.236 8.107,19.437 8.911,18.173 C10.1310408,16.3444207 11.5386721,14.6482249 13.111,13.112 C14.6474965,11.5399667 16.3436601,10.132362 18.172,8.912 C19.436,8.112 21.234,7.16 22.265,8.189 C22.62576,8.54851254 22.6586834,9.1217296 22.3414581,9.52018305 C22.0242328,9.91863651 21.4582176,10.0150137 21.027,9.744 C20.322,9.825 17.795,11.257 14.527,14.527 C11.259,17.797 9.827,20.327 9.744,21.027 C9.9366687,21.3352691 9.94687064,21.723814 9.77064457,22.041769 C9.5944185,22.3597241 9.25952586,22.5570009 8.896,22.557 L8.894,22.558 Z" id="Shape" fill="#000000"/><path d="M1.155,14.819 C0.889458684,14.8192088 0.634737686,14.7137946 0.447,14.526 C-1.513,12.564 3.721,7.026 5.372,5.373 C7.023,3.72 12.563,-1.518 14.525,0.448 C14.8761865,0.808849846 14.9042932,1.37453377 14.5906066,1.76841864 C14.2769199,2.1623035 13.7192953,2.26151586 13.289,2 C12.583,2.081 10.057,3.513 6.789,6.783 C3.521,10.053 2.089,12.583 2.006,13.283 C2.1986687,13.5912691 2.20887064,13.979814 2.03264457,14.297769 C1.8564185,14.6157241 1.52152586,14.8130009 1.158,14.813 L1.155,14.819 Z" id="Shape" fill="#000000"/><path d="M58.844,47.182 C58.5788052,47.1819434 58.3244927,47.0765494 58.137,46.889 L13.111,1.862 C12.7320278,1.46962111 12.7374476,0.845915223 13.1231814,0.460181425 C13.5089152,0.0744476261 14.1326211,0.0690277905 14.525,0.448 L59.551,45.475 C59.8369079,45.7609943 59.9224219,46.1910366 59.767678,46.5646546 C59.6129341,46.9382725 59.2483959,47.1819137 58.844,47.182 Z" id="Shape" fill="#000000"/><path d="M46.181,59.845 C45.9158052,59.8449434 45.6614927,59.7395494 45.474,59.552 L0.448,14.526 C0.188043416,14.2749255 0.0837874028,13.9031221 0.175302843,13.5534927 C0.266818284,13.2038632 0.539863244,12.9308183 0.889492676,12.8393028 C1.23912211,12.7477874 1.61092553,12.8520434 1.862,13.112 L46.888,58.138 C47.1739079,58.4239943 47.2594219,58.8540366 47.104678,59.2276546 C46.9499341,59.6012725 46.5853959,59.8449137 46.181,59.845 Z" id="Shape" fill="#000000"/><path d="M15.929,8.487 C15.6636514,8.48771853 15.4090531,8.38220607 15.222,8.194 L12.408,5.38 C12.1480434,5.12892553 12.0437874,4.75712211 12.1353028,4.40749268 C12.2268183,4.05786324 12.4998632,3.78481828 12.8494927,3.69330284 C13.1991221,3.6017874 13.5709255,3.70604342 13.822,3.966 L16.636,6.78 C16.9219079,7.06599425 17.0074219,7.49603662 16.852678,7.86965456 C16.6979341,8.2432725 16.3333959,8.48691365 15.929,8.487 Z" id="Shape" fill="#000000"/><path d="M12.411,10.6 C12.1458052,10.5999434 11.8914927,10.4945494 11.704,10.307 L8.89,7.491 C8.53583772,7.09594747 8.55184998,6.49307018 8.92648311,6.11737425 C9.30111625,5.74167832 9.90394576,5.72395827 10.3,6.077 L13.114,8.891 C13.3999079,9.17699425 13.4854219,9.60703662 13.330678,9.98065456 C13.1759341,10.3542725 12.8113959,10.5979137 12.407,10.598 L12.411,10.6 Z" id="Shape" fill="#000000"/><path d="M9.6,13.412 C9.33480519,13.4119434 9.08049273,13.3065494 8.893,13.119 L6.076,10.305 C5.81604342,10.0539255 5.7117874,9.68212211 5.80330284,9.33249268 C5.89481828,8.98286324 6.16786324,8.70981828 6.51749268,8.61830284 C6.86712211,8.5267874 7.23892553,8.63104342 7.49,8.891 L10.3,11.705 C10.5850259,11.9900911 10.6709938,12.4184493 10.5180394,12.7914394 C10.3650851,13.1644296 10.0031232,13.4091024 9.6,13.412 Z" id="Shape" fill="#000000"/><path d="M7.486,16.93 C7.22080519,16.9299434 6.96649273,16.8245494 6.779,16.637 L3.965,13.822 C3.70504342,13.5709255 3.6007874,13.1991221 3.69230284,12.8494927 C3.78381828,12.4998632 4.05686324,12.2268183 4.40649268,12.1353028 C4.75612211,12.0437874 5.12792553,12.1480434 5.379,12.408 L8.193,15.223 C8.47890792,15.5089943 8.56442191,15.9390366 8.40967798,16.3126546 C8.25493405,16.6862725 7.8903959,16.9299137 7.486,16.93 Z" id="Shape" fill="#000000"/><path d="M31.264,35.372 C30.8713227,35.3707775 30.4797364,35.3305804 30.095,35.252 C28.448532,34.8777721 26.946913,34.0315693 25.774,32.817 C23.011,30.055 22.393,26.343 24.368,24.368 C26.343,22.393 30.055,23.014 32.817,25.775 C34.0319681,26.9490557 34.8778835,28.4521716 35.251,30.1 C35.6377964,31.5613942 35.2503515,33.119096 34.224,34.229 C33.4322195,34.9941671 32.3645501,35.4064462 31.264,35.372 Z M27.34,25.217 C26.7658772,25.1885467 26.2044285,25.3921529 25.782,25.782 C24.64,26.925 25.282,29.499 27.188,31.403 C28.081656,32.3390089 29.2281984,32.9949701 30.488,33.291 C31.2944594,33.5141268 32.1590189,33.3354834 32.811,32.811 C33.3368882,32.1592919 33.5156623,31.2937271 33.291,30.487 C32.9944924,29.227612 32.339002,28.0812853 31.404,27.187 C30.3451872,26.042746 28.8941644,25.3393713 27.34,25.217 Z" id="Shape" fill="#000000"/><path d="M20.15,24.546 C19.3571003,24.547611 18.5962728,24.2330589 18.036,23.672 L17.336,22.972 C16.170203,21.8033624 16.170203,19.9116376 17.336,18.743 L18.742,17.336 C19.9257079,16.207237 21.7872921,16.207237 22.971,17.336 L23.671,18.036 C24.2321324,18.5966239 24.5474161,19.3572984 24.5474161,20.1505 C24.5474161,20.9437016 24.2321324,21.7043761 23.671,22.265 L22.265,23.671 C21.7046471,24.2326717 20.9433901,24.5476125 20.15,24.546 Z M20.85,18.457 C20.5874211,18.456909 20.3355841,18.5612414 20.15,18.747 L18.744,20.154 C18.3585292,20.5410661 18.3585292,21.1669339 18.744,21.554 L19.444,22.254 C19.8362027,22.6268262 20.4517973,22.6268262 20.844,22.254 L22.251,20.847 C22.4368845,20.6614722 22.5413434,20.4096283 22.5413434,20.147 C22.5413434,19.8843717 22.4368845,19.6325278 22.251,19.447 L21.551,18.742 C21.365768,18.5581564 21.114974,18.4556079 20.854,18.457 L20.85,18.457 Z" id="Shape" fill="#000000"/><path d="M52.512,46.478 C52.2468052,46.4779434 51.9924927,46.3725494 51.805,46.185 L51.105,45.485 C50.8450434,45.2339255 50.7407874,44.8621221 50.8323028,44.5124927 C50.9238183,44.1628632 51.1968632,43.8898183 51.5464927,43.7983028 C51.8961221,43.7067874 52.2679255,43.8110434 52.519,44.071 L53.219,44.771 C53.5049079,45.0569943 53.5904219,45.4870366 53.435678,45.8606546 C53.2809341,46.2342725 52.9163959,46.4779137 52.512,46.478 Z" id="Shape" fill="#000000"/><path d="M49,42.96 C48.7348052,42.9599434 48.4804927,42.8545494 48.293,42.667 L44.071,38.446 C43.8110434,38.1949255 43.7067874,37.8231221 43.7983028,37.4734927 C43.8898183,37.1238632 44.1628632,36.8508183 44.5124927,36.7593028 C44.8621221,36.6677874 45.2339255,36.7720434 45.485,37.032 L49.7,41.253 C49.9850259,41.5380911 50.0709938,41.9664493 49.9180394,42.3394394 C49.7650851,42.7124296 49.4031232,42.9571024 49,42.96 Z" id="Shape" fill="#000000"/></g></g></svg>
