<?xml version="1.0" encoding="iso-8859-1"?>
<!-- Generator: Adobe Illustrator 19.0.0, SVG Export Plug-In . SVG Version: 6.00 Build 0)  -->
<svg version="1.1" id="Capa_1" xmlns="http://www.w3.org/2000/svg" xmlns:xlink="http://www.w3.org/1999/xlink" x="0px" y="0px"
	 viewBox="0 0 512 512" style="enable-background:new 0 0 512 512;" xml:space="preserve">
<radialGradient id="SVGID_1_" cx="63.4747" cy="373.9793" r="699.1" gradientTransform="matrix(0.9241 -0.3921 -0.3921 -0.9241 239.981 525.5927)" gradientUnits="userSpaceOnUse">
	<stop  offset="0" style="stop-color:#FE7695"/>
	<stop  offset="0.328" style="stop-color:#FB7493"/>
	<stop  offset="0.549" style="stop-color:#F26C8A"/>
	<stop  offset="0.738" style="stop-color:#E35F7D"/>
	<stop  offset="0.909" style="stop-color:#CE4C69"/>
	<stop  offset="1" style="stop-color:#BF3F5C"/>
</radialGradient>
<path style="fill:url(#SVGID_1_);" d="M365.444,346.266c-0.05-6.083-1.561-12.072-3.941-17.681l-16.567-39.04
	c27.523-30.322,36.581-75.015,19.536-115.181c-23.365-55.062-86.949-80.759-142.011-57.393s-80.759,86.949-57.393,142.011
	c17.045,40.166,55.48,64.705,96.412,65.979l70.925,167.138c1.318,3.105,4.262,5.211,7.625,5.445l40.729,2.929
	c2.878,0.199,5.673-0.988,7.53-3.195l23.977-28.669c2.854-3.421,2.671-8.36-0.256-11.722c-0.018-0.015-0.022-0.025-0.04-0.04
	c-1.418-1.667-2.558-3.518-3.402-5.508c-1.832-4.319-2.248-9.238-0.921-14.016l0.006-0.014c1.318-4.774,0.913-9.698-0.921-14.016
	c-1.832-4.318-5.092-8.031-9.451-10.397c-2.028-1.109-3.802-2.509-5.318-4.111c-1.75-1.857-3.143-3.98-4.127-6.299
	c-1.371-3.232-1.942-6.815-1.593-10.421c0.121-1.197,0.343-2.402,0.673-3.595c1.328-4.778,0.918-9.711-0.911-14.02
	c-1.832-4.319-5.092-8.031-9.451-10.397c-3.262-1.776-5.909-4.318-7.801-7.294c-1.892-2.976-3.035-6.396-3.281-9.945
	C365.454,346.639,365.446,346.459,365.444,346.266z M234.482,145.297c11.966-5.078,25.788,0.509,30.866,12.475
	c5.078,11.966-0.509,25.788-12.475,30.866s-25.788-0.509-30.866-12.475S222.516,150.373,234.482,145.297z"/>
<radialGradient id="SVGID_2_" cx="142.939" cy="272.4711" r="126.1459" gradientTransform="matrix(0.9241 -0.3921 -0.3921 -0.9241 239.981 525.5927)" gradientUnits="userSpaceOnUse">
	<stop  offset="0" style="stop-color:#FE7695"/>
	<stop  offset="0.373" style="stop-color:#FC7493"/>
	<stop  offset="0.582" style="stop-color:#F46D8C"/>
	<stop  offset="0.75" style="stop-color:#E6617F"/>
	<stop  offset="0.896" style="stop-color:#D2506D"/>
	<stop  offset="1" style="stop-color:#BF3F5C"/>
</radialGradient>
<path style="fill:url(#SVGID_2_);" d="M229.401,133.321c-46.629,19.787-68.388,73.626-48.601,120.255s73.626,68.388,120.255,48.601
	s68.388-73.626,48.601-120.255C329.867,135.292,276.03,113.535,229.401,133.321z M252.874,188.636
	c-11.966,5.078-25.788-0.509-30.866-12.475s0.509-25.788,12.475-30.866c11.966-5.078,25.788,0.509,30.866,12.475
	C270.425,169.736,264.838,183.558,252.874,188.636z"/>
<radialGradient id="SVGID_3_" cx="142.9384" cy="272.4708" r="105.0874" gradientTransform="matrix(0.9241 -0.3921 -0.3921 -0.9241 239.981 525.5927)" gradientUnits="userSpaceOnUse">
	<stop  offset="0" style="stop-color:#BF3F5C"/>
	<stop  offset="0.299" style="stop-color:#C2405E;stop-opacity:0.701"/>
	<stop  offset="0.529" style="stop-color:#CC4362;stop-opacity:0.471"/>
	<stop  offset="0.735" style="stop-color:#DC496A;stop-opacity:0.265"/>
	<stop  offset="0.927" style="stop-color:#F35076;stop-opacity:0.073"/>
	<stop  offset="1" style="stop-color:#FE547B;stop-opacity:0"/>
</radialGradient>
<path style="fill:url(#SVGID_3_);" d="M225.145,123.294c-52.168,22.137-76.511,82.37-54.373,134.538s82.37,76.511,134.538,54.373
	c52.168-22.137,76.511-82.37,54.373-134.538C337.545,125.499,277.313,101.156,225.145,123.294z M301.054,302.176
	c-46.629,19.787-100.467-1.972-120.255-48.601c-19.787-46.629,1.972-100.467,48.601-120.255s100.467,1.972,120.255,48.601
	C369.442,228.551,347.683,282.389,301.054,302.176z"/>
<radialGradient id="SVGID_4_" cx="142.9377" cy="327.4244" r="36.2296" gradientTransform="matrix(0.9241 -0.3921 -0.3921 -0.9241 239.981 525.5927)" gradientUnits="userSpaceOnUse">
	<stop  offset="0" style="stop-color:#BF3F5C"/>
	<stop  offset="0.299" style="stop-color:#C2405E;stop-opacity:0.701"/>
	<stop  offset="0.529" style="stop-color:#CC4362;stop-opacity:0.471"/>
	<stop  offset="0.735" style="stop-color:#DC496A;stop-opacity:0.265"/>
	<stop  offset="0.927" style="stop-color:#F35076;stop-opacity:0.073"/>
	<stop  offset="1" style="stop-color:#FE547B;stop-opacity:0"/>
</radialGradient>
<path style="fill:url(#SVGID_4_);" d="M229.47,133.486c-18.487,7.845-27.118,29.2-19.272,47.687
	c7.845,18.487,29.2,27.118,47.687,19.272c18.487-7.845,27.118-29.2,19.272-47.687C269.313,134.271,247.957,125.641,229.47,133.486z
	 M252.874,188.636c-11.966,5.078-25.788-0.509-30.866-12.475s0.509-25.788,12.475-30.866c11.966-5.078,25.788,0.509,30.866,12.475
	C270.425,169.736,264.838,183.558,252.874,188.636z"/>
<linearGradient id="SVGID_5_" gradientUnits="userSpaceOnUse" x1="322.7254" y1="110.8441" x2="433.0253" y2="157.6441" gradientTransform="matrix(1.0039 0 0 -1.0039 0.1922 516.5609)">
	<stop  offset="0" style="stop-color:#FE7695"/>
	<stop  offset="1" style="stop-color:#BF3F5C"/>
</linearGradient>
<path style="fill:url(#SVGID_5_);" d="M369.286,392.398c0.383-3.74-0.338-7.769-1.89-11.427c-1.555-3.665-3.948-6.976-6.904-9.299
	c-2.216-1.747-4.113-4.046-5.58-6.633s-2.502-5.461-2.994-8.359c-0.023-0.138-0.044-0.285-0.064-0.441
	c-0.611-4.93-2.118-9.915-4.137-14.672l-16.642-39.218c-7.201,5.565-15.222,10.31-23.993,14.032
	c-8.137,3.452-16.459,5.826-24.811,7.2l62.595,147.506c1.117,2.634,3.161,4.613,5.293,5.125l25.811,6.197
	c1.823,0.438,3.468-0.26,4.42-1.875l12.335-20.932c1.471-2.495,0.89-6.509-1.263-9.5c-0.01-0.013-0.019-0.027-0.029-0.04
	c-1.043-1.477-1.937-3.09-2.652-4.778c-1.555-3.664-2.277-7.681-1.896-11.421l0.002-0.01c0.376-3.738-0.341-7.758-1.896-11.424
	s-3.948-6.976-6.904-9.299c-1.372-1.084-2.617-2.385-3.72-3.829c-1.269-1.661-2.348-3.515-3.182-5.481
	c-1.164-2.743-1.861-5.695-1.978-8.577C369.167,394.284,369.192,393.332,369.286,392.398z"/>
<linearGradient id="SVGID_6_" gradientUnits="userSpaceOnUse" x1="350.3265" y1="130.0014" x2="287.6865" y2="103.4114" gradientTransform="matrix(1.0039 0 0 -1.0039 0.1922 516.5609)">
	<stop  offset="0" style="stop-color:#FE7695"/>
	<stop  offset="1" style="stop-color:#BF3F5C"/>
</linearGradient>
<path style="fill:url(#SVGID_6_);" d="M336.506,359.831c-1.36-4.371-3.116-8.988-5.041-13.524l-14.689-34.616
	c-3.12,1.705-6.352,3.273-9.694,4.691c-2.174,0.923-4.362,1.762-6.56,2.532l58.562,138.003c1.066,2.512,2.382,4.666,3.409,5.58
	l1.054,0.938c7.034,6.257,13.106,3.681,13.494-5.726l0,0c0.074-1.815-1.068-5.392-2.656-8.441c-0.007-0.014-0.014-0.027-0.021-0.041
	c-0.776-1.501-1.518-3.085-2.201-4.694c-1.483-3.494-2.686-7.105-3.356-10.231l-0.001-0.008c-0.671-3.126-1.874-6.739-3.357-10.234
	c-1.483-3.495-3.246-6.871-5.03-9.524c-0.83-1.237-1.652-2.631-2.447-4.116c-0.915-1.711-1.789-3.542-2.584-5.416
	c-1.109-2.615-2.066-5.306-2.758-7.806c-0.231-0.834-0.432-1.646-0.599-2.427c-0.669-3.126-1.875-6.748-3.355-10.235
	c-1.483-3.495-3.246-6.871-5.03-9.524c-1.339-1.994-2.664-4.391-3.869-6.939c-1.205-2.549-2.289-5.249-3.144-7.846
	C336.592,360.1,336.549,359.968,336.506,359.831z"/>
<linearGradient id="SVGID_7_" gradientUnits="userSpaceOnUse" x1="338.8478" y1="239.0471" x2="248.8478" y2="275.4271" gradientTransform="matrix(1.0039 0 0 -1.0039 0.1922 516.5609)">
	<stop  offset="0" style="stop-color:#FE547B;stop-opacity:0"/>
	<stop  offset="1" style="stop-color:#BF3F5C"/>
</linearGradient>
<path style="fill:url(#SVGID_7_);" d="M353.924,241.085L308.83,222.86c-5.588-2.487-12.142-2.761-18.217-0.183l-39.481,16.753
	c-11.62,4.931-17.043,18.349-12.111,29.968c2.578,6.074,7.482,10.432,13.229,12.526l49.435,19.979
	C328.506,290.288,346.992,267.361,353.924,241.085z"/>
<linearGradient id="SVGID_8_" gradientUnits="userSpaceOnUse" x1="275.4819" y1="270.5891" x2="304.7519" y2="201.5991" gradientTransform="matrix(1.0039 0 0 -1.0039 0.1922 516.5609)">
	<stop  offset="0" style="stop-color:#FE7695"/>
	<stop  offset="1" style="stop-color:#BF3F5C"/>
</linearGradient>
<path style="fill:url(#SVGID_8_);" d="M308.47,264.756l-39.48,16.753c-11.62,4.931-25.037-0.492-29.968-12.111l0,0
	c-4.931-11.62,0.492-25.037,12.111-29.968l39.481-16.753c11.62-4.931,25.037,0.492,29.968,12.111l0,0
	C325.512,246.409,320.09,259.826,308.47,264.756z"/>
<linearGradient id="SVGID_9_" gradientUnits="userSpaceOnUse" x1="352.5574" y1="183.6931" x2="246.0174" y2="226.7531" gradientTransform="matrix(1.0039 0 0 -1.0039 0.1922 516.5609)">
	<stop  offset="0" style="stop-color:#FE547B;stop-opacity:0"/>
	<stop  offset="1" style="stop-color:#BF3F5C"/>
</linearGradient>
<path style="fill:url(#SVGID_9_);" d="M347.717,341.568l-16.642-39.218c-7.201,5.565-15.222,10.31-23.993,14.032
	c-8.137,3.452-16.459,5.826-24.811,7.2l68.688,27.76C350.182,348.039,349.068,344.753,347.717,341.568z"/>
<linearGradient id="SVGID_10_" gradientUnits="userSpaceOnUse" x1="317.0767" y1="108.3109" x2="288.9967" y2="96.3909" gradientTransform="matrix(1.0039 0 0 -1.0039 0.1922 516.5609)">
	<stop  offset="0" style="stop-color:#FE547B;stop-opacity:0"/>
	<stop  offset="1" style="stop-color:#BF3F5C"/>
</linearGradient>
<path style="fill:url(#SVGID_10_);" d="M282.271,323.582l-20.792,1.377l70.925,167.138c1.318,3.105,4.262,5.211,7.625,5.445
	l16.569,1.192L282.271,323.582z"/>
<linearGradient id="SVGID_11_" gradientUnits="userSpaceOnUse" x1="394.9465" y1="198.3203" x2="220.1165" y2="255.5503" gradientTransform="matrix(1.0039 0 0 -1.0039 0.1922 516.5609)">
	<stop  offset="0" style="stop-color:#FE547B;stop-opacity:0"/>
	<stop  offset="1" style="stop-color:#BF3F5C"/>
</linearGradient>
<path style="fill:url(#SVGID_11_);" d="M167.237,263.736c0.373,0.776,0.748,1.552,1.137,2.315c0.238,0.465,0.487,0.921,0.73,1.38
	c0.358,0.678,0.717,1.356,1.088,2.024c0.271,0.487,0.551,0.966,0.829,1.447c0.361,0.625,0.723,1.251,1.094,1.866
	c0.298,0.494,0.604,0.982,0.91,1.47c0.367,0.588,0.738,1.174,1.115,1.752c0.322,0.494,0.651,0.984,0.981,1.472
	c0.376,0.556,0.757,1.108,1.142,1.656c0.346,0.492,0.696,0.981,1.05,1.466c0.383,0.525,0.772,1.046,1.165,1.563
	c0.371,0.49,0.744,0.978,1.122,1.461c0.388,0.493,0.781,0.979,1.176,1.465c0.398,0.489,0.795,0.979,1.201,1.46
	c0.386,0.457,0.779,0.906,1.172,1.355c0.43,0.492,0.856,0.987,1.294,1.47c0.37,0.41,0.75,0.809,1.126,1.212
	c0.473,0.507,0.943,1.017,1.425,1.513c0.31,0.32,0.63,0.629,0.945,0.946c2.162,2.174,4.404,4.255,6.729,6.224
	c0.068,0.058,0.135,0.118,0.203,0.176c0.714,0.601,1.439,1.186,2.166,1.767c0.218,0.174,0.432,0.352,0.65,0.525
	c0.699,0.55,1.408,1.085,2.12,1.617c0.253,0.189,0.503,0.382,0.757,0.568c0.71,0.521,1.428,1.028,2.148,1.531
	c0.261,0.182,0.521,0.366,0.784,0.546c0.731,0.5,1.469,0.989,2.211,1.47c0.256,0.166,0.511,0.332,0.769,0.497
	c0.763,0.486,1.531,0.962,2.305,1.428c0.235,0.142,0.47,0.282,0.705,0.422c0.806,0.477,1.616,0.946,2.435,1.401
	c0.197,0.109,0.394,0.217,0.591,0.325c0.863,0.475,1.731,0.94,2.606,1.39c0.133,0.068,0.267,0.135,0.401,0.203
	c0.945,0.482,1.894,0.953,2.852,1.406c0.018,0.008,0.035,0.016,0.053,0.025c10.511,4.97,21.8,8.25,33.42,9.659h0.001
	c0.03-0.007,0.059-0.015,0.088-0.022l0.037,0.037c3.149,0.379,6.321,0.635,9.51,0.735l6.469,15.245l137.068,137.068l7.247-8.666
	c2.854-3.421,2.671-8.36-0.256-11.721c-0.018-0.015-0.022-0.025-0.04-0.04c-1.418-1.667-2.558-3.519-3.402-5.508
	c-1.832-4.318-2.248-9.238-0.921-14.016l0.006-0.013c1.318-4.774,0.913-9.698-0.921-14.016c-1.832-4.319-5.092-8.031-9.451-10.397
	c-2.028-1.109-3.802-2.51-5.318-4.111c-1.75-1.857-3.143-3.98-4.127-6.3c-1.371-3.232-1.942-6.815-1.593-10.421
	c0.121-1.197,0.343-2.401,0.673-3.595c1.328-4.778,0.918-9.711-0.911-14.02c-1.832-4.319-5.092-8.031-9.45-10.396
	c-3.262-1.776-5.909-4.318-7.801-7.294c-1.892-2.976-3.035-6.396-3.281-9.945c-0.017-0.176-0.025-0.356-0.027-0.55
	c-0.05-6.083-1.561-12.072-3.941-17.681l-16.567-39.04c19.153-21.101,29.35-49.161,28.046-77.811l-66.492-66.492
	c-12.242-13.262-27.967-23.646-46.374-29.564c-6.703-2.155-13.462-3.614-20.201-4.432c-2.862,0.679-5.715,1.481-8.553,2.402
	c-0.125,0.041-0.252,0.08-0.377,0.122c-1.323,0.436-2.642,0.899-3.957,1.388c-0.204,0.076-0.408,0.156-0.61,0.232
	c-1.322,0.501-2.641,1.022-3.954,1.579c-55.062,23.365-80.759,86.949-57.393,142.011c0.512,1.208,1.046,2.399,1.597,3.579
	C166.851,262.955,167.047,263.343,167.237,263.736z M221.081,160.178c0.22-0.685,0.481-1.343,0.757-1.992
	c0.363-0.905,0.788-1.783,1.261-2.637c0.006-0.01,0.011-0.02,0.017-0.03c0.343-0.617,0.714-1.219,1.112-1.805
	c0.014-0.021,0.028-0.041,0.042-0.062c0.394-0.574,0.812-1.132,1.257-1.672c0.024-0.029,0.049-0.058,0.073-0.088
	c0.441-0.529,0.905-1.041,1.393-1.533c0.034-0.035,0.069-0.068,0.104-0.102c0.487-0.483,0.995-0.949,1.527-1.391
	c0.042-0.035,0.085-0.068,0.128-0.103c0.534-0.438,1.088-0.856,1.667-1.25c0.042-0.029,0.086-0.055,0.129-0.083
	c0.587-0.395,1.195-0.767,1.826-1.111c0.03-0.016,0.061-0.031,0.091-0.047c0.651-0.351,1.321-0.679,2.016-0.974
	c11.966-5.078,25.788,0.509,30.866,12.475c0.249,0.587,0.466,1.181,0.664,1.776c0.026,0.079,0.055,0.159,0.08,0.239
	c0.191,0.594,0.355,1.192,0.498,1.791c0.011,0.047,0.021,0.094,0.032,0.141c2.509,10.915-3.081,22.391-13.749,26.918
	c-6.814,2.891-14.228,2.321-20.288-0.913l-0.442,0.283C222.457,182.688,217.574,171.089,221.081,160.178z"/>
<radialGradient id="SVGID_12_" cx="176.5161" cy="407.8994" r="699.1" gradientTransform="matrix(0.9557 0.3073 0.3073 -0.9557 -112.1922 434.084)" gradientUnits="userSpaceOnUse">
	<stop  offset="0" style="stop-color:#B8DE6F"/>
	<stop  offset="0.27" style="stop-color:#B5DB6C"/>
	<stop  offset="0.452" style="stop-color:#ACD264"/>
	<stop  offset="0.607" style="stop-color:#9DC355"/>
	<stop  offset="0.748" style="stop-color:#88AE40"/>
	<stop  offset="0.878" style="stop-color:#6C9225"/>
	<stop  offset="1" style="stop-color:#4B7104"/>
</radialGradient>
<path style="fill:url(#SVGID_12_);" d="M218.449,382.669c3.937-4.636,6.709-10.157,8.574-15.957l12.981-40.375
	c40.65-4.958,76.717-32.861,90.072-74.401c18.307-56.944-13.016-117.952-69.96-136.259s-117.952,13.016-136.259,69.96
	c-13.355,41.539-0.306,85.233,29.839,112.951l-55.573,172.85c-1.032,3.212-0.182,6.729,2.211,9.105l28.909,28.839
	c2.049,2.032,4.939,2.961,7.788,2.504l36.884-6.025c4.396-0.724,7.485-4.581,7.468-9.038c-0.004-0.023,0-0.033-0.004-0.056
	c0.016-2.188,0.363-4.335,1.025-6.392c1.436-4.466,4.337-8.461,8.465-11.209l0.013-0.007c4.118-2.752,7.029-6.743,8.465-11.209
	c1.436-4.465,1.396-9.407-0.356-14.045c-0.81-2.165-1.237-4.384-1.337-6.587c-0.11-2.549,0.223-5.067,0.994-7.465
	c1.074-3.342,2.985-6.426,5.606-8.928c0.874-0.826,1.83-1.593,2.859-2.281c4.128-2.748,7.043-6.749,8.475-11.206
	c1.436-4.466,1.396-9.407-0.356-14.045c-1.307-3.477-1.649-7.13-1.137-10.619c0.513-3.49,1.884-6.825,4.018-9.671
	C218.212,382.959,218.324,382.817,218.449,382.669z M250.697,144.972c12.374,3.979,19.184,17.241,15.205,29.616
	c-3.979,12.374-17.241,19.184-29.616,15.205c-12.374-3.979-19.184-17.241-15.205-29.616S238.323,140.994,250.697,144.972z"/>
<radialGradient id="SVGID_13_" cx="255.9719" cy="306.4063" r="151.9895" gradientTransform="matrix(0.9557 0.3073 0.3073 -0.9557 -112.1922 434.084)" gradientUnits="userSpaceOnUse">
	<stop  offset="0" style="stop-color:#B8DE6F"/>
	<stop  offset="0.316" style="stop-color:#B6DC6D"/>
	<stop  offset="0.493" style="stop-color:#AED465"/>
	<stop  offset="0.636" style="stop-color:#A0C657"/>
	<stop  offset="0.76" style="stop-color:#8CB244"/>
	<stop  offset="0.873" style="stop-color:#73992B"/>
	<stop  offset="0.975" style="stop-color:#547A0D"/>
	<stop  offset="1" style="stop-color:#4B7104"/>
</radialGradient>
<path style="fill:url(#SVGID_13_);" d="M254.679,132.588c-48.223-15.504-99.881,11.019-115.385,59.242
	c-15.504,48.222,11.019,99.881,59.242,115.385c48.223,15.504,99.881-11.019,115.385-59.242
	C329.425,199.749,302.901,148.091,254.679,132.588z M236.287,189.793c-12.374-3.979-19.184-17.241-15.205-29.616
	c3.979-12.374,17.241-19.184,29.616-15.205c12.374,3.979,19.184,17.241,15.205,29.616
	C261.924,186.962,248.661,193.771,236.287,189.793z"/>
<radialGradient id="SVGID_14_" cx="255.9716" cy="306.4061" r="101.6639" gradientTransform="matrix(0.9557 0.3073 0.3073 -0.9557 -112.1922 434.084)" gradientUnits="userSpaceOnUse">
	<stop  offset="0" style="stop-color:#4B7104"/>
	<stop  offset="0.472" style="stop-color:#4C7206;stop-opacity:0.528"/>
	<stop  offset="0.641" style="stop-color:#52770D;stop-opacity:0.359"/>
	<stop  offset="0.762" style="stop-color:#5B7F18;stop-opacity:0.237"/>
	<stop  offset="0.86" style="stop-color:#698B29;stop-opacity:0.14"/>
	<stop  offset="0.943" style="stop-color:#7A993F;stop-opacity:0.057"/>
	<stop  offset="1" style="stop-color:#8AA753;stop-opacity:0"/>
</radialGradient>
<path style="fill:url(#SVGID_14_);" d="M258.013,122.217c-53.951-17.345-111.744,12.328-129.089,66.279
	c-17.345,53.951,12.328,111.743,66.278,129.089c53.951,17.345,111.744-12.328,129.089-66.278
	C341.636,197.356,311.963,139.562,258.013,122.217z M198.536,307.214c-48.223-15.504-74.746-67.161-59.242-115.385
	s67.161-74.746,115.385-59.242s74.746,67.161,59.242,115.385C298.416,296.195,246.759,322.718,198.536,307.214z"/>
<radialGradient id="SVGID_15_" cx="255.97" cy="361.3568" r="36.2275" gradientTransform="matrix(0.9557 0.3073 0.3073 -0.9557 -112.1922 434.084)" gradientUnits="userSpaceOnUse">
	<stop  offset="0" style="stop-color:#4B7104"/>
	<stop  offset="0.273" style="stop-color:#4D7307;stop-opacity:0.727"/>
	<stop  offset="0.483" style="stop-color:#557A11;stop-opacity:0.517"/>
	<stop  offset="0.672" style="stop-color:#628521;stop-opacity:0.328"/>
	<stop  offset="0.847" style="stop-color:#759538;stop-opacity:0.153"/>
	<stop  offset="1" style="stop-color:#8AA753;stop-opacity:0"/>
</radialGradient>
<path style="fill:url(#SVGID_15_);" d="M254.623,132.759c-19.119-6.147-39.61,4.374-45.756,23.493
	c-6.147,19.119,4.374,39.609,23.493,45.756c19.119,6.147,39.61-4.374,45.756-23.493
	C284.263,159.396,273.742,138.905,254.623,132.759z M236.287,189.793c-12.374-3.979-19.184-17.241-15.205-29.616
	c3.979-12.374,17.241-19.184,29.616-15.205c12.374,3.979,19.184,17.241,15.205,29.616
	C261.924,186.962,248.661,193.771,236.287,189.793z"/>
<linearGradient id="SVGID_16_" gradientUnits="userSpaceOnUse" x1="147.8707" y1="115.7433" x2="261.9507" y2="79.0633" gradientTransform="matrix(1.0039 0 0 -1.0039 0.1922 516.5609)">
	<stop  offset="0" style="stop-color:#B8DE6F"/>
	<stop  offset="1" style="stop-color:#4B7104"/>
</linearGradient>
<path style="fill:url(#SVGID_16_);" d="M191.203,420.094c2.734-2.58,4.822-6.101,6.038-9.884c1.219-3.791,1.571-7.861,0.853-11.55
	c-0.535-2.77-0.469-5.75,0.112-8.667c0.581-2.916,1.677-5.769,3.197-8.282c0.072-0.119,0.153-0.245,0.24-0.375
	c2.76-4.131,4.878-8.889,6.459-13.809l13.04-40.558c-9.086-0.495-18.259-2.147-27.33-5.063c-8.415-2.706-16.265-6.35-23.483-10.768
	l-49.045,152.548c-0.875,2.725-0.622,5.558,0.656,7.338l15.483,21.561c1.093,1.523,2.794,2.07,4.571,1.47l23.017-7.778
	c2.744-0.928,4.928-4.344,5.255-8.015c0.002-0.016,0.003-0.033,0.005-0.049c0.176-1.8,0.554-3.604,1.115-5.35
	c1.219-3.79,3.298-7.302,6.03-9.883l0.009-0.006c2.729-2.582,4.813-6.095,6.032-9.886c1.219-3.791,1.571-7.861,0.853-11.55
	c-0.329-1.718-0.422-3.516-0.312-5.329c0.125-2.087,0.521-4.195,1.175-6.228c0.912-2.837,2.314-5.527,4.109-7.783
	C189.878,421.443,190.521,420.74,191.203,420.094z"/>
<linearGradient id="SVGID_17_" gradientUnits="userSpaceOnUse" x1="181.2891" y1="112.1983" x2="116.4991" y2="133.0284" gradientTransform="matrix(1.0039 0 0 -1.0039 0.1922 516.5609)">
	<stop  offset="0" style="stop-color:#B8DE6F"/>
	<stop  offset="1" style="stop-color:#4B7104"/>
</linearGradient>
<path style="fill:url(#SVGID_17_);" d="M187.682,374.02c1.828-4.196,3.517-8.839,5.025-13.53l11.51-35.799
	c-3.476-0.75-6.947-1.675-10.403-2.786c-2.249-0.723-4.453-1.518-6.62-2.371L141.31,462.254c-0.835,2.597-1.247,5.089-1.067,6.452
	l0.185,1.398c1.234,9.333,7.513,11.352,13.954,4.487l0,0c1.243-1.325,2.717-4.779,3.507-8.125c0.004-0.015,0.007-0.03,0.011-0.045
	c0.394-1.642,0.867-3.327,1.402-4.991c1.162-3.613,2.61-7.133,4.147-9.937l0.004-0.007c1.536-2.804,2.987-6.326,4.149-9.94
	c1.162-3.614,2.035-7.322,2.418-10.496c0.181-1.479,0.469-3.072,0.839-4.714c0.426-1.892,0.961-3.85,1.584-5.789
	c0.869-2.705,1.904-5.366,3.016-7.711c0.37-0.782,0.749-1.528,1.133-2.229c1.538-2.803,2.992-6.333,4.151-9.939
	c1.162-3.614,2.035-7.322,2.418-10.496c0.29-2.383,0.854-5.065,1.608-7.78c0.754-2.717,1.699-5.467,2.749-7.992
	C187.569,374.279,187.624,374.153,187.682,374.02z"/>
<linearGradient id="SVGID_18_" gradientUnits="userSpaceOnUse" x1="236.7469" y1="216.1179" x2="192.4069" y2="302.4879" gradientTransform="matrix(1.0039 0 0 -1.0039 0.1922 516.5609)">
	<stop  offset="0" style="stop-color:#8AA753;stop-opacity:0"/>
	<stop  offset="1" style="stop-color:#4B7104"/>
</linearGradient>
<path style="fill:url(#SVGID_18_);" d="M278.481,295.537l-22.215-43.268c-2.603-5.535-7.385-10.026-13.666-12.046l-40.83-13.127
	c-12.017-3.863-24.891,2.747-28.754,14.764c-2.02,6.282-1.157,12.785,1.824,18.126l24.353,47.433
	C227.083,316.161,256.059,310.892,278.481,295.537z"/>
<linearGradient id="SVGID_19_" gradientUnits="userSpaceOnUse" x1="216.5282" y1="267.4995" x2="193.5882" y2="196.1495" gradientTransform="matrix(1.0039 0 0 -1.0039 0.1922 516.5609)">
	<stop  offset="0" style="stop-color:#B8DE6F"/>
	<stop  offset="1" style="stop-color:#4B7104"/>
</linearGradient>
<path style="fill:url(#SVGID_19_);" d="M228.608,283.742l-40.83-13.127c-12.017-3.863-18.627-16.737-14.764-28.754l0,0
	c3.863-12.017,16.737-18.627,28.754-14.764l40.831,13.127c12.017,3.863,18.627,16.737,14.764,28.754l0,0
	C253.499,280.996,240.625,287.605,228.608,283.742z"/>
<linearGradient id="SVGID_20_" gradientUnits="userSpaceOnUse" x1="206.7371" y1="173.448" x2="154.2471" y2="275.678" gradientTransform="matrix(1.0039 0 0 -1.0039 0.1922 516.5609)">
	<stop  offset="0" style="stop-color:#8AA753;stop-opacity:0"/>
	<stop  offset="1" style="stop-color:#4B7104"/>
</linearGradient>
<path style="fill:url(#SVGID_20_);" d="M208.103,367.527l13.04-40.558c-9.086-0.495-18.259-2.147-27.33-5.063
	c-8.415-2.706-16.265-6.35-23.483-10.768l33.838,65.906C205.738,374.035,207.044,370.82,208.103,367.527z"/>
<linearGradient id="SVGID_21_" gradientUnits="userSpaceOnUse" x1="131.8385" y1="120.7664" x2="102.7985" y2="130.1064" gradientTransform="matrix(1.0039 0 0 -1.0039 0.1922 516.5609)">
	<stop  offset="0" style="stop-color:#8AA753;stop-opacity:0"/>
	<stop  offset="1" style="stop-color:#4B7104"/>
</linearGradient>
<path style="fill:url(#SVGID_21_);" d="M170.33,311.137l-16.636-12.548L98.122,471.439c-1.032,3.212-0.182,6.729,2.211,9.105
	l11.761,11.732L170.33,311.137z"/>
<linearGradient id="SVGID_22_" gradientUnits="userSpaceOnUse" x1="320.1985" y1="309.5941" x2="184.6385" y2="445.1541" gradientTransform="matrix(1.0039 0 0 -1.0039 0.1922 516.5609)">
	<stop  offset="0" style="stop-color:#8AA753;stop-opacity:0"/>
	<stop  offset="1" style="stop-color:#4B7104"/>
</linearGradient>
<path style="fill:url(#SVGID_22_);" d="M261.823,182.151l68.613,68.613c17.507-56.607-13.767-116.905-70.321-135.088
	c-17.956-5.774-36.316-6.607-53.614-3.262l0.001,0.004c2.846,15.609,9.073,29.784,17.736,41.411
	c5.773-8.204,16.408-12.089,26.459-8.858c12.374,3.979,19.184,17.241,15.205,29.616
	C264.991,177.423,263.586,179.963,261.823,182.151z"/>
<linearGradient id="SVGID_23_" gradientUnits="userSpaceOnUse" x1="283.0189" y1="474.946" x2="283.0189" y2="219.743" gradientTransform="matrix(1.0039 0 0 -1.0039 0.1922 516.5609)">
	<stop  offset="0" style="stop-color:#E6E6E6"/>
	<stop  offset="1" style="stop-color:#999999"/>
</linearGradient>
<path style="fill:url(#SVGID_23_);" d="M284.321,0c-43.886,0-79.592,41.693-79.592,92.948c0,6.673,0.6,13.188,1.771,19.471
	c2.846,15.612,9.076,29.791,17.742,41.419c9.824,13.199,22.77,23.139,37.497,28.231c1.37-1.654,2.509-3.479,3.384-5.418
	c0.285-0.675,0.548-1.36,0.78-2.066c2.351-7.327,0.928-14.958-3.194-20.788c-4.08-2.277-7.886-5.166-11.343-8.592
	c-8.771-8.666-15.318-20.715-18.375-34.567c-1.244-5.64-1.908-11.564-1.908-17.689c0-36.717,23.888-66.593,53.237-66.593
	c29.359,0,53.237,29.876,53.237,66.593c0,13.419-3.194,25.933-8.687,36.401c7.21,5.282,13.81,11.491,19.598,18.543
	c9.709-15.391,15.444-34.398,15.444-54.945C363.913,41.693,328.208,0,284.321,0z"/>
<radialGradient id="SVGID_24_" cx="286.8673" cy="445.8044" r="70.36" gradientTransform="matrix(1.0039 0 0 -1.1823 0.1922 617.0656)" gradientUnits="userSpaceOnUse">
	<stop  offset="0" style="stop-color:#666666"/>
	<stop  offset="0.428" style="stop-color:#686868;stop-opacity:0.572"/>
	<stop  offset="0.582" style="stop-color:#6F6F6F;stop-opacity:0.418"/>
	<stop  offset="0.692" style="stop-color:#7A7A7A;stop-opacity:0.308"/>
	<stop  offset="0.781" style="stop-color:#8B8B8B;stop-opacity:0.219"/>
	<stop  offset="0.857" style="stop-color:#A1A1A1;stop-opacity:0.143"/>
	<stop  offset="0.924" style="stop-color:#BDBDBD;stop-opacity:0.076"/>
	<stop  offset="0.984" style="stop-color:#DCDCDC;stop-opacity:0.016"/>
	<stop  offset="1" style="stop-color:#E6E6E6;stop-opacity:0"/>
</radialGradient>
<path style="fill:url(#SVGID_24_);" d="M284.321,0c-43.886,0-79.592,41.693-79.592,92.948c0,6.673,0.6,13.188,1.771,19.471
	c2.846,15.612,9.076,29.791,17.742,41.419c9.824,13.199,22.77,23.139,37.497,28.231c1.37-1.654,2.509-3.479,3.384-5.418
	c0.285-0.675,0.548-1.36,0.78-2.066c2.351-7.327,0.928-14.958-3.194-20.788c-4.08-2.277-7.886-5.166-11.343-8.592
	c-8.771-8.666-15.318-20.715-18.375-34.567c-1.244-5.64-1.908-11.564-1.908-17.689c0-36.717,23.888-66.593,53.237-66.593
	c29.359,0,53.237,29.876,53.237,66.593c0,13.419-3.194,25.933-8.687,36.401c7.21,5.282,13.81,11.491,19.598,18.543
	c9.709-15.391,15.444-34.398,15.444-54.945C363.913,41.693,328.208,0,284.321,0z"/>
<g>
</g>
<g>
</g>
<g>
</g>
<g>
</g>
<g>
</g>
<g>
</g>
<g>
</g>
<g>
</g>
<g>
</g>
<g>
</g>
<g>
</g>
<g>
</g>
<g>
</g>
<g>
</g>
<g>
</g>
</svg>
