<?xml version="1.0" encoding="iso-8859-1"?>
<!-- Generator: Adobe Illustrator 19.0.0, SVG Export Plug-In . SVG Version: 6.00 Build 0)  -->
<svg version="1.1" id="Capa_1" xmlns="http://www.w3.org/2000/svg" xmlns:xlink="http://www.w3.org/1999/xlink" x="0px" y="0px"
	 viewBox="0 0 512 512" style="enable-background:new 0 0 512 512;" xml:space="preserve">
<path style="fill:#B0BEC5;" d="M480,352H128c-17.664,0-32-14.336-32-32V64c0-17.664,14.336-32,32-32h352c17.664,0,32,14.336,32,32
	v256C512,337.664,497.664,352,480,352z"/>
<path style="fill:#CFD8DC;" d="M480,352H128c-17.952,0-32-14.048-32-32c0-5.088,2.432-9.888,6.528-12.896l192-144
	c2.816-2.08,6.144-3.104,9.472-3.104s6.656,1.024,9.472,3.104l192,144C509.568,310.112,512,314.912,512,320
	C512,337.952,497.952,352,480,352z"/>
<path style="fill:#ECEFF1;" d="M480,32H128c-17.952,0-32,14.048-32,32c0,5.088,2.432,9.888,6.528,12.896l192,144
	c2.816,2.08,6.144,3.104,9.472,3.104s6.656-1.024,9.472-3.104l192-144C509.568,73.888,512,69.088,512,64
	C512,46.048,497.952,32,480,32z"/>
<path style="fill:#1E88E5;" d="M384,480H32c-17.664,0-32-14.336-32-32V192c0-17.664,14.336-32,32-32h352c17.664,0,32,14.336,32,32
	v256C416,465.664,401.664,480,384,480z"/>
<path style="fill:#2196F3;" d="M384,480H32c-17.952,0-32-14.048-32-32c0-5.088,2.432-9.888,6.528-12.896l192-144
	c2.816-2.08,6.144-3.104,9.472-3.104s6.656,1.024,9.472,3.104l192,144C413.568,438.112,416,442.912,416,448
	C416,465.952,401.952,480,384,480z"/>
<path style="fill:#64B5F6;" d="M384,160H32c-17.952,0-32,14.048-32,32c0,5.088,2.432,9.888,6.528,12.896l192,144
	c2.816,2.08,6.144,3.104,9.472,3.104s6.656-1.024,9.472-3.104l192-144C413.568,201.888,416,197.088,416,192
	C416,174.048,401.952,160,384,160z"/>
<g>
</g>
<g>
</g>
<g>
</g>
<g>
</g>
<g>
</g>
<g>
</g>
<g>
</g>
<g>
</g>
<g>
</g>
<g>
</g>
<g>
</g>
<g>
</g>
<g>
</g>
<g>
</g>
<g>
</g>
</svg>
