<svg id="Capa_1" enable-background="new 0 0 512 512" height="512" viewBox="0 0 512 512" width="512" xmlns="http://www.w3.org/2000/svg"><g><g><g><path d="m426.879 504.5h-312.52c-30.873 0-55.901-25.028-55.901-55.901v-385.198c0-30.873 25.028-55.901 55.901-55.901h312.52c30.873 0 55.901 25.028 55.901 55.901v385.197c0 30.874-25.028 55.902-55.901 55.902z" fill="#ddeafb"/><path d="m148.934 504.5h-34.58c-30.87 0-55.9-25.03-55.9-55.9v-385.2c0-30.87 25.03-55.9 55.9-55.9h34.58c-30.87 0-55.9 25.03-55.9 55.9v385.2c0 30.87 25.03 55.9 55.9 55.9z" fill="#bed8fb"/><g><g><path d="m99.717 110.349h-50.547c-11.019 0-19.952-8.933-19.952-19.952 0-11.019 8.933-19.952 19.952-19.952h50.546c11.019 0 19.952 8.933 19.952 19.952.001 11.019-8.932 19.952-19.951 19.952z" fill="#f1d333"/><path d="m118.76 96.36c-.97 3.12-2.68 5.9-4.93 8.15-3.61 3.61-8.6 5.84-14.11 5.84h-50.55c-11.02 0-19.95-8.93-19.95-19.95 0-5.51 2.23-10.5 5.84-14.11 3.61-3.62 8.6-5.85 14.11-5.85h1.23c-.59 1.88-.91 3.89-.91 5.97 0 11.01 8.93 19.95 19.95 19.95z" fill="#eab14d"/></g><g><path d="m99.717 441.56h-50.547c-11.019 0-19.952-8.933-19.952-19.952 0-11.019 8.933-19.952 19.952-19.952h50.546c11.019 0 19.952 8.933 19.952 19.952.001 11.019-8.932 19.952-19.951 19.952z" fill="#f1d333"/><path d="m118.76 427.571c-.97 3.12-2.68 5.9-4.93 8.15-3.61 3.61-8.6 5.84-14.11 5.84h-50.55c-11.02 0-19.95-8.93-19.95-19.95 0-5.51 2.23-10.5 5.84-14.11 3.61-3.62 8.6-5.85 14.11-5.85h1.23c-.59 1.88-.91 3.89-.91 5.97 0 11.01 8.93 19.95 19.95 19.95z" fill="#eab14d"/></g><g><path d="m99.717 358.758h-50.547c-11.019 0-19.952-8.933-19.952-19.952 0-11.019 8.933-19.952 19.952-19.952h50.546c11.019 0 19.952 8.933 19.952 19.952.001 11.019-8.932 19.952-19.951 19.952z" fill="#f1d333"/><path d="m118.76 344.768c-.97 3.12-2.68 5.9-4.93 8.15-3.61 3.61-8.6 5.84-14.11 5.84h-50.55c-11.02 0-19.95-8.93-19.95-19.95 0-5.51 2.23-10.5 5.84-14.11 3.61-3.62 8.6-5.85 14.11-5.85h1.23c-.59 1.88-.91 3.89-.91 5.97 0 11.01 8.93 19.95 19.95 19.95z" fill="#eab14d"/></g><g><path d="m99.717 275.955h-50.547c-11.019 0-19.952-8.933-19.952-19.952 0-11.019 8.933-19.952 19.952-19.952h50.546c11.019 0 19.952 8.933 19.952 19.952.001 11.019-8.932 19.952-19.951 19.952z" fill="#f1d333"/><path d="m118.76 261.965c-.97 3.12-2.68 5.9-4.93 8.15-3.61 3.61-8.6 5.84-14.11 5.84h-50.55c-11.02 0-19.95-8.93-19.95-19.95 0-5.51 2.23-10.5 5.84-14.11 3.61-3.62 8.6-5.85 14.11-5.85h1.23c-.59 1.88-.91 3.89-.91 5.97 0 11.01 8.93 19.95 19.95 19.95z" fill="#eab14d"/></g><g><path d="m99.717 193.152h-50.547c-11.019 0-19.952-8.933-19.952-19.952 0-11.019 8.933-19.952 19.952-19.952h50.546c11.019 0 19.952 8.933 19.952 19.952.001 11.019-8.932 19.952-19.951 19.952z" fill="#f1d333"/><path d="m118.76 179.162c-.97 3.12-2.68 5.9-4.93 8.15-3.61 3.61-8.6 5.84-14.11 5.84h-50.55c-11.02 0-19.95-8.93-19.95-19.95 0-5.51 2.23-10.5 5.84-14.11 3.61-3.62 8.6-5.85 14.11-5.85h1.23c-.59 1.88-.91 3.89-.91 5.97 0 11.01 8.93 19.95 19.95 19.95z" fill="#eab14d"/></g></g></g></g><g><path d="m426.874 0h-312.52c-34.806 0-63.142 28.196-63.388 62.945h-1.796c-15.137 0-27.452 12.315-27.452 27.452s12.315 27.452 27.452 27.452h1.784v27.898h-1.784c-15.137 0-27.452 12.315-27.452 27.452s12.315 27.452 27.452 27.452h1.784v27.898h-1.784c-15.137 0-27.452 12.315-27.452 27.452s12.315 27.452 27.452 27.452h1.784v27.898h-1.784c-15.137 0-27.452 12.315-27.452 27.452s12.315 27.452 27.452 27.452h1.784v27.902h-1.788c-7.336 0-14.23 2.854-19.414 8.037-5.183 5.183-8.036 12.077-8.036 19.413 0 15.136 12.314 27.45 27.45 27.45h1.8c.249 34.75 28.584 62.943 63.388 62.943h312.52c34.965 0 63.41-28.441 63.41-63.4v-385.2c0-34.959-28.445-63.4-63.41-63.4zm-390.156 90.397c0-6.866 5.586-12.452 12.452-12.452h50.547c6.866 0 12.452 5.586 12.452 12.452s-5.586 12.452-12.452 12.452h-50.547c-6.866 0-12.452-5.586-12.452-12.452zm0 82.803c0-6.866 5.586-12.452 12.452-12.452h50.547c6.866 0 12.452 5.586 12.452 12.452s-5.586 12.452-12.452 12.452h-50.547c-6.866 0-12.452-5.586-12.452-12.452zm0 82.802c0-6.866 5.586-12.452 12.452-12.452h50.547c6.866 0 12.452 5.586 12.452 12.452s-5.586 12.452-12.452 12.452h-50.547c-6.866.001-12.452-5.585-12.452-12.452zm0 82.803c0-6.866 5.586-12.452 12.452-12.452h50.547c6.866 0 12.452 5.586 12.452 12.452s-5.586 12.452-12.452 12.452h-50.547c-6.866.001-12.452-5.586-12.452-12.452zm438.566 109.795c0 26.688-21.717 48.4-48.41 48.4h-312.52c-26.534 0-48.14-21.464-48.389-47.94h16.97c4.143 0 7.5-3.358 7.5-7.5s-3.357-7.5-7.5-7.5h-33.77c-6.865 0-12.45-5.585-12.45-12.45 0-3.329 1.294-6.457 3.643-8.807 2.351-2.35 5.478-3.644 8.808-3.644h50.55c6.865 0 12.45 5.585 12.45 12.45 0 2.954-1.042 5.806-2.935 8.033-2.683 3.156-2.299 7.889.857 10.572 3.157 2.683 7.891 2.298 10.572-.858 4.194-4.936 6.505-11.238 6.505-17.747 0-15.136-12.314-27.45-27.45-27.45h-33.761v-27.902h33.763c15.137 0 27.452-12.315 27.452-27.452s-12.315-27.452-27.452-27.452h-33.763v-27.898h33.763c15.137 0 27.452-12.315 27.452-27.452s-12.315-27.452-27.452-27.452h-33.763v-27.898h33.763c15.137 0 27.452-12.315 27.452-27.452s-12.315-27.452-27.452-27.452h-33.763v-27.898h33.763c15.137 0 27.452-12.315 27.452-27.452s-12.315-27.452-27.452-27.452h-33.751c.246-26.48 21.853-47.947 48.388-47.947h312.52c26.693 0 48.41 21.712 48.41 48.4z"/><path d="m425.646 78.239h-65.75c-4.143 0-7.5 3.358-7.5 7.5s3.357 7.5 7.5 7.5h65.75c4.143 0 7.5-3.358 7.5-7.5s-3.357-7.5-7.5-7.5z"/><path d="m158.283 93.239h171.613c4.143 0 7.5-3.358 7.5-7.5s-3.357-7.5-7.5-7.5h-171.613c-4.143 0-7.5 3.358-7.5 7.5s3.358 7.5 7.5 7.5z"/><path d="m425.646 163.369h-267.363c-4.143 0-7.5 3.358-7.5 7.5s3.357 7.5 7.5 7.5h267.363c4.143 0 7.5-3.358 7.5-7.5s-3.357-7.5-7.5-7.5z"/><path d="m425.646 248.5h-267.363c-4.143 0-7.5 3.358-7.5 7.5s3.357 7.5 7.5 7.5h267.363c4.143 0 7.5-3.358 7.5-7.5s-3.357-7.5-7.5-7.5z"/><path d="m425.646 333.631h-267.363c-4.143 0-7.5 3.358-7.5 7.5s3.357 7.5 7.5 7.5h267.363c4.143 0 7.5-3.358 7.5-7.5s-3.357-7.5-7.5-7.5z"/><path d="m425.646 418.761h-267.363c-4.143 0-7.5 3.358-7.5 7.5s3.357 7.5 7.5 7.5h267.363c4.143 0 7.5-3.358 7.5-7.5s-3.357-7.5-7.5-7.5z"/></g></g></svg>