<?xml version="1.0" encoding="UTF-8"?>
<svg xmlns="http://www.w3.org/2000/svg" xmlns:xlink="http://www.w3.org/1999/xlink" width="512" height="512" viewBox="0 0 60 60" version="1.1"><!-- Generator: Sketch 51.3 (57544) - http://www.bohemiancoding.com/sketch --><title>089 - Folders</title><desc>Created with Sketch.</desc><defs/><g id="Page-1" stroke="none" stroke-width="1" fill="none" fill-rule="evenodd"><g id="089---Folders" transform="translate(-1.000000, 0.000000)" fill-rule="nonzero"><path d="M16,3.08 L16,59 L1.99999577,59 L2,11.34 C1.99923041,11.0743459 2.10346553,10.8191496 2.29,10.63 C5.34980705,7.70260533 9.00196181,5.46561791 13,4.07 C13.96,3.71 14.97,3.38 16,3.08 Z" id="Shape" fill="#0377BC"/><path d="M13,4.07 L13,59 L1.99999577,59 L2,11.34 C1.99923041,11.0743459 2.10346553,10.8191496 2.29,10.63 C5.34980705,7.70260533 9.00196181,5.46561791 13,4.07 Z" id="Shape" fill="#02A9F4"/><path d="M22.9999612,59 L39.0000388,59 L39,2.448 C39.0044129,1.94340928 38.6321971,1.51458923 38.132,1.448 C33.3964308,0.845332667 28.6035692,0.845332667 23.868,1.448 C23.3678029,1.51458923 22.9955871,1.94340928 23,2.448 L22.9999612,59 Z" id="Shape" fill="#24AE5F"/><path d="M39,2.45 L39,59 L23,59 L23,2.45 C23.0009888,1.94670409 23.3716822,1.52061974 23.87,1.45 C25.69,1.22 27.57,1.07 29.5,1.02 C30,1.01 30.5,1 31,1 C33.3837508,1.00036404 35.7651187,1.15066075 38.13,1.45 C38.6283178,1.52061974 38.9990112,1.94670409 39,2.45 Z" id="Shape" fill="#549414"/><path d="M36,2.45 L36,59 L23,59 L23,2.45 C23.0009888,1.94670409 23.3716822,1.52061974 23.87,1.45 C25.69,1.22 27.57,1.07 29.5,1.02 C31.43,1.07 33.31,1.22 35.13,1.45 C35.6283178,1.52061974 35.9990112,1.94670409 36,2.45 Z" id="Shape" fill="#60A917"/><polygon id="Shape" fill="#3F51B5" points="23 9 23 59 16 59 16 3.08"/><rect id="Rectangle-path" fill="#CFD8DC" x="27" y="7" width="8" height="26" rx="1"/><path d="M12,13.87 L12,37 C12,37.5522847 11.5522847,38 11,38 L7,38 C6.44771525,38 6,37.5522847 6,37 L6,16.54 C6.00071348,16.2025223 6.16944259,15.8875613 6.45,15.7 L9,14 L10.45,13.04 C10.7555996,12.8337729 11.1502395,12.8136286 11.4752497,12.9876663 C11.8002598,13.161704 12.0022471,13.5013326 12,13.87 Z" id="Shape" fill="#CFD8DC"/><path d="M35,48 C35,50.209139 33.209139,52 31,52 C30.4847146,52.0039542 29.9741272,51.9018367 29.5,51.7 C27.9895658,51.0925605 27,49.6280031 27,48 C27,46.3719969 27.9895658,44.9074395 29.5,44.3 C29.9741272,44.0981633 30.4847146,43.9960458 31,44 C33.209139,44 35,45.790861 35,48 Z" id="Shape" fill="#37474F"/><path d="M12,48 C12,50.21 10.66,52 9,52 C8.45362726,51.9931065 7.92539497,51.8029429 7.5,51.46 C6.54315602,50.5636595 6.00021598,49.3110975 6.00021598,48 C6.00021598,46.6889025 6.54315602,45.4363405 7.5,44.54 C7.92539497,44.1970571 8.45362726,44.0068935 9,44 C10.66,44 12,45.79 12,48 Z" id="Shape" fill="#37474F"/><path d="M60,11.34 L60.0000042,59 L46,59 L46,3.08 C51.76,4.77 56.53,7.4 59.71,10.63 C59.8965345,10.8191496 60.0007696,11.0743459 60,11.34 Z" id="Shape" fill="#0377BC"/><path d="M57,11.34 L57.0000042,59 L46,59 L46,4.07 C49.9980382,5.46561791 53.650193,7.70260533 56.71,10.63 C56.8965345,10.8191496 57.0007696,11.0743459 57,11.34 Z" id="Shape" fill="#02A9F4"/><polygon id="Shape" fill="#3F51B5" points="39 9 39 59 46 59 46 3.08"/><path d="M56,16.54 L56,37 C56,37.5522847 55.5522847,38 55,38 L51,38 C50.4477153,38 50,37.5522847 50,37 L50,13.87 C49.9977529,13.5013326 50.1997402,13.161704 50.5247503,12.9876663 C50.8497605,12.8136286 51.2444004,12.8337729 51.55,13.04 L55.55,15.7 C55.8305574,15.8875613 55.9992865,16.2025223 56,16.54 Z" id="Shape" fill="#CFD8DC"/><rect id="Rectangle-path" fill="#F5F5F5" x="27" y="7" width="5" height="26" rx="1"/><path d="M9,14 L9,37 C9,37.5522847 8.55228475,38 8,38 L7,38 C6.44771525,38 6,37.5522847 6,37 L6,16.54 C6.00071348,16.2025223 6.16944259,15.8875613 6.45,15.7 L9,14 Z" id="Shape" fill="#F5F5F5"/><path d="M53,16.54 L53,37 C53,37.5522847 52.5522847,38 52,38 L51,38 C50.4477153,38 50,37.5522847 50,37 L50,14 L52.55,15.7 C52.8305574,15.8875613 52.9992865,16.2025223 53,16.54 Z" id="Shape" fill="#F5F5F5"/><path d="M56,48 C56,50.21 54.66,52 53,52 C52.4536273,51.9931065 51.925395,51.8029429 51.5,51.46 C50.543156,50.5636595 50.000216,49.3110975 50.000216,48 C50.000216,46.6889025 50.543156,45.4363405 51.5,44.54 C51.925395,44.1970571 52.4536273,44.0068935 53,44 C54.66,44 56,45.79 56,48 Z" id="Shape" fill="#37474F"/><ellipse id="Oval" fill="#545C60" cx="29.5" cy="48" rx="2.5" ry="3.7"/><ellipse id="Oval" fill="#545C60" cx="7.5" cy="48" rx="1.5" ry="3.46"/><ellipse id="Oval" fill="#545C60" cx="51.5" cy="48" rx="1.5" ry="3.46"/><polygon id="Shape" fill="#283593" points="22 9 22 59 20 59 20 7.31"/><polygon id="Shape" fill="#283593" points="42 7.31 42 59 40 59 40 9"/><path d="M60,11.93 C59.7244349,11.9301098 59.4610377,11.8165016 59.272,11.616 C56.2,8.36 51.514,5.74 45.719,4.04 C45.376025,3.93960837 45.1126614,3.66386771 45.0281156,3.31664686 C44.9435698,2.96942601 45.0506864,2.60347607 45.3091156,2.35664685 C45.5675448,2.10981763 45.938025,2.01960836 46.281,2.12 C52.417,3.92 57.412,6.73 60.728,10.243 C61.0025307,10.5333774 61.0778316,10.9593156 60.9195003,11.326218 C60.761169,11.6931203 60.3996071,11.9305368 60,11.93 Z" id="Shape" fill="#000000"/><path d="M2,11.93 C1.60039289,11.9305368 1.238831,11.6931203 1.0804997,11.326218 C0.922168394,10.9593156 0.997469307,10.5333774 1.272,10.243 C4.588,6.73 9.583,3.921 15.719,2.12 C16.2491934,1.96480799 16.804808,2.26880664 16.96,2.799 C17.115192,3.32919336 16.8111934,3.88480799 16.281,4.04 C10.486,5.74 5.8,8.36 2.728,11.616 C2.53896234,11.8165016 2.27556511,11.9301098 2,11.93 Z" id="Shape" fill="#000000"/><path d="M39,2.57 C38.9514904,2.57011891 38.903034,2.56677709 38.855,2.56 C33.6440181,1.81700283 28.3539819,1.81700283 23.143,2.56 C22.8799836,2.60195097 22.6111829,2.53571318 22.3977715,2.376361 C22.1843601,2.21700882 22.0444926,1.97809807 22.01,1.714 C21.9308333,1.16753612 22.3095597,0.660329263 22.856,0.581 C28.2579619,-0.189995392 33.7420381,-0.189995392 39.144,0.581 C39.6610335,0.658301184 40.0312735,1.12080117 39.993524,1.64221667 C39.9557744,2.16363216 39.5227763,2.56797917 39,2.57 Z" id="Shape" fill="#000000"/><path d="M39,60 L23,60 C22.4477153,60 22,59.5522847 22,59 L22,1.57 C22,1.01771525 22.4477153,0.57 23,0.57 C23.5522847,0.57 24,1.01771525 24,1.57 L24,58 L38,58 L38,1.57 C38,1.01771525 38.4477153,0.57 39,0.57 C39.5522847,0.57 40,1.01771525 40,1.57 L40,59 C40,59.5522847 39.5522847,60 39,60 Z" id="Shape" fill="#000000"/><path d="M16,60 L2,60 C1.44771525,60 1,59.5522847 1,59 L1,10.93 C1,10.3777153 1.44771525,9.93 2,9.93 C2.55228475,9.93 3,10.3777153 3,10.93 L3,58 L15,58 L15,3.08 C14.9997418,2.69048917 15.2256782,2.33627277 15.5789856,2.17228316 C15.9322931,2.00829355 16.3486718,2.06437586 16.646,2.316 L23.646,8.236 C24.0679455,8.59277595 24.1207759,9.22405444 23.764,9.64599998 C23.407224,10.0679455 22.7759456,10.1207759 22.354,9.764 L17,5.235 L17,59 C17,59.5522847 16.5522847,60 16,60 Z" id="Shape" fill="#000000"/><path d="M39,10 C38.5798563,10.0007502 38.2040485,9.73879919 38.0593724,9.34435007 C37.9146964,8.94990095 38.032009,8.50708316 38.353,8.236 L45.353,2.316 C45.7749456,1.95922408 46.406224,2.01205449 46.763,2.43400003 C47.1197759,2.85594556 47.0669455,3.48722404 46.645,3.844 L39.645,9.764 C39.4646047,9.91634818 39.2361195,9.99994893 39,10 Z" id="Shape" fill="#000000"/><path d="M60,60 L46,60 C45.4477153,60 45,59.5522847 45,59 L45,3.08 C45,2.52771525 45.4477153,2.08 46,2.08 C46.5522847,2.08 47,2.52771525 47,3.08 L47,58 L59,58 L59,10.93 C59,10.3777153 59.4477153,9.93 60,9.93 C60.5522847,9.93 61,10.3777153 61,10.93 L61,59 C61,59.5522847 60.5522847,60 60,60 Z" id="Shape" fill="#000000"/><path d="M46,60 L16,60 C15.4477153,60 15,59.5522847 15,59 C15,58.4477153 15.4477153,58 16,58 L46,58 C46.5522847,58 47,58.4477153 47,59 C47,59.5522847 46.5522847,60 46,60 Z" id="Shape" fill="#000000"/><path d="M34,34 L28,34 C26.8954305,34 26,33.1045695 26,32 L26,8 C26,6.8954305 26.8954305,6 28,6 L34,6 C35.1045695,6 36,6.8954305 36,8 L36,32 C36,33.1045695 35.1045695,34 34,34 Z M28,8 L28,32 L34,32 L34,8 L28,8 Z" id="Shape" fill="#000000"/><path d="M11,39 L7,39 C5.8954305,39 5,38.1045695 5,37 L5,16.535 C5.00012287,15.8662533 5.33447989,15.24182 5.891,14.871 L9.891,12.204 C10.5046843,11.7950904 11.2935952,11.7570604 11.943766,12.1050451 C12.5939369,12.4530297 12.9998645,13.1305616 13,13.868 L13,37 C13,38.1045695 12.1045695,39 11,39 Z M11,13.868 L7,16.535 L7,37 L11,37 L11,13.868 Z" id="Shape" fill="#000000"/><path d="M31,53 C28.2385763,53 26,50.7614237 26,48 C26,45.2385763 28.2385763,43 31,43 C33.7614237,43 36,45.2385763 36,48 C35.9966939,50.7600532 33.7600532,52.9966939 31,53 Z M31,45 C29.3431458,45 28,46.3431458 28,48 C28,49.6568542 29.3431458,51 31,51 C32.6568542,51 34,49.6568542 34,48 C34,46.3431458 32.6568542,45 31,45 Z" id="Shape" fill="#000000"/><path d="M9,53 C6.794,53 5,50.757 5,48 C5,45.243 6.794,43 9,43 C11.206,43 13,45.243 13,48 C13,50.757 11.206,53 9,53 Z M9,45 C7.916,45 7,46.374 7,48 C7,49.626 7.916,51 9,51 C10.084,51 11,49.626 11,48 C11,46.374 10.084,45 9,45 Z" id="Shape" fill="#000000"/><path d="M55,39 L51,39 C49.8954305,39 49,38.1045695 49,37 L49,13.868 C48.9986585,13.129844 49.4040125,12.4509613 50.0544686,12.1019871 C50.7049247,11.7530129 51.4947184,11.7906906 52.109,12.2 L56.109,14.867 C56.6667009,15.2386052 57.0012165,15.8648364 57,16.535 L57,37 C57,38.1045695 56.1045695,39 55,39 Z M51,13.868 L51,37 L55,37 L55,16.535 L51,13.868 Z" id="Shape" fill="#000000"/><path d="M53,53 C50.794,53 49,50.757 49,48 C49,45.243 50.794,43 53,43 C55.206,43 57,45.243 57,48 C57,50.757 55.206,53 53,53 Z M53,45 C51.916,45 51,46.374 51,48 C51,49.626 51.916,51 53,51 C54.084,51 55,49.626 55,48 C55,46.374 54.084,45 53,45 Z" id="Shape" fill="#000000"/><path d="M35,14 L27,14 C26.4477153,14 26,13.5522847 26,13 C26,12.4477153 26.4477153,12 27,12 L35,12 C35.5522847,12 36,12.4477153 36,13 C36,13.5522847 35.5522847,14 35,14 Z" id="Shape" fill="#000000"/><path d="M35,18 L27,18 C26.4477153,18 26,17.5522847 26,17 C26,16.4477153 26.4477153,16 27,16 L35,16 C35.5522847,16 36,16.4477153 36,17 C36,17.5522847 35.5522847,18 35,18 Z" id="Shape" fill="#000000"/><path d="M35,22 L27,22 C26.4477153,22 26,21.5522847 26,21 C26,20.4477153 26.4477153,20 27,20 L35,20 C35.5522847,20 36,20.4477153 36,21 C36,21.5522847 35.5522847,22 35,22 Z" id="Shape" fill="#000000"/><path d="M35,26 L27,26 C26.4477153,26 26,25.5522847 26,25 C26,24.4477153 26.4477153,24 27,24 L35,24 C35.5522847,24 36,24.4477153 36,25 C36,25.5522847 35.5522847,26 35,26 Z" id="Shape" fill="#000000"/><path d="M35,30 L27,30 C26.4477153,30 26,29.5522847 26,29 C26,28.4477153 26.4477153,28 27,28 L35,28 C35.5522847,28 36,28.4477153 36,29 C36,29.5522847 35.5522847,30 35,30 Z" id="Shape" fill="#000000"/></g></g></svg>
