<svg height="512" viewBox="0 0 64 64" width="512" xmlns="http://www.w3.org/2000/svg"><g id="Twotone"><g id="Color_copy" data-name="Color copy"><g><path d="m17 3v6h30v46h10v-52z" fill="#a8dba8"/><path d="m36 50a16 16 0 0 1 -16-16v-25h-3v10h-10v42h40v-11z" fill="#cff09e"/><path d="m27 41h14v14h-14z" fill="#79bd9a"/></g></g><g id="Stroke_Close_copy" data-name="Stroke Close copy"><g fill="#3b8686"><path d="m57 2h-40a1 1 0 0 0 -1 1v5.586l-9.707 9.707a1 1 0 0 0 -.293.707v42a1 1 0 0 0 1 1h40a1 1 0 0 0 1-1v-5h9a1 1 0 0 0 1-1v-52a1 1 0 0 0 -1-1zm-41 9.414v6.586h-6.586zm30 48.586h-38v-40h9a1 1 0 0 0 1-1v-9h28zm10-6h-8v-10h4a1 1 0 0 0 0-2h-4v-4h4a1 1 0 0 0 0-2h-4v-4h4a1 1 0 0 0 0-2h-4v-4h4a1 1 0 0 0 0-2h-4v-4h4a1 1 0 0 0 0-2h-4v-4h4a1 1 0 0 0 0-2h-4v-3a1 1 0 0 0 -1-1h-29v-4h38z"/><path d="m41 40h-14a1 1 0 0 0 -1 1v14a1 1 0 0 0 1 1h14a1 1 0 0 0 1-1v-14a1 1 0 0 0 -1-1zm-1 14h-12v-12h12z"/><path d="m33 46h3v2a1 1 0 0 0 2 0v-3a1 1 0 0 0 -1-1h-4a1 1 0 0 0 0 2z"/><path d="m41 18h-18a1 1 0 0 0 0 2h18a1 1 0 0 0 0-2z"/><path d="m41 24h-29a1 1 0 0 0 0 2h29a1 1 0 0 0 0-2z"/><path d="m41 30h-29a1 1 0 0 0 0 2h29a1 1 0 0 0 0-2z"/><path d="m41 36h-29a1 1 0 0 0 0 2h29a1 1 0 0 0 0-2z"/><path d="m23 42h-11a1 1 0 0 0 0 2h11a1 1 0 0 0 0-2z"/><path d="m23 48h-11a1 1 0 0 0 0 2h11a1 1 0 0 0 0-2z"/></g></g></g></svg>