<svg height="511pt" viewBox="0 0 511 511.99985" width="511pt" xmlns="http://www.w3.org/2000/svg"><path d="m398.75 35.761719c-2.101562-2.101563-4.199219-3.898438-6.300781-5.699219-47.695313-41.996094-117.882813-39.894531-163.480469 5.699219-24.894531 24.894531-27.894531 53.089843-30.59375 77.988281-2.699219 22.496094-4.800781 42.296875-22.496094 59.691406-17.398437 17.699219-39.199218 19.800782-61.695312 22.5-24.894532 2.699219-53.089844 5.699219-77.988282 30.59375-23.695312 23.699219-35.695312 54.292969-35.695312 84.890625 0 30.59375 12 61.191407 35.695312 84.886719 23.695313 23.699219 54.292969 35.695312 84.890626 35.695312 30.296874 0 62.890624-11.996093 86.886718-35.695312 24.898438-24.894531 27.898438-53.089844 30.597656-77.988281 2.699219-22.796875 4.800782-42.292969 22.195313-59.992188 17.699219-17.398437 37.195313-19.496093 59.992187-22.195312 29.078126-3.0625 54.578126-7.183594 77.992188-30.597657 47.691406-47.695312 47.691406-122.386718 0-169.777343zm-21.296875 148.480469c-17.398437 17.398437-37.195313 19.496093-59.992187 22.195312-24.597657 2.699219-52.792969 5.699219-77.691407 30.898438-25.195312 24.894531-28.195312 53.09375-30.894531 77.6875-2.703125 22.800781-4.800781 42.59375-22.199219 59.992187-35.695312 35.699219-93.785156 35.699219-129.183593 0-35.695313-35.695313-35.695313-91.484375 0-127.183594 17.398437-17.398437 37.195312-19.796875 59.992187-22.195312 24.597656-2.699219 54.792969-6 79.691406-30.898438 24.898438-24.894531 28.195313-53.09375 30.894531-77.691406 2.398438-22.792969 4.800782-42.589844 22.199219-59.992187 35.695313-35.695313 91.488281-35.695313 127.183594 0 6 6 11.097656 12.601562 14.996094 19.5 19.046875 33.332031 15.402343 77.289062-14.996094 107.6875zm0 0" fill="#ff7816"/><path d="m398.75 35.761719c-.339844-.339844-.679688-.660157-1.019531-.984375l-21.304688 21.304687c.339844.328125.691407.640625 1.027344.976563 5.996094 6 11.097656 12.597656 14.996094 19.496094 19.046875 33.332031 15.402343 77.289062-14.996094 107.6875-17.402344 17.398437-37.195313 19.496093-59.992187 22.199218-24.597657 2.699219-52.796876 5.699219-77.691407 30.894532-25.195312 24.894531-28.199219 53.09375-30.894531 77.691406-2.703125 22.796875-4.800781 42.59375-22.199219 59.992187-35.695312 35.695313-93.789062 35.695313-129.183593 0 0 0 0 0 0-.003906l-21.296876 21.300781c23.695313 23.695313 54.292969 35.695313 84.890626 35.695313 30.292968 0 62.890624-12 86.886718-35.695313 24.898438-24.894531 27.898438-53.09375 30.597656-77.992187 2.699219-22.796875 4.800782-42.292969 22.195313-59.992188 17.699219-17.398437 37.195313-19.496093 59.992187-22.195312 29.074219-3.0625 54.578126-7.183594 77.992188-30.597657 47.691406-47.695312 47.691406-122.386718 0-169.777343zm0 0" fill="#ff4b00"/><path d="m452.441406 255.03125c0-24.59375 12.296875-40.195312 26.699219-58.191406 15.59375-19.496094 33.292969-41.394532 33.292969-76.789063 0-67.191406-52.792969-119.9843748-119.984375-119.9843748-67.191407 0-119.984375 52.7929688-119.984375 119.9843748 0 35.394531 17.699218 57.292969 33.296875 76.789063 14.398437 17.996094 26.695312 33.597656 26.695312 58.191406 0 24.597656-12.296875 40.195312-26.695312 58.195312-15.597657 19.496094-33.296875 41.394532-33.296875 76.789063 0 67.191406 52.792968 121.984375 119.984375 121.984375 67.191406 0 119.984375-54.792969 119.984375-121.984375 0-35.394531-17.699219-57.292969-33.292969-76.789063-14.402344-18-26.699219-33.597656-26.699219-58.195312zm-59.992187 226.972656c-50.390625 0-89.988281-41.59375-89.988281-91.988281 0-24.597656 12.296874-40.195313 26.699218-58.191406 15.59375-19.5 33.292969-41.394531 33.292969-76.792969 0-35.394531-17.699219-57.292969-33.292969-76.789062-14.402344-17.996094-26.699218-33.59375-26.699218-58.191407 0-50.394531 39.597656-89.988281 89.988281-89.988281 50.394531 0 89.988281 39.59375 89.988281 89.988281 0 24.597657-12.296875 40.195313-26.695312 58.191407-15.597657 19.496093-33.296876 41.394531-33.296876 76.789062 0 35.398438 17.699219 57.292969 33.296876 76.792969 14.398437 17.996093 26.695312 33.59375 26.695312 58.191406 0 50.390625-39.59375 91.988281-89.988281 91.988281zm0 0" fill="#ffd400"/><path d="m479.140625 313.226562c15.59375 19.496094 33.292969 41.394532 33.292969 76.789063 0 67.191406-52.792969 121.984375-119.984375 121.984375v-29.996094c50.394531 0 89.988281-41.59375 89.988281-91.988281 0-24.597656-12.296875-40.195313-26.695312-58.191406-15.597657-19.5-33.296876-41.394531-33.296876-76.792969 0-35.394531 17.699219-57.292969 33.296876-76.789062 14.398437-17.996094 26.695312-33.59375 26.695312-58.191407 0-50.394531-39.59375-89.988281-89.988281-89.988281v-29.9960938c67.191406 0 119.984375 52.7929688 119.984375 119.9843748 0 35.394531-17.699219 57.292969-33.292969 76.789063-14.402344 17.996094-26.699219 33.597656-26.699219 58.191406 0 24.597656 12.296875 40.195312 26.699219 58.195312zm0 0" fill="#fdbf00"/></svg>