<svg height="475pt" viewBox="0 -1 475.30241 475" width="475pt" xmlns="http://www.w3.org/2000/svg"><path d="m371.289062 216.25-225.28125 225.203125c-28.074218 28.753906-72.941406 32.695313-105.601562 9.277344-27.367188-20.207031-38.972656-55.507813-28.933594-88.015625 10.039063-32.503906 39.527344-55.113282 73.527344-56.371094 33.996094-1.257812 65.074219 19.113281 77.488281 50.789062l174.800781-174.882812zm0 0" fill="#bddbff"/><path d="m64.40625 450.730469c10.214844 7.585937 22.140625 12.53125 34.722656 14.402343-20.714844 3.273438-41.875-1.914062-58.722656-14.402343-20.636719-15.296875-32.683594-39.558594-32.398438-65.246094.285157-25.6875 12.867188-49.675781 33.839844-64.511719 16.820313-11.996094 37.664063-16.933594 58.078125-13.761718-12.289062 1.816406-23.972656 6.53125-34.078125 13.761718-20.972656 14.835938-33.554687 38.824219-33.839844 64.511719-.285156 25.6875 11.761719 49.949219 32.398438 65.246094zm0 0" fill="#9bc9ff"/><path d="m120.40625 385.933594c0 17.671875-14.324219 32-32 32-17.671875 0-32-14.328125-32-32 0-17.675782 14.328125-32 32-32 17.675781 0 32 14.324218 32 32zm0 0" fill="#006df0"/><path d="m393.878906 216.226562 45.257813-45.253906c37.503906-37.410156 37.566406-98.140625.136719-135.625-38.832032-36.945312-100.054688-36.125-137.882813 1.839844l-43.277344 43.273438c-6.253906 6.246093-6.253906 16.382812 0 22.628906l33.941407 33.9375c6.25 6.246094 16.375 6.246094 22.625 0l50.28125-50.296875c5.890624-6.160157 15.5-6.855469 22.214843-1.597657 3.414063 2.898438 5.464844 7.089844 5.664063 11.5625.199218 4.472657-1.472656 8.828126-4.617188 12.019532l-50.910156 50.914062c-6.246094 6.246094-6.246094 16.375 0 22.621094l33.933594 33.945312c6.242187 6.261719 16.375 6.273438 22.632812.03125zm0 0" fill="#2488ff"/><path d="m290.085938 103.050781 29.28125 29.28125-4.71875 4.71875c-2.992188 2.996094-7.046876 4.679688-11.28125 4.679688-4.230469 0-8.289063-1.683594-11.28125-4.679688l-34-34c-2.992188-2.988281-4.675782-7.046875-4.675782-11.277343 0-4.234376 1.683594-8.292969 4.675782-11.28125l43.28125-43.28125c22.84375-22.578126 55.09375-32.890626 86.800781-27.757813-20.734375 3.246094-39.914063 12.960937-54.800781 27.757813l-43.28125 43.28125c-2.992188 2.988281-4.675782 7.046874-4.675782 11.28125 0 4.230468 1.683594 8.289062 4.675782 11.277343zm0 0" fill="#006df0"/><path d="m41.832031 320.957031c21.992188-15.527343 50.316407-18.953125 75.375-9.113281h.074219l174.796875-174.800781-33.941406-33.933594-226.695313 226.644531-5.257812 5.265625.222656.222657h.128906c4.472656-5.390626 9.613282-10.191407 15.296875-14.285157zm0 0" fill="#f1f2f2"/><path d="m26.167969 335.050781 3.757812-3.679687c-1.117187 1.28125-2.316406 2.5625-3.359375 3.839844h-.160156zm0 0" fill="#f1f2f2"/><path d="m270.085938 115.050781-191.839844 191.921875c-13.128906 1.472656-25.664063 6.292969-36.398438 14-4.308594 3.058594-8.304687 6.542969-11.921875 10.398438l1.523438-1.597656 226.636719-226.722657zm0 0" fill="#e6e7e8"/><g fill="#231f20"><path d="m88.40625 425.933594c-19.082031 0-35.507812-13.480469-39.230469-32.199219-3.722656-18.71875 6.292969-37.457031 23.925781-44.757813 17.632813-7.304687 37.964844-1.132812 48.566407 14.734376 10.601562 15.871093 8.515625 37.015624-4.980469 50.507812-7.484375 7.527344-17.667969 11.742188-28.28125 11.714844zm0-64c-9.707031-.003906-18.460938 5.84375-22.175781 14.816406-3.714844 8.96875-1.660157 19.292969 5.210937 26.15625 9.496094 9.058594 24.433594 9.058594 33.933594 0 6.867188-6.863281 8.925781-17.1875 5.210938-26.15625-3.714844-8.972656-12.46875-14.820312-22.179688-14.816406zm0 0"/><path d="m444.933594 29.699219c-19.269532-19.15625-45.410156-29.7968752-72.582032-29.542969h-.105468c-28.636719-.019531-56.128906 11.253906-76.511719 31.375l-43.277344 43.273438c-7.117187 7.1875-8.964843 18.066406-4.617187 27.199218l-227.3125 227.359375c-.769532.792969-1.351563 1.746094-1.703125 2.792969-14.703125 18.667969-21.210938 42.5-18.039063 66.050781s15.753906 44.808594 34.871094 58.925781c14.863281 11.046876 32.910156 16.96875 51.429688 16.878907 24.226562-.042969 47.445312-9.695313 64.5625-26.839844l220.648437-220.679687c9.128906 4.464843 20.085937 2.609374 27.238281-4.609376l45.257813-45.253906c40.625-40.53125 40.6875-106.320312.140625-146.929687zm-124.597656 112.984375 50.28125-50.273438c2.972656-3.199218 7.859374-3.683594 11.40625-1.132812 1.863281 1.535156 2.914062 3.847656 2.839843 6.261718.019531 2.085938-.808593 4.089844-2.296875 5.550782l-50.917968 50.914062c-7.113282 7.191406-8.957032 18.066406-4.609376 27.199219l-162.191406 162.222656c-7.496094-13.433593-18.375-24.675781-31.558594-32.605469-.800781-.472656-1.601562-.878906-2.402343-1.328124l162.207031-162.191407c9.144531 4.382813 20.054688 2.535157 27.242188-4.617187zm-39.59375-5.65625-165.542969 165.550781c-13.664063-4.378906-28.183594-5.390625-42.320313-2.941406l185.234375-185.234375zm-140.40625 298.800781c-25.261719 25.929687-65.667969 29.542969-95.128907 8.503906-24.59375-18.175781-35.023437-49.902343-26.011719-79.125 9.011719-29.21875 35.5-49.5625 66.058594-50.726562 30.554688-1.167969 58.515625 17.097656 69.730469 45.546875.976563 2.523437 3.160156 4.382812 5.808594 4.941406 2.648437.558594 5.398437-.257812 7.3125-2.171875l169.199219-169.203125 22.628906 22.632812zm293.144531-270.511719-45.257813 45.253906c-1.5 1.503907-3.535156 2.347657-5.660156 2.347657-2.121094 0-4.160156-.84375-5.660156-2.347657l-33.941406-33.941406c-3.125-3.125-3.125-8.1875 0-11.3125l50.917968-50.914062c4.511719-4.445313 7.027344-10.527344 6.984375-16.863282.082031-7.128906-3.050781-13.921874-8.527343-18.488281-9.894532-7.933593-24.195313-7.046875-33.03125 2.050781l-50.28125 50.269532c-3.125 3.125-8.1875 3.125-11.3125 0l-33.945313-33.933594c-1.5-1.503906-2.34375-3.539062-2.34375-5.660156 0-2.125.84375-4.160156 2.34375-5.660156l43.28125-43.273438c17.371094-17.132812 40.796875-26.722656 65.191406-26.6875h.097657c22.914062-.253906 44.976562 8.675781 61.261718 24.800781 34.320313 34.355469 34.265625 90.035157-.117187 124.328125zm0 0"/></g></svg>