<svg height="412pt" viewBox="0 0 412 412.54075" width="412pt" xmlns="http://www.w3.org/2000/svg"><path d="m383.898438 342.511719 18.621093 60.027343-60.03125-18.609374c-10.765625-3.339844-20.886719-8.476563-29.9375-15.199219l1.160157-1.53125 53.457031-53.46875 1.53125-1.160157c6.726562 9.046876 11.867187 19.171876 15.199219 29.941407zm0 0" fill="#fedb41"/><path d="m368.699219 312.570312-1.53125 1.160157-53.457031 53.46875-1.160157 1.53125c-3.949219-2.921875-7.675781-6.136719-11.152343-9.609375l-110.007813-110.011719 57.699219-57.699219 110.011718 110.011719c3.472657 3.46875 6.683594 7.195313 9.597657 11.148437zm0 0" fill="#00efd1"/><path d="m249.089844 191.410156-57.699219 57.699219h-.011719l-35.347656-35.359375 57.699219-57.699219zm0 0" fill="#00acea"/><path d="m84.859375 44.378906 8.601563-8.597656 120.269531 120.269531-57.699219 57.699219-120.269531-120.269531 8.597656-8.601563zm0 0" fill="#00efd1"/><path d="m56.789062 15.949219 28.070313 28.429687-34.121094 34.121094-6.417969 6.339844-28.21875-28.210938c-7.773437-7.769531-7.820312-20.359375-.101562-28.1875l12.320312-12.492187c3.757813-3.804688 8.886719-5.945313 14.234376-5.945313 5.347656 0 10.476562 2.140625 14.234374 5.945313zm0 0" fill="#00acea"/><path d="m393.453125 339.554688c-3.660156-11.839844-9.308594-22.96875-16.703125-32.914063-3.214844-4.355469-6.75-8.464844-10.582031-12.289063l-102.933594-102.941406-2.878906-2.875-159.824219-159.828125c-3.90625-3.902343-10.238281-3.902343-14.140625 0l-1.484375 1.484375-21-21.269531c-5.640625-5.707031-13.328125-8.921875-21.351562-8.921875-8.027344 0-15.714844 3.214844-21.355469 8.921875l-12.320313 12.492187c-11.535156 11.761719-11.46875 30.609376.148438 42.289063l21.109375 21.097656-7.769531 7.6875c-9.464844 9.359375-14.808594 22.101563-14.84375 35.414063-.039063 13.308594 5.230468 26.085937 14.640624 35.496094l80.042969 80.03125c3.914063 3.839843 10.195313 3.8125 14.074219-.066407 3.878906-3.882812 3.90625-10.160156.066406-14.078125l-80.035156-80.023437c-11.453125-11.453125-11.746094-29.933594-.660156-41.742188l145.734375 145.742188v5.847656h5.847656l4.144531 4.144531.007813-.007812 102.941406 102.945312c12.636719 12.621094 28.148437 21.988282 45.203125 27.292969l60.027344 18.609375c3.546875 1.097656 7.40625.140625 10.03125-2.484375s3.578125-6.484375 2.480468-10.03125zm-202.066406-104.582032-21.214844-21.222656 43.558594-43.558594 21.21875 21.21875zm-168.269531-199.511718 12.320312-12.484376c1.878906-1.902343 4.441406-2.972656 7.117188-2.972656 2.675781 0 5.238281 1.070313 7.117187 2.972656l21.089844 21.359376-26.398438 26.398437-21.183593-21.171875c-3.878907-3.890625-3.90625-10.175781-.0625-14.101562zm70.34375 14.460937 106.125 106.128906-43.554688 43.558594-106.128906-106.128906zm112.070312 199.1875 43.558594-43.558594 102.9375 102.941407c1.042968 1.042968 2.046875 2.117187 3.035156 3.207031l-43.382812 43.386719c-1.09375-.992188-2.171876-2-3.210938-3.035157zm139.921875 125.269531c-6.023437-1.867187-11.832031-4.363281-17.332031-7.449218l38.78125-38.789063c3.085937 5.5 5.582031 11.308594 7.445312 17.332031l12.996094 41.898438zm0 0" fill="#083863"/></svg>