<svg height="512pt" viewBox="0 -72 512.00636 512" width="512pt" xmlns="http://www.w3.org/2000/svg"><path d="m352.089844 120.097656v112.25h-112.167969v-.160156c61.917969.007812 112.167969-50.167969 112.167969-112.089844zm0 0" fill="#94c1ff"/><path d="m504 232.347656-16.078125 31.75 16.078125 32-16.078125 32 16.078125 32.175782h-383.910156v-.078126c-61.921875 0-112.089844-50.25-112.089844-112.175781v-127.921875c0 61.921875 50.167969 112.097656 112.089844 112.097656v.160157h383.910156zm0 0" fill="#fff"/><path d="m240 104.097656c8.808594 0 16 7.203125 16 16 0 8.816406-7.191406 16-16 16l-.078125-.160156h-119.832031l-1.683594.082031c-8.085938-.792969-14.40625-7.671875-14.40625-15.921875 0-7.671875 5.519531-14.160156 12.808594-15.671875h123.113281zm0 0" fill="#d7e9ff"/><path d="m239.921875 56.195312v-.167968c35.359375 0 64.078125 28.71875 64.078125 64.078125 0 35.363281-28.71875 64.097656-64.078125 64.097656h-119.832031c-35.363282 0-64.089844-28.734375-64.089844-64.097656 0-34.230469 26.960938-62.230469 60.808594-64l3.28125.097656h119.832031zm0 23.902344v.167969h-119.832031v-.167969c-22.167969 0-40.089844 17.921875-40.089844 40 0 22.097656 17.921875 40 40.089844 40v-.078125h119.832031v.078125c22.167969 0 40.078125-17.902344 40.078125-40 0-22.078125-17.910156-40-40.078125-40zm0 0" fill="#d7e9ff"/><path d="m32 120.097656c0-47.109375 37.046875-85.589844 83.519531-88h124.402344v-.078125c48.636719 0 88.078125 39.441407 88.078125 88.078125 0 48.640625-39.441406 88.097656-88.078125 88.097656v.078126h-119.832031v-.078126c-48.640625 0-88.089844-39.457031-88.089844-88.097656zm84.808594-64c-33.847656 1.769532-60.808594 29.769532-60.808594 64 0 35.363282 28.726562 64.097656 64.089844 64.097656h119.832031c35.359375 0 64.078125-28.734374 64.078125-64.097656 0-35.359375-28.71875-64.078125-64.078125-64.078125v.167969h-119.832031zm0 0" fill="#fff"/><path d="m116.808594 104.425781c-7.28125 1.511719-12.808594 8-12.808594 15.671875 0 8.25 6.320312 15.128906 14.40625 15.921875l1.683594-.082031h119.832031l.078125.160156c8.808594 0 16-7.183594 16-16 0-8.796875-7.191406-16-16-16l-.078125.328125zm3.28125 55.671875c-22.167969 0-40.089844-17.902344-40.089844-40 0-22.078125 17.921875-40 40.089844-40v.167969h119.832031v-.167969c22.167969 0 40.078125 17.921875 40.078125 40 0 22.097656-17.910156 40-40.078125 40v-.078125h-119.832031zm0 0" fill="#fff"/><path d="m8 120.097656c0-61.902344 50.167969-112.078125 112.089844-112.078125h119.832031c61.917969 0 112.167969 50.167969 112.167969 112.078125 0 61.921875-50.242188 112.097656-112.167969 112.097656v.160157h-119.832031v-.160157c-61.921875 0-112.089844-50.175781-112.089844-112.097656zm107.519531-88c-46.472656 2.410156-83.519531 40.890625-83.519531 88 0 48.640625 39.449219 88.097656 88.089844 88.097656v.078126h119.832031v-.078126c48.636719 0 88.078125-39.457031 88.078125-88.097656 0-48.636718-39.441406-88.078125-88.078125-88.078125v.078125zm0 0" fill="#d7e9ff"/><g fill="#116fff"><path d="m120.0625 144.097656c-13.230469 0-24-10.765625-24-24 0-13.230468 10.769531-24 24-24 4.425781 0 8 3.578125 8 8 0 4.425782-3.574219 8-8 8-4.414062 0-8 3.585938-8 8 0 4.417969 3.585938 8 8 8 4.425781 0 8 3.578125 8 8 0 4.425782-3.574219 8-8 8zm0 0"/><path d="m120.078125 168.132812c-26.484375 0-48.03125-21.546874-48.03125-48.035156 0-26.488281 21.546875-48.03125 48.03125-48.03125 4.425781 0 8 3.578125 8 8 0 4.425782-3.574219 8-8 8-17.664063 0-32.03125 14.367188-32.03125 32.03125 0 17.664063 14.367187 32.035156 32.03125 32.035156 4.425781 0 8 3.574219 8 8 0 4.421876-3.574219 8-8 8zm0 0"/><path d="m120.078125 192.148438c-39.726563 0-72.046875-32.320313-72.046875-72.050782 0-39.726562 32.320312-72.046875 72.046875-72.046875 4.425781 0 8 3.578125 8 8 0 4.425781-3.574219 8-8 8-30.902344 0-56.046875 25.144531-56.046875 56.046875 0 30.90625 25.136719 56.050782 56.046875 56.050782 4.425781 0 8 3.574218 8 8 0 4.421874-3.574219 8-8 8zm0 0"/><path d="m120.097656 216.179688c-52.984375 0-96.097656-43.105469-96.097656-96.082032 0-52.984375 43.113281-96.09375 96.097656-96.09375 4.421875 0 8 3.574219 8 8 0 4.421875-3.578125 8-8 8-44.167968 0-80.097656 35.933594-80.097656 80.09375s35.929688 80.082032 80.097656 80.082032c4.421875 0 8 3.574218 8 8 0 4.421874-3.585937 8-8 8zm0 0"/><path d="m120.097656 240.195312c-66.226562 0-120.097656-53.878906-120.097656-120.097656 0-66.214844 53.871094-120.09374975 120.097656-120.09374975 4.421875 0 8 3.57421875 8 7.99999975 0 4.421875-3.578125 8-8 8-57.402344 0-104.097656 46.695313-104.097656 104.09375 0 57.402344 46.695312 104.097656 104.097656 104.097656 4.421875 0 8 3.574219 8 8 0 4.425782-3.585937 8-8 8zm0 0"/><path d="m240 144.097656c-4.425781 0-8-3.574218-8-8 0-4.421875 3.574219-8 8-8 4.414062 0 8-3.582031 8-8 0-4.414062-3.585938-8-8-8-4.425781 0-8-3.574218-8-8 0-4.421875 3.574219-8 8-8 13.230469 0 24 10.769532 24 24 0 13.234375-10.769531 24-24 24zm0 0"/><path d="m239.984375 168.132812c-4.425781 0-8-3.578124-8-8 0-4.425781 3.574219-8 8-8 17.664063 0 32.03125-14.371093 32.03125-32.035156 0-17.664062-14.367187-32.03125-32.03125-32.03125-4.425781 0-8-3.574218-8-8 0-4.421875 3.574219-8 8-8 26.488281 0 48.03125 21.542969 48.03125 48.03125 0 26.488282-21.542969 48.035156-48.03125 48.035156zm0 0"/><path d="m239.984375 192.148438c-4.425781 0-8-3.578126-8-8 0-4.425782 3.574219-8 8-8 30.902344 0 56.046875-25.144532 56.046875-56.050782 0-30.902344-25.144531-56.046875-56.046875-56.046875-4.425781 0-8-3.574219-8-8 0-4.421875 3.574219-8 8-8 39.726563 0 72.046875 32.320313 72.046875 72.046875 0 39.730469-32.320312 72.050782-72.046875 72.050782zm0 0"/><path d="m239.984375 216.179688c-4.425781 0-8-3.578126-8-8 0-4.425782 3.574219-8 8-8 44.160156 0 80.078125-35.921876 80.078125-80.082032 0-44.167968-35.917969-80.09375-80.078125-80.09375-4.425781 0-8-3.578125-8-8 0-4.425781 3.574219-8 8-8 52.976563 0 96.078125 43.109375 96.078125 96.09375 0 52.976563-43.101562 96.082032-96.078125 96.082032zm0 0"/><path d="m239.984375 240.195312c-4.425781 0-8-3.574218-8-8 0-4.425781 3.574219-8 8-8 57.398437 0 104.09375-46.695312 104.09375-104.097656 0-57.398437-46.695313-104.09375-104.09375-104.09375-4.425781 0-8-3.578125-8-8 0-4.425781 3.574219-7.99999975 8-7.99999975 66.214844 0 120.09375 53.87109375 120.09375 120.09374975 0 66.226563-53.878906 120.097656-120.09375 120.097656zm0 0"/><path d="m239.984375 16.003906h-119.886719c-4.425781 0-8-3.578125-8-8 0-4.425781 3.574219-7.99999975 8-7.99999975h119.886719c4.421875 0 8 3.57421875 8 7.99999975 0 4.421875-3.578125 8-8 8zm0 0"/><path d="m239.984375 40.097656h-119.886719c-4.425781 0-8-3.574218-8-8 0-4.421875 3.574219-8 8-8h119.886719c4.421875 0 8 3.578125 8 8 0 4.425782-3.578125 8-8 8zm0 0"/><path d="m239.984375 64.195312h-119.886719c-4.425781 0-8-3.574218-8-8 0-4.425781 3.574219-8 8-8h119.886719c4.421875 0 8 3.574219 8 8 0 4.425782-3.578125 8-8 8zm0 0"/><path d="m239.984375 88.292969h-119.886719c-4.425781 0-8-3.578125-8-8 0-4.425781 3.574219-8 8-8h119.886719c4.421875 0 8 3.574219 8 8 0 4.421875-3.578125 8-8 8zm0 0"/><path d="m239.984375 112.378906h-119.886719c-4.425781 0-8-3.574218-8-8 0-4.421875 3.574219-8 8-8h119.886719c4.421875 0 8 3.578125 8 8 0 4.425782-3.578125 8-8 8zm0 0"/><path d="m239.984375 143.964844h-119.886719c-4.425781 0-8-3.578125-8-8 0-4.425782 3.574219-8 8-8h119.886719c4.421875 0 8 3.574218 8 8 0 4.421875-3.578125 8-8 8zm0 0"/><path d="m239.984375 168.050781h-119.886719c-4.425781 0-8-3.574219-8-8 0-4.421875 3.574219-8 8-8h119.886719c4.421875 0 8 3.578125 8 8 0 4.425781-3.578125 8-8 8zm0 0"/><path d="m239.984375 192.148438h-119.886719c-4.425781 0-8-3.578126-8-8 0-4.425782 3.574219-8 8-8h119.886719c4.421875 0 8 3.574218 8 8 0 4.421874-3.578125 8-8 8zm0 0"/><path d="m239.984375 216.242188h-119.886719c-4.425781 0-8-3.574219-8-8 0-4.421876 3.574219-8 8-8h119.886719c4.421875 0 8 3.578124 8 8 0 4.425781-3.578125 8-8 8zm0 0"/><path d="m239.984375 240.332031h-119.886719c-4.425781 0-8-3.578125-8-8 0-4.425781 3.574219-8 8-8h119.886719c4.421875 0 8 3.574219 8 8 0 4.421875-3.578125 8-8 8zm0 0"/><path d="m120.097656 368.148438c-66.226562 0-120.097656-53.875-120.097656-120.097657 0-4.421875 3.574219-8 8-8s8 3.578125 8 8c0 57.402344 46.695312 104.097657 104.097656 104.097657 4.421875 0 8 3.574218 8 8 0 4.421874-3.585937 8-8 8zm0 0"/><path d="m239.984375 368.292969h-119.886719c-4.425781 0-8-3.578125-8-8 0-4.425781 3.574219-8 8-8h119.886719c4.421875 0 8 3.574219 8 8 0 4.421875-3.578125 8-8 8zm0 0"/><path d="m8 256.050781c-4.425781 0-8-3.574219-8-8v-127.953125c0-4.421875 3.574219-8 8-8s8 3.578125 8 8v127.953125c0 4.425781-3.574219 8-8 8zm0 0"/><path d="m504 368.292969h-264.015625c-4.425781 0-8-3.578125-8-8 0-4.425781 3.574219-8 8-8h264.015625c4.425781 0 8 3.574219 8 8 0 4.421875-3.574219 8-8 8zm0 0"/><path d="m504 240.332031h-264.015625c-4.425781 0-8-3.578125-8-8 0-4.425781 3.574219-8 8-8h264.015625c4.425781 0 8 3.574219 8 8 0 4.421875-3.574219 8-8 8zm0 0"/><path d="m352.078125 240.332031c-4.421875 0-8-3.578125-8-8v-112.234375c0-4.421875 3.578125-8 8-8 4.425781 0 8 3.578125 8 8v112.234375c0 4.421875-3.574219 8-8 8zm0 0"/><path d="m504.007812 368.292969c-2.945312 0-5.777343-1.625-7.167968-4.441407l-16.015625-32.183593c-1.121094-2.25-1.121094-4.898438.007812-7.144531l14.222657-28.425782-14.222657-28.421875c-1.136719-2.257812-1.128906-4.921875.015625-7.175781l16.015625-31.769531c1.984375-3.933594 6.785157-5.550781 10.746094-3.535157 3.941406 1.984376 5.527344 6.800782 3.535156 10.742188l-14.199219 28.175781 14.214844 28.410157c1.128906 2.246093 1.128906 4.902343 0 7.160156l-14.230468 28.429687 14.238281 28.617188c1.96875 3.953125.351562 8.761719-3.601563 10.730469-1.140625.558593-2.367187.832031-3.558594.832031zm0 0"/></g></svg>