<svg height="368pt" viewBox="0 0 368 368" width="368pt" xmlns="http://www.w3.org/2000/svg"><path d="m260.71875 260.71875c.5625-2.320312 1.042969-4.640625 1.441406-6.957031.320313-2 .640625-4.082031.878906-6.160157.082032-.480468.160157-.960937.160157-1.441406.242187-2.238281.480469-4.480468.5625-6.800781.160156-2.480469.238281-4.878906.238281-7.359375 0-70.71875-57.28125-128-128-128-2.480469 0-4.878906.078125-7.359375.238281-2.320313.082031-4.5625.320313-6.800781.5625-.480469 0-.960938.078125-1.441406.160157-2.078126.238281-4.160157.558593-6.160157.878906-2.316406.398437-4.636719.878906-6.957031 1.441406-56.882812 12.957031-99.28125 63.839844-99.28125 124.71875 0 70.71875 57.28125 128 128 128 60.878906 0 111.761719-42.398438 124.71875-99.28125zm-76.71875-44.71875c-13.28125 0-24-10.71875-24-24s10.71875-24 24-24 24 10.71875 24 24-10.71875 24-24 24zm0 0" fill="#cce4ff"/><g fill="#007aff"><path d="m232 0c-62.167969 0-115.390625 41.222656-131.238281 100.761719-59.546875 15.804687-100.761719 69.015625-100.761719 131.238281 0 74.992188 61.007812 136 136 136 62.214844 0 115.433594-41.207031 131.238281-100.761719 59.539063-15.847656 100.761719-69.070312 100.761719-131.238281 0-74.992188-61.007812-136-136-136zm23.769531 239.097656c-.074219 2.03125-.289062 4-.496093 5.964844l-.027344.257812c0 .03125.019531.0625.011718.09375-.019531.160157-.027343.265626-.042968.433594 0 .007813-.125.824219-.125.832032-.226563 1.96875-.53125 3.929687-.824219 5.734374-.371094 2.144532-.816406 4.28125-1.328125 6.433594v.03125c-.007812.023438-.015625.050782-.027344.082032-12.46875 54.773437-60.550781 93.039062-116.910156 93.039062-66.167969 0-120-53.832031-120-120 0-56.359375 38.265625-104.441406 93.054688-116.921875.023437-.007813.042968-.015625.066406-.015625.015625 0 .03125 0 .046875-.007812 1.945312-.460938 3.871093-.855469 5.742187-1.191407.355469-.0625.664063-.121093 1.035156-.183593 1.757813-.28125 3.558594-.558594 5.382813-.777344.070313-.007813.121094-.054688.191406-.0625.121094-.015625.199219-.03125.320313-.046875.28125 0 .824218-.039063 1.097656-.074219 1.964844-.199219 3.933594-.421875 6.246094-.503906 2.222656-.144532 4.527344-.214844 6.816406-.214844 66.167969 0 120 53.832031 120 120 0 2.289062-.070312 4.59375-.230469 7.097656zm15.085938 10.40625c.03125-.238281.082031-.519531.105469-.75.144531-.867187.238281-1.730468.222656-2.027344.242187-2.328124.488281-4.671874.550781-6.824218.175781-2.574219.265625-5.238282.265625-7.902344 0-74.992188-61.007812-136-136-136-2.664062 0-5.328125.089844-7.625.246094-2.335938.082031-4.589844.296875-7.070312.5625-.089844 0-.152344.023437-.242188.023437-.015625 0-.03125 0-.054688.007813-.558593.039062-1.105468.089844-1.535156.167968-.328125.039063-.648437.097657-.976562.136719 16.351562-48.320312 61.375-81.144531 113.503906-81.144531 66.167969 0 120 53.832031 120 120 0 52.121094-32.824219 97.144531-81.144531 113.503906zm0 0"/><path d="m232 48c-4.425781 0-8 3.574219-8 8s3.574219 8 8 8c39.703125 0 72 32.296875 72 72 0 4.425781 3.574219 8 8 8s8-3.574219 8-8c0-48.519531-39.480469-88-88-88zm0 0"/><path d="m184 160c-17.648438 0-32 14.351562-32 32s14.351562 32 32 32 32-14.351562 32-32-14.351562-32-32-32zm0 48c-8.824219 0-16-7.175781-16-16s7.175781-16 16-16 16 7.175781 16 16-7.175781 16-16 16zm0 0"/></g></svg>