<?xml version="1.0" encoding="UTF-8"?>
<svg xmlns="http://www.w3.org/2000/svg" xmlns:xlink="http://www.w3.org/1999/xlink" width="512" height="512" viewBox="0 0 60 60" version="1.1"><!-- Generator: Sketch 51.3 (57544) - http://www.bohemiancoding.com/sketch --><title>093 - Staples</title><desc>Created with Sketch.</desc><defs/><g id="Page-1" stroke="none" stroke-width="1" fill="none" fill-rule="evenodd"><g id="093---Staples" fill-rule="nonzero"><path d="M58.45,43.32 C58.0875016,43.6849408 57.5943801,43.890169 57.08,43.890169 C56.5656199,43.890169 56.0724984,43.6849408 55.71,43.32 L53.82,41.44 L47.46,35.08 L35.1,47.44 L43.34,55.68 C43.8312402,56.1694539 44.0240443,56.8838014 43.8457849,57.5539548 C43.6675255,58.2241082 43.1452845,58.7482553 42.4757849,58.9289548 C41.8062854,59.1096544 41.0912402,58.9194539 40.6,58.43 L30.98,48.81 C30.6150592,48.4475016 30.409831,47.9543801 30.409831,47.44 C30.409831,46.9256199 30.6150592,46.4324984 30.98,46.07 L46.09,30.96 C46.7982087,30.2514044 47.9297583,30.1993791 48.7,30.84 C48.7514434,30.8740648 48.7984682,30.9143718 48.84,30.96 L58.45,40.57 C58.8150514,40.9344716 59.0201839,41.4291492 59.0201839,41.945 C59.0201839,42.4608508 58.8150514,42.9555284 58.45,43.32 Z" id="Shape" fill="#CAD9FC"/><path d="M58.45,13.93 C58.0875016,14.2949408 57.5943801,14.500169 57.08,14.500169 C56.5656199,14.500169 56.0724984,14.2949408 55.71,13.93 L53.82,12.05 L47.46,5.69 L47.45,5.7 L35.1,18.05 L43.34,26.3 C44.0966301,27.0566301 44.0966301,28.2833699 43.34,29.04 C42.5833699,29.7966301 41.3566301,29.7966301 40.6,29.04 L38.71,27.16 L30.98,19.43 C30.6149486,19.0655284 30.4098161,18.5708508 30.4098161,18.055 C30.4098161,17.5391492 30.6149486,17.0444716 30.98,16.68 L46.09,1.57 C46.7942261,0.86138985 47.9234966,0.809269674 48.69,1.45 C48.7447009,1.48374137 48.7950741,1.52403996 48.84,1.57 L58.45,11.19 C58.8149408,11.5524984 59.020169,12.0456199 59.020169,12.56 C59.020169,13.0743801 58.8149408,13.5675016 58.45,13.93 Z" id="Shape" fill="#CAD9FC"/><path d="M56.43,41.32 C55.7217913,42.0285956 54.5902417,42.0806209 53.82,41.44 C53.7685566,41.4059352 53.7215318,41.3656282 53.68,41.32 L47.45,35.09 L48,35 L35,47 L41.32,53.68 C41.6850514,54.0444716 41.8901839,54.5391492 41.8901839,55.055 C41.8901839,55.5708508 41.6850514,56.0655284 41.32,56.43 C40.6201517,57.1365073 39.4970761,57.1928779 38.73,56.56 L30.98,48.81 C30.6150592,48.4475016 30.409831,47.9543801 30.409831,47.44 C30.409831,46.9256199 30.6150592,46.4324984 30.98,46.07 L46.09,30.96 C46.7982087,30.2514044 47.9297583,30.1993791 48.7,30.84 L56.43,38.57 C56.7950514,38.9344716 57.0001839,39.4291492 57.0001839,39.945 C57.0001839,40.4608508 56.7950514,40.9555284 56.43,41.32 Z" id="Shape" fill="#E8EDFC"/><path d="M56.43,11.93 C55.7217913,12.6385956 54.5902417,12.6906209 53.82,12.05 C53.7685566,12.0159352 53.7215318,11.9756282 53.68,11.93 L47,6 L35.1,18.05 L41.32,24.3 C42.0521773,25.032561 42.0789464,26.2113493 41.3807781,26.9763919 C40.6826098,27.7414345 39.5062941,27.8223028 38.71,27.16 L30.98,19.43 C30.6149486,19.0655284 30.4098161,18.5708508 30.4098161,18.055 C30.4098161,17.5391492 30.6149486,17.0444716 30.98,16.68 L46.09,1.57 C46.7942261,0.86138985 47.9234966,0.809269674 48.69,1.45 L56.43,9.19 C56.7949408,9.55249838 57.000169,10.0456199 57.000169,10.56 C57.000169,11.0743801 56.7949408,11.5675016 56.43,11.93 Z" id="Shape" fill="#E8EDFC"/><path d="M1,8 L1,3 C1,1.8954305 1.8954305,1 3,1 L25,1 C26.1045695,1 27,1.8954305 27,3 L27,8" id="Shape" fill="#CAD9FC"/><path d="M1,12 L1,7 C1,5.8954305 1.8954305,5 3,5 L25,5 C26.1045695,5 27,5.8954305 27,7 L27,12" id="Shape" fill="#CAD9FC"/><path d="M1,16 L1,11 C1,9.8954305 1.8954305,9 3,9 L25,9 C26.1045695,9 27,9.8954305 27,11 L27,16" id="Shape" fill="#CAD9FC"/><path d="M1,20 L1,15 C1,13.8954305 1.8954305,13 3,13 L25,13 C26.1045695,13 27,13.8954305 27,15 L27,20" id="Shape" fill="#CAD9FC"/><path d="M1,24 L1,19 C1,17.8954305 1.8954305,17 3,17 L25,17 C26.1045695,17 27,17.8954305 27,19 L27,24" id="Shape" fill="#CAD9FC"/><path d="M1,28 L1,23 C1,21.8954305 1.8954305,21 3,21 L25,21 C26.1045695,21 27,21.8954305 27,23 L27,28" id="Shape" fill="#CAD9FC"/><path d="M1,32 L1,27 C1,25.8954305 1.8954305,25 3,25 L25,25 C26.1045695,25 27,25.8954305 27,27 L27,32" id="Shape" fill="#E8EDFC"/><path d="M1,36 L1,31 C1,29.8954305 1.8954305,29 3,29 L25,29 C26.1045695,29 27,29.8954305 27,31 L27,36" id="Shape" fill="#E8EDFC"/><path d="M1,40 L1,35 C1,33.8954305 1.8954305,33 3,33 L25,33 C26.1045695,33 27,33.8954305 27,35 L27,40" id="Shape" fill="#E8EDFC"/><path d="M1,44 L1,39 C1,37.8954305 1.8954305,37 3,37 L25,37 C26.1045695,37 27,37.8954305 27,39 L27,44" id="Shape" fill="#E8EDFC"/><path d="M25,59 C23.8954305,59 23,58.1045695 23,57 L23,45 L5,45 L5,57 C5,58.1045695 4.1045695,59 3,59 C1.8954305,59 1,58.1045695 1,57 L1,43 C1,41.8954305 1.8954305,41 3,41 L25,41 C26.1045695,41 27,41.8954305 27,43 L27,57 C27,58.1045695 26.1045695,59 25,59 Z" id="Shape" fill="#E8EDFC"/><rect id="Rectangle-path" fill="#FFFFFF" x="1" y="1.417" width="3.381" height="57.026"/><polygon id="Shape" fill="#FFFFFF" points="5 44 18 44 23 44 23 46 18 46 5 46"/><path d="M10,45 C10,44.4477153 9.55228475,44 9,44 L5,44 L5,46 L9,46 C9.55228475,46 10,45.5522847 10,45 Z" id="Shape" fill="#428DFF"/><path d="M23,46 L23,44 L17,44 C16.4477153,44 16,44.4477153 16,45 C16,45.5522847 16.4477153,46 17,46 L23,46 Z" id="Shape" fill="#428DFF"/><path d="M13,44 C12.7352731,44.0038804 12.481743,44.107435 12.29,44.29 L12.17,44.44 C12.1321227,44.4957271 12.1018554,44.5562619 12.08,44.62 C12.0511123,44.6766624 12.0308873,44.7373375 12.02,44.8 C12.0088692,44.8661445 12.0021875,44.9329612 12,45 C12.0038804,45.2647269 12.107435,45.518257 12.29,45.71 C12.3856071,45.8003968 12.4976187,45.871677 12.62,45.92 C12.9929737,46.0708766 13.4197788,45.9886481 13.71,45.71 C13.8003968,45.6143929 13.871677,45.5023813 13.92,45.38 C13.971241,45.2597777 13.99842,45.1306773 14,45 C14.0027011,44.7339647 13.8982118,44.4780384 13.7100867,44.2899133 C13.5219616,44.1017882 13.2660353,43.9972989 13,44 Z" id="Shape" fill="#428DFF"/><path d="M25,60 C23.3431458,60 22,58.6568542 22,57 L22,45 C22,44.4477153 22.4477153,44 23,44 C23.5522847,44 24,44.4477153 24,45 L24,57 C24,57.5522847 24.4477153,58 25,58 C25.5522847,58 26,57.5522847 26,57 L26,43 C26,42.4477153 25.5522847,42 25,42 L3,42 C2.44771525,42 2,42.4477153 2,43 L2,57 C2,57.5522847 2.44771525,58 3,58 C3.55228475,58 4,57.5522847 4,57 L4,45 C4,44.4477153 4.44771525,44 5,44 C5.55228475,44 6,44.4477153 6,45 L6,57 C6,58.6568542 4.65685425,60 3,60 C1.34314575,60 2.02906125e-16,58.6568542 0,57 L0,43 C-2.02906125e-16,41.3431458 1.34314575,40 3,40 L25,40 C26.6568542,40 28,41.3431458 28,43 L28,57 C28,58.6568542 26.6568542,60 25,60 Z" id="Shape" fill="#428DFF"/><path d="M41.969,60 C41.1888207,60.0016906 40.4401842,59.6921582 39.889,59.14 L30.272,49.523 C29.125576,48.372894 29.125576,46.512106 30.272,45.362 L45.384,30.248 C46.5347853,29.103221 48.3942147,29.103221 49.545,30.248 L59.162,39.866 C59.9329396,40.6037257 60.2441729,41.7009542 59.9754055,42.7335971 C59.706638,43.7662399 58.8999777,44.5725126 57.8672058,44.8407837 C56.8344339,45.1090548 55.7373551,44.7972941 55,44.026 L47.464,36.491 L36.515,47.44 L44.05,54.977 C44.8930193,55.8180735 45.1456436,57.0845056 44.6898553,58.1846615 C44.234067,59.2848175 43.1598332,60.0015399 41.969,60 Z M47.469,31.389 C47.2184924,31.3885189 46.9781104,31.4878384 46.801,31.665 L31.686,46.774 C31.3186881,47.142423 31.3186881,47.738577 31.686,48.107 L41.3,57.724 C41.5355902,57.9742087 41.8886444,58.0764403 42.2214766,57.9908258 C42.5543089,57.9052113 42.8142113,57.6453089 42.8998258,57.3124766 C42.9854403,56.9796444 42.8832087,56.6265902 42.633,56.391 L34.391,48.147 C34.0006181,47.7565001 34.0006181,47.1234999 34.391,46.733 L46.757,34.37 C47.1474999,33.9796181 47.7805001,33.9796181 48.171,34.37 L56.414,42.612 C56.6511037,42.855263 57.0007214,42.9522002 57.3292393,42.865765 C57.6577572,42.7793298 57.9143971,42.5228824 58.0010786,42.1944293 C58.0877601,41.8659763 57.9910851,41.5162861 57.748,41.279 L48.131,31.662 C47.9543402,31.4855093 47.7147148,31.3865649 47.465,31.387 L47.469,31.389 Z" id="Shape" fill="#428DFF"/><path d="M41.969,30.611 C41.1892391,30.6125576 40.4408875,30.3038626 39.889,29.753 L30.272,20.135 C29.125576,18.984894 29.125576,17.124106 30.272,15.974 L45.384,0.862 C46.534106,-0.284423984 48.394894,-0.284423984 49.545,0.862 L59.162,10.479 C59.9252063,11.218394 60.2305506,12.3117944 59.9608642,13.3396352 C59.6911778,14.3674759 58.8883486,15.1701122 57.8604431,15.4395516 C56.8325376,15.708991 55.7392106,15.403384 55,14.64 L47.464,7.1 L36.515,18.055 L44.05,25.59 C44.892615,26.4309061 45.1449755,27.6969437 44.6891871,28.7966619 C44.2333987,29.8963801 43.1594286,30.6127076 41.969,30.611 Z M47.464,2 C47.2143287,1.99978486 46.9747842,2.09869588 46.798,2.275 L31.686,17.388 C31.3186881,17.756423 31.3186881,18.352577 31.686,18.721 L41.3,28.338 C41.5390107,28.5766534 41.8871857,28.6696676 42.213371,28.582005 C42.5395563,28.4943424 42.7941964,28.239321 42.881371,27.913005 C42.9685456,27.5866889 42.8750107,27.2386534 42.636,27 L34.394,18.758 C34.0036181,18.3675001 34.0036181,17.7344999 34.394,17.344 L46.757,4.983 C47.1474999,4.59261806 47.7805001,4.59261806 48.171,4.983 L56.414,13.226 C56.6511037,13.469263 57.0007214,13.5662002 57.3292393,13.479765 C57.6577572,13.3933298 57.9143971,13.1368824 58.0010786,12.8084293 C58.0877601,12.4799763 57.9910851,12.1302861 57.748,11.893 L48.131,2.276 C47.9540721,2.09917731 47.7141394,1.9998948 47.464,2 Z" id="Shape" fill="#428DFF"/><path d="M27,45 C26.4477153,45 26,44.5522847 26,44 L26,39 C26,38.4477153 25.5522847,38 25,38 L3,38 C2.44771525,38 2,38.4477153 2,39 L2,44 C2,44.5522847 1.55228475,45 1,45 C0.44771525,45 6.76353751e-17,44.5522847 0,44 L0,39 C-2.02906125e-16,37.3431458 1.34314575,36 3,36 L25,36 C26.6568542,36 28,37.3431458 28,39 L28,44 C28,44.5522847 27.5522847,45 27,45 Z" id="Shape" fill="#428DFF"/><path d="M27,41 C26.4477153,41 26,40.5522847 26,40 L26,35 C26,34.4477153 25.5522847,34 25,34 L3,34 C2.44771525,34 2,34.4477153 2,35 L2,40 C2,40.5522847 1.55228475,41 1,41 C0.44771525,41 6.76353751e-17,40.5522847 0,40 L0,35 C-2.02906125e-16,33.3431458 1.34314575,32 3,32 L25,32 C26.6568542,32 28,33.3431458 28,35 L28,40 C28,40.5522847 27.5522847,41 27,41 Z" id="Shape" fill="#428DFF"/><path d="M27,37 C26.4477153,37 26,36.5522847 26,36 L26,31 C26,30.4477153 25.5522847,30 25,30 L3,30 C2.44771525,30 2,30.4477153 2,31 L2,36 C2,36.5522847 1.55228475,37 1,37 C0.44771525,37 6.76353751e-17,36.5522847 0,36 L0,31 C-2.02906125e-16,29.3431458 1.34314575,28 3,28 L25,28 C26.6568542,28 28,29.3431458 28,31 L28,36 C28,36.5522847 27.5522847,37 27,37 Z" id="Shape" fill="#428DFF"/><path d="M27,33 C26.4477153,33 26,32.5522847 26,32 L26,27 C26,26.4477153 25.5522847,26 25,26 L3,26 C2.44771525,26 2,26.4477153 2,27 L2,32 C2,32.5522847 1.55228475,33 1,33 C0.44771525,33 6.76353751e-17,32.5522847 0,32 L0,27 C-2.02906125e-16,25.3431458 1.34314575,24 3,24 L25,24 C26.6568542,24 28,25.3431458 28,27 L28,32 C28,32.5522847 27.5522847,33 27,33 Z" id="Shape" fill="#428DFF"/><path d="M27,29 C26.4477153,29 26,28.5522847 26,28 L26,23 C26,22.4477153 25.5522847,22 25,22 L3,22 C2.44771525,22 2,22.4477153 2,23 L2,28 C2,28.5522847 1.55228475,29 1,29 C0.44771525,29 6.76353751e-17,28.5522847 0,28 L0,23 C-2.02906125e-16,21.3431458 1.34314575,20 3,20 L25,20 C26.6568542,20 28,21.3431458 28,23 L28,28 C28,28.5522847 27.5522847,29 27,29 Z" id="Shape" fill="#428DFF"/><path d="M27,25 C26.4477153,25 26,24.5522847 26,24 L26,19 C26,18.4477153 25.5522847,18 25,18 L3,18 C2.44771525,18 2,18.4477153 2,19 L2,24 C2,24.5522847 1.55228475,25 1,25 C0.44771525,25 6.76353751e-17,24.5522847 0,24 L0,19 C-2.02906125e-16,17.3431458 1.34314575,16 3,16 L25,16 C26.6568542,16 28,17.3431458 28,19 L28,24 C28,24.5522847 27.5522847,25 27,25 Z" id="Shape" fill="#428DFF"/><path d="M27,21 C26.4477153,21 26,20.5522847 26,20 L26,15 C26,14.4477153 25.5522847,14 25,14 L3,14 C2.44771525,14 2,14.4477153 2,15 L2,20 C2,20.5522847 1.55228475,21 1,21 C0.44771525,21 6.76353751e-17,20.5522847 0,20 L0,15 C-2.02906125e-16,13.3431458 1.34314575,12 3,12 L25,12 C26.6568542,12 28,13.3431458 28,15 L28,20 C28,20.5522847 27.5522847,21 27,21 Z" id="Shape" fill="#428DFF"/><path d="M27,17 C26.4477153,17 26,16.5522847 26,16 L26,11 C26,10.4477153 25.5522847,10 25,10 L3,10 C2.44771525,10 2,10.4477153 2,11 L2,16 C2,16.5522847 1.55228475,17 1,17 C0.44771525,17 6.76353751e-17,16.5522847 0,16 L0,11 C-2.02906125e-16,9.34314575 1.34314575,8 3,8 L25,8 C26.6568542,8 28,9.34314575 28,11 L28,16 C28,16.5522847 27.5522847,17 27,17 Z" id="Shape" fill="#428DFF"/><path d="M27,13 C26.4477153,13 26,12.5522847 26,12 L26,7 C26,6.44771525 25.5522847,6 25,6 L3,6 C2.44771525,6 2,6.44771525 2,7 L2,12 C2,12.5522847 1.55228475,13 1,13 C0.44771525,13 6.76353751e-17,12.5522847 0,12 L0,7 C-2.02906125e-16,5.34314575 1.34314575,4 3,4 L25,4 C26.6568542,4 28,5.34314575 28,7 L28,12 C28,12.5522847 27.5522847,13 27,13 Z" id="Shape" fill="#428DFF"/><path d="M27,9 C26.4477153,9 26,8.55228475 26,8 L26,3 C26,2.44771525 25.5522847,2 25,2 L3,2 C2.44771525,2 2,2.44771525 2,3 L2,8 C2,8.55228475 1.55228475,9 1,9 C0.44771525,9 6.76353751e-17,8.55228475 0,8 L0,3 C-2.02906125e-16,1.34314575 1.34314575,3.04359188e-16 3,0 L25,0 C26.6568542,1.01453063e-16 28,1.34314575 28,3 L28,8 C28,8.55228475 27.5522847,9 27,9 Z" id="Shape" fill="#428DFF"/></g></g></svg>
