<?xml version="1.0" encoding="iso-8859-1"?>
<!-- Generator: Adobe Illustrator 19.0.0, SVG Export Plug-In . SVG Version: 6.00 Build 0)  -->
<svg version="1.1" id="Layer_1" xmlns="http://www.w3.org/2000/svg" xmlns:xlink="http://www.w3.org/1999/xlink" x="0px" y="0px"
	 viewBox="0 0 512 512" style="enable-background:new 0 0 512 512;" xml:space="preserve">
<g>
	<path id="SVGCleanerId_0" style="fill:#6B5B4B;" d="M474.899,8.828v5.032L467.484,0C471.8,0.697,474.961,4.458,474.899,8.828z"/>
</g>
<g>
	<path style="fill:#F7B563;" d="M5.448,374.643L5.448,374.643c-0.494,0.185-0.971,0.415-1.412,0.706L5.448,374.643z"/>
	<path style="fill:#F7B563;" d="M5.713,374.555c0.318-0.079,0.653-0.079,0.971,0H5.713z"/>
	<g>
		<path id="SVGCleanerId_0_1_" style="fill:#F7B563;" d="M474.899,8.828v5.032L467.484,0C471.8,0.697,474.961,4.458,474.899,8.828z"
			/>
	</g>
</g>
<path style="fill:#F7E6A1;" d="M20.808,375.526l-10.328-1.501c-2.154-0.335-4.352,0.132-6.179,1.324
	c1.81-1.218,4.017-1.721,6.179-1.412L20.808,375.526z"/>
<path style="fill:#6B5B4B;" d="M511.622,58.527v444.646c0,4.873-3.955,8.828-8.828,8.828H112.791
	c-2.216,0.018-4.361-0.803-6.003-2.295l-45.374-41.843v-44.138H34.932c-18.979-4.034-33.006-20.109-34.428-39.459
	c-0.274-1.774,0.009-3.593,0.794-5.208c0.079-0.327,0.23-0.627,0.441-0.883c0.609-1.139,1.492-2.11,2.56-2.825
	c0.441-0.291,0.918-0.521,1.412-0.706h0.971h0.53h0.53c0.9-0.177,1.836-0.177,2.737,0l10.328,1.501
	c6.621-15.448,109.55-17.479,120.055-76.006l-44.138-256c0-4.873,3.955-8.828,8.828-8.828L466.071,0h1.412l7.239,13.859V8.828
	c0.071-4.317-2.993-8.051-7.239-8.828l0,0l8.828,1.589l34.074,52.083C511.26,55.137,511.692,56.823,511.622,58.527z"/>
<g>
	<path style="fill:#F7E6A1;" d="M5.713,374.555c0.318-0.079,0.653-0.079,0.971,0H5.713c-0.494,0.185-0.971,0.415-1.412,0.706
		l1.148-0.706H5.713z"/>
	<path style="fill:#F7E6A1;" d="M10.479,373.937l10.328,1.589l-10.328-1.501c-0.9-0.177-1.836-0.177-2.737,0
		C8.643,373.813,9.57,373.786,10.479,373.937z"/>
	<g>
		<path id="SVGCleanerId_0_2_" style="fill:#F7E6A1;" d="M474.899,8.828v5.032L467.484,0C471.8,0.697,474.961,4.458,474.899,8.828z"
			/>
	</g>
</g>
<path style="fill:#F7B563;" d="M474.899,8.828v5.473l-7.415,444.734c0,4.873-3.955,8.828-8.828,8.828H61.415v-44.138H34.932
	c-18.979-4.034-33.006-20.109-34.428-39.459c-0.591-3.434,0.9-6.894,3.796-8.828c1.827-1.192,4.025-1.66,6.179-1.324l10.328,1.501
	c6.621-14.919,109.55-16.949,120.055-75.476l-44.138-256c0-4.873,3.955-8.828,8.828-8.828L466.071,0
	C470.944,0,474.899,3.955,474.899,8.828z"/>
<path style="fill:#F7E6A1;" d="M466.071,0H61.415c-4.873,0-8.828,3.955-8.828,8.828v256c-6.215,38.02-16.878,75.176-31.779,110.698
	l-10.328-1.501c-4.82-0.706-9.304,2.631-10.01,7.459c-0.132,0.927-0.124,1.863,0.035,2.781
	c1.589,19.279,15.545,35.266,34.428,39.459h397.241l42.637-409.247v-5.65C474.811,3.99,470.918,0.044,466.071,0z"/>
<path style="fill:#EFCE4A;" d="M432.173,423.724H34.932c-18.882-4.193-32.839-20.18-34.428-39.459
	c-0.839-4.802,2.375-9.375,7.177-10.214c0.953-0.168,1.933-0.177,2.887-0.026l10.328,1.501l33.633,5.12L432.173,423.724z"/>
<g>
</g>
<g>
</g>
<g>
</g>
<g>
</g>
<g>
</g>
<g>
</g>
<g>
</g>
<g>
</g>
<g>
</g>
<g>
</g>
<g>
</g>
<g>
</g>
<g>
</g>
<g>
</g>
<g>
</g>
</svg>
