<svg height="512pt" viewBox="-55 0 511 512" width="512pt" xmlns="http://www.w3.org/2000/svg"><path d="m269.21875 209h-68.332031l-10.667969 68.332031 10.667969 68.332031h68.332031zm0 0" fill="#903f02"/><path d="m132.550781 209h68.335938v136.664062h-68.335938zm0 0" fill="#b14f03"/><path d="m370.371094 443.667969h-169.484375l-10.667969 36.332031 10.667969 32h169.484375zm0 0" fill="#c5d3dd"/><path d="m31.398438 443.667969h169.488281v68.332031h-169.488281zm0 0" fill="#d9e7ec"/><path d="m401.269531 333.691406h-200.382812l-10.667969 60.972656 10.667969 58.539063h200.382812zm0 0" fill="#c26b00"/><path d="m.5 333.691406h200.386719v119.511719h-200.386719zm0 0" fill="#eb8d00"/><path d="m265.871094 3.628906-4.21875-3.628906h-60.765625l-10.667969 128 10.667969 87.082031h68.621093c26.613282-24.96875 42.378907-63.46875 42.378907-104.082031 0-42.4375-17.203125-82.574219-46.015625-107.371094zm0 0" fill="#c26b00"/><path d="m140.117188 0-4.21875 3.628906c-28.8125 24.796875-46.011719 64.933594-46.011719 107.371094 0 40.613281 15.761719 79.113281 42.375 104.082031h68.625v-215.082031zm0 0" fill="#eb8d00"/></svg>