<?xml version="1.0" encoding="iso-8859-1"?>
<!-- Generator: Adobe Illustrator 19.0.0, SVG Export Plug-In . SVG Version: 6.00 Build 0)  -->
<svg version="1.1" id="Layer_1" xmlns="http://www.w3.org/2000/svg" xmlns:xlink="http://www.w3.org/1999/xlink" x="0px" y="0px"
	 viewBox="0 0 511.996 511.996" style="enable-background:new 0 0 511.996 511.996;" xml:space="preserve">
<path style="fill:#A60916;" d="M255.983,273.039h-51.194l-37.969,60.75c-21.228-3.311-42.918,1.502-60.75,13.481
	c-23.609,15.836-37.781,42.389-37.798,70.818c-0.085,11.741,2.304,23.37,6.997,34.129c18.677,43.267,68.882,63.199,112.149,44.53
	c19.624-8.473,35.349-23.993,44.078-43.506c4.974-11.049,7.508-23.037,7.423-35.153c0.009-4.258-0.333-8.507-1.024-12.713
	L255.983,273.039z M153.595,366.895c11.689-0.06,23.029,3.959,32.082,11.348c22.056,17.688,25.597,49.914,7.901,71.97
	c-17.696,22.056-49.914,25.597-71.97,7.901c-8.242-6.613-14.24-15.614-17.167-25.776c-1.382-4.625-2.065-9.428-2.048-14.249
	C102.401,389.813,125.319,366.895,153.595,366.895z"/>
<path style="fill:#C90006;" d="M235.42,273.039h-30.631l-37.969,60.75c-21.228-3.311-42.918,1.502-60.75,13.481
	c-23.609,15.836-37.781,42.389-37.798,70.818c-0.085,11.741,2.304,23.37,6.997,34.129c28.814,29.505,74.607,34.172,108.787,11.092
	l0,0c13.242-8.942,23.703-21.416,30.204-36.006c4.983-10.93,7.577-22.798,7.594-34.812c0.009-4.258-0.333-8.507-1.024-12.713
	L235.42,273.039z M182.264,460.751c-23.43,15.819-55.255,9.659-71.074-13.78c-2.978-4.411-5.256-9.266-6.741-14.377
	c-1.399-4.701-2.09-9.599-2.048-14.505c0-28.276,22.918-51.194,51.194-51.194c11.689-0.06,23.029,3.959,32.082,11.348
	c22.013,17.739,25.486,49.965,7.747,71.987c-3.191,3.959-6.945,7.415-11.16,10.264L182.264,460.751L182.264,460.751z"/>
<g>
	<polygon style="fill:#F0F0F0;" points="298.645,8.537 298.645,204.781 255.983,204.781 255.983,273.039 204.789,273.039 
		211.359,247.442 222.366,204.781 229.106,178.842 230.386,179.184 273.048,179.184 273.048,8.537 	"/>
	<polygon style="fill:#F0F0F0;" points="273.048,8.537 273.048,179.184 230.386,179.184 229.106,178.842 255.983,74.662 	"/>
</g>
<polygon style="fill:#FFFFFF;" points="273.048,8.537 273.048,179.184 230.386,179.184 229.106,178.842 255.983,74.662 "/>
<path style="fill:#A60916;" d="M419.633,358.363c-16.092-16.502-38.208-25.742-61.262-25.597c-4.428-0.009-8.848,0.333-13.225,1.024
	l-16.041-25.597l-21.928-35.153h-51.194l18.089,132.337c-0.691,4.206-1.032,8.456-1.024,12.713
	c-0.077,11.741,2.304,23.37,6.996,34.129v0.939c20.358,42.5,71.313,60.452,113.813,40.093c42.5-20.358,60.452-71.313,40.093-113.813
	C430.256,371.733,425.427,364.625,419.633,358.363z M358.371,366.895c11.689-0.06,23.029,3.959,32.082,11.348
	c22.056,17.688,25.597,49.914,7.901,71.97c-17.696,22.056-49.914,25.597-71.97,7.901c-8.242-6.613-14.24-15.614-17.167-25.776
	c-1.382-4.625-2.065-9.428-2.048-14.249C307.177,389.813,330.095,366.895,358.371,366.895z"/>
<path style="fill:#C90006;" d="M419.633,358.363c-16.092-16.502-38.208-25.742-61.262-25.597c-4.428-0.009-8.848,0.333-13.225,1.024
	l-16.041-25.597h-1.024l-21.928-35.153h-50.17l18.089,132.337c-0.691,4.206-1.032,8.456-1.024,12.713
	c-0.077,11.741,2.304,23.37,6.996,34.129c32.798,33.831,86.817,34.675,120.647,1.877c16.664-16.152,26.024-38.396,25.938-61.603
	C426.707,380.743,424.326,369.122,419.633,358.363z M358.371,469.283c-22.773-0.009-42.807-15.068-49.146-36.945
	c-1.382-4.625-2.065-9.428-2.048-14.249c0-28.276,22.918-51.194,51.194-51.194c11.689-0.06,23.029,3.959,32.082,11.348
	c22.005,17.756,25.452,49.982,7.705,71.987C388.448,462.261,373.823,469.257,358.371,469.283z"/>
<g>
	<polygon style="fill:#969392;" points="255.983,74.662 222.366,204.781 213.322,204.781 213.322,8.537 238.919,8.537 	"/>
	<polygon style="fill:#969392;" points="307.177,273.039 255.983,273.039 255.983,204.781 289.601,204.781 	"/>
</g>
<path d="M153.535,511.945c-0.009,0-0.009,0-0.026,0c-51.749-0.026-93.839-42.15-93.813-93.898
	c0.009-25.068,9.778-48.634,27.517-66.356c17.722-17.705,41.279-27.457,66.33-27.457c0.068-0.009,0.145,0,0.222,0
	c2.884,0,5.793,0.137,8.703,0.41l35.085-56.126c1.561-2.491,4.292-4.01,7.235-4.01h51.194c2.466,0,4.804,1.067,6.425,2.927
	c1.621,1.86,2.355,4.326,2.022,6.766L246.512,405.29c0.631,4.223,0.939,8.532,0.93,12.816c0.026,13.242-2.73,26.117-8.174,38.216
	C224.217,490.093,190.566,511.945,153.535,511.945z M153.57,341.298c-20.52,0-39.786,7.978-54.291,22.466
	c-14.514,14.496-22.508,33.78-22.517,54.283c-0.017,42.346,34.419,76.808,76.757,76.834c0,0,0.009,0,0.017,0
	c30.29,0,57.832-17.875,70.153-45.546c4.462-9.898,6.706-20.401,6.689-31.228c0.009-3.823-0.299-7.628-0.913-11.348
	c-0.137-0.845-0.154-1.689-0.034-2.543l16.766-122.644h-36.689l-35.46,56.731c-1.809,2.892-5.136,4.437-8.549,3.908
	c-3.933-0.614-7.875-0.964-11.894-0.913C153.595,341.298,153.578,341.298,153.57,341.298z M153.595,477.815
	c-32.935,0-59.726-26.8-59.726-59.726s26.792-59.726,59.726-59.726s59.726,26.8,59.726,59.726S186.53,477.815,153.595,477.815z
	 M153.595,375.427c-23.524,0-42.662,19.138-42.662,42.662s19.138,42.662,42.662,42.662s42.662-19.138,42.662-42.662
	S177.11,375.427,153.595,375.427z"/>
<path d="M255.983,281.572h-51.194c-4.71,0.154-8.652-3.549-8.797-8.259c-0.026-0.811,0.068-1.621,0.264-2.406L264.516,6.404
	c0.998-3.865,4.539-6.527,8.532-6.399h25.597c4.71,0,8.532,3.822,8.532,8.532v196.244c0,4.71-3.823,8.532-8.532,8.532h-34.129
	v59.726C264.516,277.749,260.693,281.572,255.983,281.572z M215.796,264.507h31.655v-59.726c0-4.71,3.822-8.532,8.532-8.532h34.129
	V17.069h-10.495L215.796,264.507z"/>
<path d="M358.44,511.996c-11.357,0-22.722-2.09-33.643-6.271c-23.404-8.985-41.919-26.536-52.124-49.436
	c-5.435-12.065-8.182-24.923-8.165-38.208c-0.009-4.266,0.307-8.566,0.93-12.79L247.519,274.2c-0.333-2.44,0.401-4.906,2.022-6.766
	c1.621-1.86,3.959-2.927,6.425-2.927h51.194c2.944,0,5.674,1.519,7.235,4.01l35.085,56.126c2.969-0.264,6.007-0.264,8.891-0.41
	c0.009,0,0.017,0,0.026,0c37.022,0,70.665,21.843,85.724,55.648c10.205,22.909,10.879,48.404,1.911,71.808
	c-8.985,23.404-26.536,41.919-49.436,52.116C384.386,509.266,371.417,511.996,358.44,511.996z M265.761,281.572l16.766,122.644
	c0.111,0.853,0.102,1.698-0.043,2.543c-0.606,3.729-0.913,7.526-0.904,11.314c-0.017,10.87,2.236,21.374,6.672,31.228
	c8.353,18.771,23.507,33.14,42.662,40.477c19.155,7.363,40.008,6.792,58.745-1.553c18.737-8.353,33.105-23.498,40.443-42.645
	c7.346-19.155,6.8-40.017-1.553-58.754c-12.321-27.662-39.855-45.537-70.144-45.537c-0.017,0-0.043,0-0.06,0
	c-3.78,0.137-7.961,0.299-11.894,0.913c-3.404,0.52-6.741-1.015-8.549-3.908l-35.469-56.732h-36.672V281.572z M358.363,477.815
	c-32.926,0-59.726-26.8-59.726-59.726s26.8-59.726,59.726-59.726s59.726,26.8,59.726,59.726S391.298,477.815,358.363,477.815z
	 M358.363,375.427c-23.524,0-42.662,19.138-42.662,42.662s19.138,42.662,42.662,42.662s42.662-19.138,42.662-42.662
	S381.886,375.427,358.363,375.427z"/>
<path d="M222.366,213.313h-9.044c-4.71,0-8.532-3.822-8.532-8.532V8.537c0-4.71,3.822-8.532,8.532-8.532h25.597
	c3.993-0.128,7.534,2.534,8.532,6.399l17.065,66.126c0.358,1.399,0.358,2.867,0,4.266l-34.129,130.118
	C229.431,210.591,226.163,213.202,222.366,213.313z M221.854,17.069v155.545l25.597-97.951l-15.102-57.593
	C232.349,17.069,221.854,17.069,221.854,17.069z"/>
<path d="M307.177,281.572h-51.194c-4.71,0-8.532-3.823-8.532-8.532v-68.259c0-4.71,3.822-8.532,8.532-8.532h33.617
	c3.993-0.128,7.534,2.534,8.532,6.399l17.577,68.259c1.177,4.565-1.561,9.215-6.126,10.401
	C308.798,281.503,307.988,281.597,307.177,281.572z M264.516,264.507h31.655l-13.14-51.194h-18.515L264.516,264.507L264.516,264.507
	z"/>
<g>
</g>
<g>
</g>
<g>
</g>
<g>
</g>
<g>
</g>
<g>
</g>
<g>
</g>
<g>
</g>
<g>
</g>
<g>
</g>
<g>
</g>
<g>
</g>
<g>
</g>
<g>
</g>
<g>
</g>
</svg>
