<svg id="Capa_1" enable-background="new 0 0 512 512" height="512" viewBox="0 0 512 512" width="512" xmlns="http://www.w3.org/2000/svg"><path d="m245 11c-49.419 0-95.412 14.646-133.9 39.814v410.372c38.488 25.168 84.481 39.814 133.9 39.814 135.31 0 245-109.69 245-245s-109.69-245-245-245z" fill="#6edb9a"/><path d="m512 340.213-5.922-13.477 5.922-24.563v-128.982-.002l-4.922-13.786 4.922-24.254v-49.75c0-19.433-15.81-35.244-35.244-35.244h-364.656c-2.098 1.357-4.165 2.757-6.217 4.176l-8.597 13.779-13.232 3.199c-2.693 2.349-5.339 4.751-7.926 7.213l29.102 318.98h371.527c19.433 0 35.244-15.81 35.244-35.244z" fill="#0052a9"/><path d="m460.494 395.204-27.227-27.227h-38.507c.488.724 1.047 1.415 1.688 2.056l27.469 27.469h38.428c-.522-.814-1.139-1.586-1.851-2.298z" fill="#e25ca5"/><path d="m259.407 79.68h37.174c-.669-1.753-1.699-3.399-3.112-4.812l-24.713-24.713h-38.874z" fill="#ebf1f7"/><path d="m342.919 79.68h37.174c-.669-1.753-1.699-3.399-3.112-4.812l-24.713-24.713h-38.875z" fill="#e25ca5"/><path d="m426.431 79.68h37.174c-.669-1.753-1.699-3.399-3.112-4.812l-24.713-24.713h-38.874z" fill="#ebf1f7"/><path d="m92.383 79.68h37.174c-.669-1.753-1.699-3.399-3.112-4.812l-20.553-20.552c-7.613 5.261-14.918 10.934-21.872 17.001z" fill="#ebf1f7"/><path d="m175.895 79.68h37.174c-.669-1.753-1.699-3.399-3.112-4.812l-24.713-24.713h-38.875z" fill="#e25ca5"/><path d="m185.244 50.155h-38.874l27.488 27.488c-10.144-10.143-2.959-27.488 11.386-27.488z" fill="#dd3f95"/><path d="m512 302.173v-128.985l-4.922-13.786 4.922-24.253v-49.75c0-8.84-3.279-16.923-8.674-23.116l-21.971 19.181c.704 1.163 1.121 2.509 1.121 3.935v276.859c0 2.002-.812 3.851-2.11 5.244l17.112 23.24c8.793-6.415 14.523-16.79 14.523-28.484v-22.046l-5.922-13.477z" fill="#157acc"/><path d="m512 302.173c-1.161.622-2.252 1.418-3.232 2.397l-26.293 26.293v31.395c0 1.863-.732 3.76-2.106 5.24l-.003.003c.003-.003 0 0 0 0l31.634-27.288z" fill="#ebf1f7"/><path d="m483.598 118.079 28.402-28.403v-4.277c0-8.84-3.279-16.923-8.674-23.116l-21.971 19.181c.114.189.208.39.307.588.052.105.115.205.163.312.093.21.164.431.238.649.036.106.084.208.116.317.075.257.125.523.172.789.013.076.038.148.049.225.05.346.077.698.077 1.055v33.681c.385-.311.762-.642 1.121-1.001z" fill="#e25ca5"/><path d="m512 135.149c-1.161.622-2.252 1.418-3.232 2.397l-26.293 26.294v38.753c.387-.311.763-.642 1.122-1.001l28.403-28.404z" fill="#ebf1f7"/><path d="m483.598 285.103 28.402-28.402v-38.039c-1.161.621-2.252 1.417-3.232 2.397l-26.293 26.294v38.753c.387-.313.764-.643 1.123-1.003z" fill="#e25ca5"/><path d="m476.756 77.644h-399.708c-12.964 12.213-24.598 25.819-34.659 40.586v244.028c0 4.204 3.551 7.755 7.755 7.755h426.613c4.204 0 7.755-3.551 7.755-7.755v-276.859c-.001-4.204-3.552-7.755-7.756-7.755z" fill="#ebf1f7"/><path d="m173.859 77.644h-96.811c-12.781 12.04-24.262 25.44-34.224 39.966h120.825v-3.112c-18.763-24.237 10.21-36.854 10.21-36.854z" fill="#cee3f4"/><path d="m445.767 419.958v-15.403l-6.856-12.653 6.856-25.387v-128.984l-4.689-13.702 4.689-24.337v-12.824-36.925c0-19.433-15.81-35.244-35.244-35.244h-40.976l-14.886 3.987-23.988-3.987h-44.638l-18.124 3.112-20.75-3.112h-44.638l-15.112 3.987-23.762-3.987h-44.638l-15.1 3.987-23.775-3.987h-35.16c-1.578 2.227-3.114 4.485-4.619 6.766l70.585 339.818c.387.253.77.511 1.158.762h298.423c19.433 0 35.244-15.81 35.244-35.244z" fill="#0065c6"/><path d="m103.911 118.485-23.775-3.987h-35.16c-1.578 2.227-3.114 4.485-4.619 6.766l70.585 339.818c.387.253.77.511 1.158.762h6.433v-27.489-265.042c0-15.092 12.234-27.326 27.326-27.326-8.301-24.374 17.789-27.489 17.789-27.489h-44.638z" fill="#0052a9"/><path d="m116.497 432.32h-41.585c11.391 10.991 23.841 20.89 37.188 29.525h33.475c-.522-.814-1.139-1.586-1.851-2.298z" fill="#ebf1f7"/><path d="m118.547 434.37-2.05-2.05h-41.585c11.391 10.991 23.841 20.89 37.188 29.525h2.024c-9.287-8.147-6.058-22.962 4.423-27.475z" fill="#cee3f4"/><path d="m310.748 459.546-27.227-27.227h-38.506c.488.724 1.047 1.415 1.688 2.056l27.469 27.469h38.428c-.523-.814-1.139-1.585-1.852-2.298z" fill="#ebf1f7"/><path d="m394.26 459.546-27.227-27.227h-38.506c.488.724 1.047 1.415 1.688 2.056l27.469 27.469h38.428c-.523-.814-1.139-1.585-1.852-2.298z" fill="#e25ca5"/><path d="m227.236 459.546-27.227-27.227h-38.506c.488.724 1.047 1.415 1.688 2.056l27.469 27.469h38.428c-.523-.814-1.14-1.585-1.852-2.298z" fill="#e25ca5"/><path d="m193.174 144.023h37.174c-.669-1.753-1.699-3.399-3.112-4.812l-24.713-24.713h-38.874z" fill="#ebf1f7"/><path d="m276.686 144.023h37.174c-.669-1.753-1.699-3.399-3.112-4.812l-24.713-24.713h-38.875z" fill="#e25ca5"/><path d="m360.198 144.023h37.174c-.669-1.753-1.699-3.399-3.112-4.812l-24.713-24.713h-38.875z" fill="#ebf1f7"/><path d="m63.324 144.023c-.669-1.753-1.699-3.399-3.112-4.812l-19.093-19.093c-5.125 7.675-9.834 15.652-14.083 23.905z" fill="#ebf1f7"/><path d="m109.661 144.023h37.174c-.669-1.753-1.699-3.399-3.112-4.812l-24.713-24.713h-38.874z" fill="#dd3f95"/><path d="m445.767 366.516v-128.985l-4.689-13.702 4.689-24.337v-45.472l-8.674-9.996v-17.398l-21.971 19.181c.704 1.163 1.12 2.509 1.12 3.935v276.859c0 2.002-.812 3.851-2.11 5.244l17.112 23.24c8.794-6.415 14.523-16.79 14.523-28.484v-22.046l-6.856-12.653z" fill="#157acc"/><path d="m445.767 366.516c-1.161.622-2.252 1.418-3.232 2.397l-26.293 26.293v31.395c0 3.014-1.822 4.776-2.108 5.243l.8 1.089 30.833-28.377z" fill="#ebf1f7"/><path d="m417.364 182.422 28.402-28.403v-4.277c0-8.84-3.279-16.923-8.674-23.116l-21.971 19.181c.114.189.208.39.307.588.052.105.115.205.163.312.093.21.164.431.238.649.036.106.084.208.116.317.075.257.125.523.172.789.013.076.038.148.049.225.05.346.077.697.077 1.055v33.681c.386-.311.762-.642 1.121-1.001z" fill="#e25ca5"/><path d="m445.767 199.491c-1.161.622-2.252 1.418-3.232 2.397l-26.293 26.294v38.753c.387-.311.764-.642 1.122-1.001l28.402-28.403v-38.04z" fill="#ebf1f7"/><path d="m417.364 349.446 28.402-28.403v-38.039c-1.161.621-2.252 1.417-3.232 2.397l-26.293 26.293v38.753c.388-.311.764-.642 1.123-1.001z" fill="#e25ca5"/><path d="m410.523 141.987h-382.413c-17.941 34.057-28.11 72.845-28.11 114.013 0 70.301 29.619 133.677 77.048 178.356h333.475c4.204 0 7.755-3.551 7.755-7.755v-276.859c0-4.204-3.551-7.755-7.755-7.755z" fill="#ebf1f7"/><g fill="#cee3f4"><path d="m145.86 141.987h-117.75c-17.941 34.057-28.11 72.845-28.11 114.013 0 70.301 29.619 133.677 77.048 178.356h41.486v-265.043c-.001-15.092 12.234-27.326 27.326-27.326z"/><path d="m380.255 183.739c.777-.192 1.347-.85 1.347-1.65v-4.013c0-.951-.771-1.723-1.723-1.723h-4.013c-.8 0-1.458.57-1.65 1.347-.603 2.445-2.811 4.258-5.442 4.258s-4.839-1.813-5.442-4.258c-.192-.777-.85-1.347-1.65-1.347h-5.273c-.8 0-1.459.57-1.65 1.347-.603 2.445-2.81 4.258-5.442 4.258-2.631 0-4.839-1.813-5.442-4.258-.192-.777-.85-1.347-1.65-1.347-1.395 0-4.149 0-5.548 0-.8 0-1.458.57-1.65 1.347-.603 2.445-2.811 4.258-5.442 4.258s-4.839-1.813-5.442-4.258c-.192-.777-.85-1.347-1.65-1.347h-5.273c-.8 0-1.458.57-1.65 1.347-.603 2.445-2.811 4.258-5.442 4.258s-4.839-1.813-5.442-4.258c-.192-.777-.85-1.347-1.65-1.347h-4.013c-.951 0-1.723.771-1.723 1.723v4.013c0 .8.57 1.459 1.347 1.65 2.445.603 4.258 2.811 4.258 5.442s-1.813 4.839-4.258 5.442c-.777.192-1.347.85-1.347 1.65v5.272c0 .8.57 1.459 1.347 1.65 2.445.603 4.258 2.811 4.258 5.442s-1.813 4.839-4.258 5.442c-.777.192-1.347.85-1.347 1.65 0 .133 0 5.443 0 5.239 0 .8.57 1.459 1.347 1.65 2.445.603 4.258 2.811 4.258 5.442s-1.813 4.839-4.258 5.442c-.777.192-1.347.85-1.347 1.65v5.272c0 .8.57 1.459 1.347 1.65 2.445.603 4.258 2.811 4.258 5.442s-1.813 4.839-4.258 5.442c-.777.192-1.347.85-1.347 1.65v4.013c0 .951.771 1.723 1.723 1.723h4.013c.8 0 1.459-.57 1.65-1.347.603-2.445 2.811-4.258 5.442-4.258s4.839 1.813 5.442 4.258c.192.777.85 1.347 1.65 1.347h5.272c.8 0 1.459-.57 1.65-1.347.603-2.445 2.811-4.258 5.442-4.258s4.839 1.813 5.442 4.258c.192.777.85 1.347 1.65 1.347.119 0 5.602 0 5.547 0 .8 0 1.459-.57 1.65-1.347.603-2.445 2.811-4.258 5.442-4.258s4.839 1.813 5.442 4.258c.192.777.85 1.347 1.651 1.347h5.272c.8 0 1.459-.57 1.65-1.347.603-2.445 2.811-4.258 5.442-4.258s4.839 1.813 5.442 4.258c.192.777.85 1.347 1.65 1.347h4.013c.951 0 1.723-.771 1.723-1.723v-4.013c0-.8-.57-1.459-1.347-1.65-2.445-.603-4.258-2.811-4.258-5.442s1.813-4.839 4.258-5.442c.777-.192 1.347-.85 1.347-1.65v-5.272c0-.8-.57-1.459-1.347-1.65-2.445-.603-4.258-2.811-4.258-5.442s1.813-4.839 4.258-5.442c.777-.192 1.347-.85 1.347-1.65 0-.126 0-5.409 0-5.239 0-.8-.57-1.459-1.347-1.65-2.445-.603-4.258-2.811-4.258-5.442s1.813-4.839 4.258-5.442c.777-.192 1.347-.85 1.347-1.65v-5.272c0-.8-.57-1.459-1.347-1.65-2.445-.603-4.258-2.811-4.258-5.442.002-2.631 1.815-4.839 4.26-5.442z"/><path d="m176.679 327.959h-152.971c-4.217 0-7.636-3.418-7.636-7.636s3.418-7.636 7.636-7.636h152.971c4.217 0 7.636 3.418 7.636 7.636s-3.418 7.636-7.636 7.636z"/><path d="m176.679 346.471h-152.971c-2.161 0-4.108.901-5.497 2.344 1.791 4.372 3.694 8.686 5.726 12.928h152.742c4.217 0 7.636-3.418 7.636-7.636s-3.418-7.636-7.636-7.636z"/><path d="m176.679 380.254h-142.858c3.077 5.218 6.341 10.311 9.784 15.271h133.074c4.217 0 7.636-3.418 7.636-7.636 0-4.217-3.418-7.635-7.636-7.635z"/></g><path d="m109.068 320.323c0-4.218 3.418-7.636 7.636-7.636h-92.996c-4.217 0-7.636 3.418-7.636 7.636 0 4.217 3.418 7.636 7.636 7.636h92.996c-4.218 0-7.636-3.418-7.636-7.636z" fill="#b0d4ea"/><path d="m109.068 354.106c0-4.217 3.418-7.636 7.636-7.636h-92.996c-2.161 0-4.108.901-5.497 2.344 1.791 4.372 3.694 8.687 5.726 12.928h92.766c-4.217 0-7.635-3.418-7.635-7.636z" fill="#b0d4ea"/><path d="m109.068 387.889c0-4.217 3.418-7.636 7.636-7.636h-82.883c3.077 5.218 6.341 10.311 9.784 15.271h73.099c-4.218.001-7.636-3.417-7.636-7.635z" fill="#b0d4ea"/><path d="m324.144 177.7c-.192-.777-.85-1.347-1.65-1.347h-5.273c-.8 0-1.458.57-1.65 1.347-.603 2.445-2.811 4.258-5.442 4.258s-4.839-1.813-5.442-4.258c-.192-.777-.85-1.347-1.65-1.347h-4.013c-.951 0-1.723.771-1.723 1.723v4.013c0 .8.57 1.459 1.347 1.65 2.445.603 4.258 2.811 4.258 5.442s-1.813 4.839-4.258 5.442c-.777.192-1.347.85-1.347 1.65v5.272c0 .8.57 1.459 1.347 1.65 2.445.603 4.258 2.811 4.258 5.442s-1.813 4.839-4.258 5.442c-.777.192-1.347.85-1.347 1.65 0 .133 0 5.443 0 5.239 0 .8.57 1.459 1.347 1.65 2.445.603 4.258 2.811 4.258 5.442s-1.813 4.839-4.258 5.442c-.777.192-1.347.85-1.347 1.65v5.272c0 .8.57 1.459 1.347 1.65 2.445.603 4.258 2.811 4.258 5.442s-1.813 4.839-4.258 5.442c-.777.192-1.347.85-1.347 1.65v4.013c0 .951.771 1.723 1.723 1.723h4.013c.8 0 1.459-.57 1.65-1.347.603-2.445 2.811-4.258 5.442-4.258s4.839 1.813 5.442 4.258c.192.777.85 1.347 1.65 1.347h5.272c.8 0 1.459-.57 1.65-1.347.603-2.445 2.811-4.258 5.442-4.258-3.638-5.057 1.689-7.503 1.689-7.503v-57.777c-5.136-2.775-1.689-7.503-1.689-7.503-2.63.002-4.838-1.811-5.441-4.256z" fill="#b0d4ea"/><path d="m314.204 211.76c2.311 2.233 2.692 2.517 4.17 2.517 1.477 0 1.859-.284 4.171-2.517 2.966-2.866 7.93-7.663 16.903-7.663 8.972 0 13.938 4.797 16.906 7.663 2.311 2.233 2.692 2.517 4.171 2.517s1.861-.284 4.174-2.519c.973-.94 2.168-2.086 3.641-3.204v-14.716c0-2.408-1.97-4.378-4.377-4.378h-49.022c-2.408 0-4.378 1.97-4.378 4.378v14.716c1.474 1.119 2.669 2.266 3.641 3.206z" fill="#ffc533"/><path d="m326.896 193.839c0-2.408 1.97-4.378 4.378-4.378h-16.333c-2.408 0-4.378 1.97-4.378 4.378v14.716c1.473 1.118 2.669 2.265 3.641 3.205 2.31 2.233 2.692 2.517 4.17 2.517s1.859-.284 4.171-2.517c1.125-1.088 2.541-2.453 4.351-3.729 0-4.712 0-9.506 0-14.192z" fill="#f9a52b"/><path d="m360.525 232.603c-8.97 0-13.935-4.795-16.904-7.663-2.312-2.234-2.693-2.518-4.173-2.518-1.477 0-1.859.284-4.171 2.517-2.966 2.866-7.93 7.663-16.903 7.663-3.041 0-5.612-.558-7.811-1.399v11.656c0 2.408 1.97 4.378 4.378 4.378h49.022c2.408 0 4.377-1.97 4.377-4.378v-11.658c-2.2.843-4.772 1.402-7.815 1.402z" fill="#33bafe"/><path d="m326.896 242.86c0-3.121 0-7.217 0-11.932-2.346.997-5.151 1.675-8.522 1.675-3.041 0-5.612-.558-7.811-1.399v11.656c0 2.408 1.97 4.378 4.378 4.378h16.333c-2.407 0-4.378-1.97-4.378-4.378z" fill="#00a8fd"/><path d="m368.34 207.28c-1.801 1.289-3.218 2.653-4.35 3.747-2.31 2.232-2.442 2.232-3.465 2.232s-1.154 0-3.464-2.231c-3.078-2.974-8.228-7.95-17.613-7.95-9.384 0-14.534 4.976-17.611 7.95-2.31 2.231-2.441 2.231-3.463 2.231s-1.153 0-3.463-2.231c-1.132-1.094-2.548-2.458-4.348-3.747v25.022c2.215.798 4.791 1.318 7.811 1.318 9.384 0 14.534-4.976 17.611-7.95 2.31-2.231 2.441-2.231 3.463-2.231 1.023 0 1.155 0 3.465 2.232 3.078 2.973 8.228 7.949 17.612 7.949 3.022 0 5.6-.52 7.815-1.319z" fill="#fce453"/><path d="m326.896 206.796c-2.143 1.424-3.783 2.999-5.059 4.232-2.31 2.231-2.441 2.231-3.463 2.231s-1.153 0-3.463-2.231c-1.132-1.094-2.548-2.458-4.348-3.747v25.022c2.215.798 4.791 1.318 7.811 1.318 3.35 0 6.153-.641 8.522-1.592 0-7.259 0-16.123 0-25.233z" fill="#ffc533"/><path d="m87.141 288.905h-58.342c-7.028 0-12.726-5.698-12.726-12.726s5.698-12.726 12.726-12.726h58.343c7.028 0 12.726 5.698 12.726 12.726-.001 7.029-5.698 12.726-12.727 12.726z" fill="#b0d4ea"/></svg>