<?xml version="1.0" encoding="UTF-8"?>
<svg xmlns="http://www.w3.org/2000/svg" xmlns:xlink="http://www.w3.org/1999/xlink" width="512" height="512" viewBox="0 0 58 49" version="1.1"><!-- Generator: Sketch 51.3 (57544) - http://www.bohemiancoding.com/sketch --><title>029 - Tape Dispenser</title><desc>Created with Sketch.</desc><defs/><g id="Page-1" stroke="none" stroke-width="1" fill="none" fill-rule="evenodd"><g id="029---Tape-Dispenser" fill-rule="nonzero"><path d="M52,18 C45.262,18 38.059,12.908 34.365,9.873 C33.9411797,9.52153074 33.881207,8.89358193 34.2308378,8.4682437 C34.5804686,8.04290548 35.2081518,7.98021427 35.635,8.328 C39.122,11.193 45.886,16 52,16 C52.5522847,16 53,16.4477153 53,17 C53,17.5522847 52.5522847,18 52,18 Z" id="Shape" fill="#B19046"/><path d="M20,-1.77635684e-15 C9.50658975,-5.32907052e-15 1,8.50658975 1,19 C0.997888102,19.6513339 1.03127093,20.302299 1.1,20.95 L9.1,24.02 L24.74,30.03 L32.71,33.1 L32.72,33.1 C38.5626706,27.8373063 40.5575098,19.5180596 37.7368014,12.1780087 C34.916093,4.8379577 27.8633787,-0.00440443792 20,-1.77635684e-15 Z M21.4,19.88 C19.8809585,18.0523338 17.6265183,16.996596 15.25,17 L10.2,17 C11.0611085,12.7576897 14.5540322,9.55110219 18.8543451,9.05510428 C23.1546579,8.55910637 27.285851,10.8863286 29.090117,14.8212147 C30.894383,18.7561008 29.9620117,23.4051226 26.78,26.34 L21.4,19.88 Z" id="Shape" fill="#F3D55B"/><path d="M7.315,12 C6.95074844,11.9993258 6.61567415,11.8006456 6.44033383,11.4813724 C6.26499352,11.1620991 6.27712446,10.7727388 6.472,10.465 C9.39307396,5.81112304 14.505353,2.99007313 20,3 C20.5522847,3 21,3.44771525 21,4 C21,4.55228475 20.5522847,5 20,5 C15.1910666,4.99211063 10.7171433,7.46166794 8.161,11.535 C7.97744293,11.824867 7.65809751,12.0003937 7.315,12 Z" id="Shape" fill="#F9EAB0"/><path d="M20,7 C15.1304304,7.00551571 10.7470072,9.95327245 8.9051208,14.4610649 C7.06323438,18.9688574 8.12812727,24.142799 11.6004704,27.5568247 C15.0728135,30.9708504 20.264048,31.9479655 24.74,30.03 C25.9620338,29.508229 27.0877059,28.784824 28.07,27.89 C31.7395934,24.5542391 32.9806355,19.30555 31.1935786,14.6795749 C29.4065217,10.0535999 24.9591543,7.00239597 20,7 Z M26.78,26.34 L21.4,19.88 C19.8809585,18.0523338 17.6265183,16.996596 15.25,17 L10.2,17 C11.0611085,12.7576897 14.5540322,9.55110219 18.8543451,9.05510428 C23.1546579,8.55910637 27.285851,10.8863286 29.090117,14.8212147 C30.894383,18.7561008 29.9620117,23.4051226 26.78,26.34 Z" id="Shape" fill="#B19046"/><path d="M58,19 L58,41 C58,45.418278 54.418278,49 50,49 L8,49 C3.581722,49 4.4408921e-16,45.418278 0,41 L0,25 C-5.55111512e-16,20.581722 3.581722,17 8,17 L15.25,17 C17.6265183,16.996596 19.8809585,18.0523338 21.4,19.88 L26.78,26.34 L28.07,27.89 L31.22,31.67 C31.6638014,32.1988577 32.1633579,32.6782979 32.71,33.1 L32.72,33.1 C35.2710388,35.0460928 38.64784,35.5325521 41.6444533,34.3856498 C44.6410667,33.2387475 46.8301801,30.6220299 47.43,27.47 L49.12,18.63 C49.2950035,17.6852399 50.1191682,16.9998376 51.08,17 L56,17 C57.1032019,17.0032948 57.9967052,17.8967981 58,19 Z" id="Shape" fill="#894B9D"/><path d="M58,38 L58,41 C58,45.418278 54.418278,49 50,49 L8,49 C3.581722,49 4.4408921e-16,45.418278 0,41 L0,38 C4.4408921e-16,42.418278 3.581722,46 8,46 L50,46 C54.418278,46 58,42.418278 58,38 Z" id="Shape" fill="#3D324C"/><path d="M4,37 C3.44771525,37 3,36.5522847 3,36 L3,25 C3,24.4477153 3.44771525,24 4,24 C4.55228475,24 5,24.4477153 5,25 L5,36 C5,36.5522847 4.55228475,37 4,37 Z" id="Shape" fill="#955BA5"/><path d="M4,43 C3.44771525,43 3,42.5522847 3,42 L3,40 C3,39.4477153 3.44771525,39 4,39 C4.55228475,39 5,39.4477153 5,40 L5,42 C5,42.5522847 4.55228475,43 4,43 Z" id="Shape" fill="#955BA5"/><path d="M54,32 C53.4477153,32 53,31.5522847 53,31 L53,23 C53,22.4477153 53.4477153,22 54,22 C54.5522847,22 55,22.4477153 55,23 L55,31 C55,31.5522847 54.5522847,32 54,32 Z" id="Shape" fill="#955BA5"/><path d="M54,39 C53.4477153,39 53,38.5522847 53,38 L53,35 C53,34.4477153 53.4477153,34 54,34 C54.5522847,34 55,34.4477153 55,35 L55,38 C55,38.5522847 54.5522847,39 54,39 Z" id="Shape" fill="#955BA5"/></g></g></svg>
