<?xml version="1.0" encoding="iso-8859-1"?>
<!-- Generator: Adobe Illustrator 19.0.0, SVG Export Plug-In . SVG Version: 6.00 Build 0)  -->
<svg version="1.1" id="Capa_1" xmlns="http://www.w3.org/2000/svg" xmlns:xlink="http://www.w3.org/1999/xlink" x="0px" y="0px"
	 viewBox="0 0 448.784 448.784" style="enable-background:new 0 0 448.784 448.784;" xml:space="preserve">
<g>
	<path style="fill:#3A2C51;" d="M380.343,227.265h-62.171v31.347h46.498v80.457h-46.498v31.347h62.171
		c8.882,0,15.673-6.792,15.673-15.673V242.939C396.016,234.057,389.225,227.265,380.343,227.265z"/>
	<path style="fill:#3A2C51;" d="M170.841,136.882c0,8.882,6.792,15.673,15.673,15.673c8.882,0,15.673-6.792,15.673-15.673
		c0-20.376-7.837-31.347-14.106-39.706c-5.224-6.792-8.359-10.971-8.359-20.898s3.135-14.106,8.359-20.898
		c5.747-8.359,14.106-19.331,14.106-39.706C202.188,6.792,195.396,0,186.514,0c-8.882,0-15.673,6.792-15.673,15.673
		c0,9.927-3.135,14.106-8.359,20.898c-5.747,8.359-14.106,19.331-14.106,39.706s7.837,31.347,14.106,39.706
		C167.706,122.776,170.841,126.955,170.841,136.882z"/>
	<path style="fill:#3A2C51;" d="M240.849,136.882c0,8.882,6.792,15.673,15.673,15.673c8.882,0,15.673-6.792,15.673-15.673
		c0-20.376-7.837-31.347-14.106-39.706c-5.225-6.792-8.359-10.971-8.359-20.898s3.135-14.106,8.359-20.898
		c5.747-8.359,14.106-19.331,14.106-39.706C272.196,6.792,265.404,0,256.522,0c-8.882,0-15.673,6.792-15.673,15.673
		c0,9.927-3.135,14.106-8.359,20.898c-5.747,8.359-14.106,19.331-14.106,39.706s7.837,31.347,14.106,39.706
		C237.714,122.776,240.849,126.955,240.849,136.882z"/>
	<path style="fill:#3A2C51;" d="M100.833,136.882c0,8.882,6.792,15.673,15.673,15.673s15.673-6.792,15.673-15.673
		c0-20.376-7.837-31.347-14.106-39.706c-5.224-6.792-8.359-10.971-8.359-20.898s3.135-14.106,8.359-20.898
		c5.747-8.359,14.106-19.331,14.106-39.706C132.18,6.792,125.388,0,116.506,0s-15.673,6.792-15.673,15.673
		c0,9.927-3.135,14.106-8.359,20.898c-5.747,8.359-14.106,19.331-14.106,39.706s7.837,31.347,14.106,39.706
		C97.698,122.776,100.833,126.955,100.833,136.882z"/>
</g>
<path style="fill:#4DCFE0;" d="M320.784,258.612v-31.347v-49.633H52.767v211.069c0,32.914,27.167,60.082,60.604,60.082H260.18
	c33.437,0,60.604-27.167,60.604-60.604v-17.763v-31.347V258.612z"/>
<g>
</g>
<g>
</g>
<g>
</g>
<g>
</g>
<g>
</g>
<g>
</g>
<g>
</g>
<g>
</g>
<g>
</g>
<g>
</g>
<g>
</g>
<g>
</g>
<g>
</g>
<g>
</g>
<g>
</g>
</svg>
