<svg height="512pt" viewBox="-64 0 512 512" width="512pt" xmlns="http://www.w3.org/2000/svg"><path d="m298.386719 33.496094v175.8125h51.246093v-175.8125c0-12.976563-10.519531-23.496094-23.496093-23.496094h-51.242188c12.972657 0 23.492188 10.519531 23.492188 23.496094zm0 0" fill="#988575"/><path d="m298.386719 478.503906c0 12.976563-10.519531 23.496094-23.496094 23.496094h51.246094c12.976562 0 23.496093-10.519531 23.496093-23.496094v-182.007812h-51.246093zm0 0" fill="#988575"/><path d="m298.386719 478.503906v-182.007812h-20.101563c-24.078125 0-43.59375-19.519532-43.59375-43.59375 0-24.078125 19.515625-43.59375 43.59375-43.59375h20.101563v-175.8125c0-12.976563-10.519531-23.496094-23.496094-23.496094h-241.398437c-12.972657 0-23.492188 10.519531-23.492188 23.496094v445.011718c0 12.972657 10.519531 23.492188 23.492188 23.492188h241.402343c12.972657 0 23.492188-10.519531 23.492188-23.496094zm-72.113281-331.921875c0 3.671875-2.976563 6.644531-6.648438 6.644531h-126.539062c-3.671876 0-6.648438-2.972656-6.648438-6.644531v-49.433593c0-3.671876 2.976562-6.648438 6.648438-6.648438h126.539062c3.671875 0 6.644531 2.976562 6.644531 6.648438v49.433593zm0 0" fill="#ce9273"/><path d="m362.304688 209.308594h-84.019532c-24.078125 0-43.59375 19.519531-43.59375 43.59375 0 24.078125 19.515625 43.59375 43.59375 43.59375h84.019532c6.535156 0 11.835937-5.300782 11.835937-11.835938v-63.511718c0-6.539063-5.300781-11.839844-11.835937-11.839844zm-81.164063 61.261718c-9.757813 0-17.667969-7.910156-17.667969-17.667968 0-9.757813 7.910156-17.667969 17.667969-17.667969s17.667969 7.910156 17.667969 17.667969c0 9.757812-7.910156 17.667968-17.667969 17.667968zm0 0" fill="#ffd866"/><path d="m298.808594 252.902344c0 9.757812-7.910156 17.667968-17.667969 17.667968s-17.667969-7.910156-17.667969-17.667968c0-9.757813 7.910156-17.667969 17.667969-17.667969s17.667969 7.910156 17.667969 17.667969zm0 0" fill="#00b7ec"/><path d="m219.625 90.5h-126.539062c-3.671876 0-6.648438 2.976562-6.648438 6.648438v49.433593c0 3.671875 2.976562 6.644531 6.648438 6.644531h126.539062c3.671875 0 6.644531-2.972656 6.644531-6.644531v-49.433593c.003907-3.671876-2.972656-6.648438-6.644531-6.648438zm0 0" fill="#d6effb"/><path d="m362.300781 199.308594h-2.671875v-165.820313c0-18.464843-15.023437-33.488281-33.488281-33.488281h-292.652344c-18.464843 0-33.488281 15.023438-33.488281 33.488281v445.023438c0 18.464843 15.023438 33.488281 33.488281 33.488281h292.652344c18.464844 0 33.488281-15.023438 33.488281-33.488281v-172.011719h2.671875c12.042969 0 21.839844-9.796875 21.839844-21.839844v-63.511718c0-12.042969-9.796875-21.839844-21.839844-21.839844zm-36.160156-179.308594c7.4375 0 13.488281 6.050781 13.488281 13.488281v165.820313h-31.238281v-165.820313c0-.585937-.015625-1.171875-.046875-1.753906-.007812-.199219-.03125-.394531-.042969-.59375-.027343-.378906-.054687-.757813-.089843-1.136719-.027344-.234375-.0625-.464844-.089844-.695312-.042969-.335938-.082032-.675782-.136719-1.007813-.035156-.246093-.085937-.488281-.128906-.734375-.058594-.316406-.113281-.632812-.175781-.945312-.050782-.25-.113282-.496094-.171876-.742188-.070312-.304687-.140624-.605468-.21875-.90625-.066406-.25-.140624-.496094-.210937-.742187-.085937-.292969-.167969-.585938-.257813-.875-.082031-.246094-.167968-.488281-.25-.734375-.097656-.28125-.195312-.566406-.300781-.847656-.089843-.242188-.1875-.476563-.28125-.71875-.113281-.277344-.222656-.554688-.34375-.828126-.03125-.074218-.058593-.152343-.09375-.226562zm13.492187 458.511719c0 7.4375-6.054687 13.488281-13.492187 13.488281h-20.597656c1.824219-4.128906 2.847656-8.691406 2.847656-13.488281v-27.53125c0-5.523438-4.476563-10-10-10s-10 4.476562-10 10v27.53125c0 7.4375-6.054687 13.488281-13.5 13.488281h-241.402344c-7.4375 0-13.488281-6.050781-13.488281-13.488281v-445.023438c0-7.4375 6.050781-13.488281 13.488281-13.488281h241.402344c7.445313 0 13.5 6.050781 13.5 13.488281v165.820313h-10.109375c-14.3125 0-27.769531 5.578125-37.890625 15.699218-10.125 10.125-15.699219 23.582032-15.699219 37.890626 0 29.554687 24.039063 53.601562 53.589844 53.601562h10.109375v64.5c0 5.523438 4.476563 10 10 10 5.519531 0 10-4.476562 10-10v-64.5h31.238281v172.011719zm24.507813-193.851563c0 1.015625-.824219 1.839844-1.839844 1.839844h-84.019531c-18.523438 0-33.589844-15.074219-33.589844-33.601562 0-8.96875 3.492188-17.402344 9.839844-23.746094 5.949219-5.949219 13.734375-9.394532 22.074219-9.800782.554687-.027343 1.113281-.042968 1.675781-.042968h84.019531c1.015625 0 1.839844.828125 1.839844 1.839844zm0 0"/><path d="m281.140625 225.234375c-15.253906 0-27.667969 12.414063-27.667969 27.667969s12.414063 27.667968 27.667969 27.667968 27.667969-12.410156 27.667969-27.667968c0-15.253906-12.414063-27.667969-27.667969-27.667969zm0 35.335937c-4.226563 0-7.667969-3.441406-7.667969-7.667968 0-4.226563 3.441406-7.667969 7.667969-7.667969s7.667969 3.441406 7.667969 7.667969c0 4.226562-3.441406 7.667968-7.667969 7.667968zm0 0"/><path d="m236.273438 146.582031v-49.433593c0-9.179688-7.46875-16.648438-16.648438-16.648438h-126.539062c-9.179688 0-16.644532 7.46875-16.644532 16.648438v49.433593c0 9.179688 7.464844 16.644531 16.644532 16.644531h126.539062c9.179688 0 16.648438-7.464843 16.648438-16.644531zm-20-3.355469h-119.835938v-42.726562h119.835938zm0 0"/><path d="m115.941406 131.863281h76.5c5.523438 0 10-4.476562 10-10 0-5.523437-4.476562-10-10-10h-76.5c-5.519531 0-10 4.476563-10 10 0 5.523438 4.480469 10 10 10zm0 0"/><path d="m298.386719 400.976562c-5.523438 0-10 4.476563-10 10v.023438c0 5.523438 4.476562 9.988281 10 9.988281 5.523437 0 10-4.492187 10-10.011719 0-5.523437-4.476563-10-10-10zm0 0"/></svg>