<svg height="480pt" viewBox="0 -7 480 479" width="480pt" xmlns="http://www.w3.org/2000/svg"><path d="m8 200.5 64 37.5v-86.101562zm0 0" fill="#32623f"/><path d="m408 151.898438v86.101562l64-37.5zm0 0" fill="#32623f"/><path d="m278.699219 313.800781-21.097657-13.800781c-10.703124-7-24.402343-7-35.101562 0l-21.101562 13.800781-9.699219 6.300781-177.800781 132.796876c2.800781 2.300781 6.402343 3.601562 10.101562 3.601562h432c3.699219 0 7.199219-1.300781 10.101562-3.601562l-177.800781-132.699219zm0 0" fill="#58ab6d"/><path d="m288.300781 320.199219 177.800781 132.699219c3.699219-3 5.898438-7.597657 5.898438-12.398438v-240l-193.300781 113.300781zm0 0" fill="#64c37d"/><path d="m201.300781 313.800781-193.300781-113.300781v240c0 4.800781 2.199219 9.398438 5.898438 12.398438l177.800781-132.699219zm0 0" fill="#64c37d"/><path d="m328 88.5v-80h-256v229.5l129.300781 75.800781 21.097657-13.800781c10.703124-7 24.402343-7 35.101562 0l21.101562 13.800781 129.398438-75.800781v-149.5zm0 0" fill="#d1d0d4"/><path d="m328 8.5v80h80l-72-80zm0 0" fill="#939598"/><g fill="#231f20"><path d="m479.898438 200.101562c-.097657-.800781-.199219-1.5-.5-2.300781-.097657-.402343-.199219-.699219-.398438-1.101562 0-.097657 0-.199219-.101562-.300781-.5-.796876-1.097657-1.5-1.898438-2.097657-.101562-.101562-.101562-.101562-.199219-.199219l-60.800781-46.101562v-59.5c0-.101562-.101562-.300781-.101562-.398438 0-.800781-.199219-1.601562-.5-2.300781-.097657-.199219-.097657-.300781-.097657-.5-.300781-.699219-.800781-1.402343-1.300781-2.101562l-56-64c-2.699219-3.5-7.699219-4.199219-11.199219-1.5s-4.199219 7.699219-1.5 11.199219c.199219.300781.5.601562.699219.800781l44.398438 50.699219h-54.398438v-71.898438c0-4.398438-3.601562-8-8-8h-256c-4.398438 0-8 3.601562-8 8v139.5l-60.800781 46.101562c-.097657.097657-.097657.199219-.199219.199219-.800781.597657-1.398438 1.300781-1.898438 2.097657-.101562.101562 0 .203124-.101562.300781-.101562.300781-.300781.699219-.398438 1.101562-.300781.699219-.5 1.5-.5 2.300781 0 .199219-.101562.296876-.101562.398438v240c0 7.199219 3.199219 14 8.800781 18.601562.300781.296876.597657.398438 1 .699219l.097657.097657c4.101562 3 9 4.601562 14.101562 4.703124h432c13.199219 0 24-10.800781 24-24v-240.101562c0-.199219-.101562-.300781-.101562-.398438zm-15.898438 240.398438c0 .300781-.101562.5-.199219.699219l-170.101562-127 170.300781-99.699219zm-448 0v-226l170.199219 99.800781-170.097657 127c0-.300781-.101562-.5-.101562-.800781zm180.101562-113.601562 9.199219-6 .097657-.097657 21.5-14.101562c8-5.199219 18.300781-5.199219 26.300781 0l21.402343 14c.097657.101562.199219.101562.296876.199219l8.703124 5.703124 163.199219 121.898438h-413.601562zm261.597657-127.199219-41.699219 24.402343v-56zm-137.699219-183.199219v72c0 4.398438 3.601562 8 8 8h72v136.898438l-121.101562 71-17-11.097657c-13.296876-8.699219-30.597657-8.699219-43.898438 0l-17 11.097657-121-71v-216.898438zm-256 207.601562-41.601562-24.402343 41.601562-31.597657zm0 0"/><path d="m192 48.5h96c4.398438 0 8-3.601562 8-8s-3.601562-8-8-8h-96c-4.398438 0-8 3.601562-8 8s3.601562 8 8 8zm0 0"/><path d="m112 80.5h192c4.398438 0 8-3.601562 8-8s-3.601562-8-8-8h-192c-4.398438 0-8 3.601562-8 8s3.601562 8 8 8zm0 0"/><path d="m112 120.5h256c4.398438 0 8-3.601562 8-8s-3.601562-8-8-8h-256c-4.398438 0-8 3.601562-8 8s3.601562 8 8 8zm0 0"/><path d="m112 160.5h256c4.398438 0 8-3.601562 8-8s-3.601562-8-8-8h-256c-4.398438 0-8 3.601562-8 8s3.601562 8 8 8zm0 0"/><path d="m112 200.5h256c4.398438 0 8-3.601562 8-8s-3.601562-8-8-8h-256c-4.398438 0-8 3.601562-8 8s3.601562 8 8 8zm0 0"/></g></svg>