<svg height="512" viewBox="0 0 64 64" width="512" xmlns="http://www.w3.org/2000/svg"><g id="Glue"><path d="m59.234 20.322-15.556-15.556a2 2 0 0 0 -2.829 0l-4.242 4.243 18.384 18.384 4.243-4.242a2 2 0 0 0 0-2.829z" fill="#006df0"/><path d="m40.142 42.243.707-.707-18.385-18.385-.707.707-3.535 12.021 9.899 9.899z" fill="#bddbff"/><path d="m27.414 50.728 1.414-1.414a2 2 0 0 0 0-2.829l-10.606-10.606-.707-.707a2 2 0 0 0 -2.829 0l-1.414 1.414a2 2 0 0 0 0 2.828l.707.707 10.607 10.607a2 2 0 0 0 2.828 0z" fill="#ffcd00"/><path d="m5.661 60.142 18.218-10.121-9.9-9.9-10.121 18.218a1.326 1.326 0 0 0 1.8 1.8z" fill="#2488ff"/><path d="m28.828 46.485-2-2a2 2 0 0 1 0 2.829l-1.414 1.414a2 2 0 0 1 -2.828 0l2 2a2 2 0 0 0 2.828 0l1.414-1.414a2 2 0 0 0 0-2.829z" fill="#ebbf00"/><path d="m21.879 48.021-17.774 9.879-.247.444a1.326 1.326 0 0 0 1.8 1.8l18.221-10.123z" fill="#006df0"/><path d="m35.556 9.444h12v26h-12z" fill="#bddbff" transform="matrix(.707 -.707 .707 .707 -3.698 35.958)"/><path d="m30.485 16.515h8v26h-8z" fill="#57a4ff" transform="matrix(.707 -.707 .707 .707 -10.77 33.029)"/><path d="m59.234 20.322-2-2a2 2 0 0 1 0 2.829l-4.243 4.242 2 2 4.243-4.242a2 2 0 0 0 0-2.829z" fill="#005ece"/><path d="m38.849 39.536-.707.707-12.021 3.535 2 2 12.021-3.535.707-.707z" fill="#9bc9ff"/><path d="m43.749 29.222h12v2.828h-12z" fill="#9bc9ff" transform="matrix(.707 -.707 .707 .707 -7.092 44.151)"/><path d="m38.678 36.293h8v2.828h-8z" fill="#2488ff" transform="matrix(.707 -.707 .707 .707 -14.163 41.222)"/><path d="m46.213 5.959h2v16h-2z" transform="matrix(.707 -.707 .707 .707 3.958 37.473)"/><path d="m53.991 20.737h2v2h-2z" transform="matrix(.707 -.707 .707 .707 .732 45.242)"/><path d="m27.121 22.151h2v2h-2z" transform="matrix(.707 -.707 .707 .707 -8.134 26.665)"/><path d="m35.254 23.782h2v15h-2z" transform="matrix(.707 -.707 .707 .707 -11.502 34.796)"/><path d="m59.941 19.615-15.556-15.556a3.072 3.072 0 0 0 -4.242 0l-19.273 19.272-3.156 10.73a3.006 3.006 0 0 0 -3.735.4l-1.414 1.414a3 3 0 0 0 0 4.243l.174.174-9.755 17.561a2.327 2.327 0 0 0 3.162 3.163l17.559-9.754.174.174a3 3 0 0 0 4.242 0l1.414-1.414a2.988 2.988 0 0 0 .4-3.735l10.734-3.157 19.273-19.273a3 3 0 0 0 -.001-4.242zm-13.435 14.85-16.97-16.965 7.071-7.072 16.97 16.971zm-41.33 24.8a.326.326 0 0 1 -.444-.443l9.478-17.056 8.024 8.025zm22.945-10.659-1.414 1.415a1 1 0 0 1 -1.414 0l-11.314-11.314a1 1 0 0 1 0-1.414l1.415-1.414a1 1 0 0 1 1.414 0l11.313 11.313a1 1 0 0 1 0 1.413zm.287-3.955-9.059-9.06 3.214-10.927 16.774 16.773zm12.442-4.529-16.971-16.971 4.243-4.242 16.97 16.97zm17.677-17.678-3.535 3.536-16.971-16.971 3.537-3.536a1.023 1.023 0 0 1 1.413 0l15.555 15.556a1 1 0 0 1 .001 1.415z"/></g></svg>