<svg height="512" viewBox="0 0 64 64" width="512" xmlns="http://www.w3.org/2000/svg"><g id="Pen_marker" data-name="Pen marker"><path d="m59.085 9.052-4.4-4.4a2 2 0 0 0 -2.745-.079l-37.653 33.563-.707.707 11.313 11.314.708-.707 33.563-37.65a2 2 0 0 0 -.079-2.748z" fill="#2488ff"/><path d="m59.085 9.052-2-2a2 2 0 0 1 .079 2.748l-33.564 37.65-.708.707 2 2 .708-.707 33.564-37.65a2 2 0 0 0 -.079-2.748z" fill="#006df0"/><path d="m15.822 37.914h4v16h-4z" fill="#ffcd00" transform="matrix(.707 -.707 .707 .707 -27.246 26.05)"/><path d="m13.58 38.843 9.313 9.314-2.828 2.828 2 2 2.828-2.828z" fill="#cca400"/><path d="m21.358 53.692.707-.707-11.314-11.313-.707.707-4.419 9.722 5.126 5.127.707.707z" fill="#006df0"/><path d="m10.751 41.672 9.314 9.313-.707.707-9.9 4.243 1.293 1.293.707.707 9.9-4.243.707-.707z" fill="#005ece"/><path d="m5.216 53.521h4v6h-4z" fill="#7ed63e" transform="matrix(.707 -.707 .707 .707 -37.853 21.657)"/><path d="m9.751 56.228-2.828 2.828-3.243-3.242 4.243 4.242 2.828-2.828z" fill="#5eac24"/><path d="m59.792 8.345-4.4-4.4a3 3 0 0 0 -4.118-.118l-37.694 33.602-4.372 4.371-4.781 10.519.667.667-2.828 2.827 5.657 5.657 2.828-2.828.479.479 10.7-4.585 4.379-4.379 33.6-37.695a3 3 0 0 0 -.117-4.117zm-51.869 50.297-2.829-2.829 1.414-1.413 2.829 2.828zm3.764-1.893-4.865-4.865 3.977-8.75 9.8 9.8zm10.378-5.178-9.9-9.9 1.414-1.414 9.9 9.9zm36.352-40.44-33.524 37.61-9.9-9.9 37.607-33.522a1 1 0 0 1 1.374.039l4.4 4.4a1 1 0 0 1 .043 1.373z"/><path d="m26.308 40.439h2.072v2h-2.072z" transform="matrix(.662 -.75 .75 .662 -21.821 34.531)"/><path d="m24.958 26.199h29.904v2h-29.904z" transform="matrix(.662 -.75 .75 .662 -6.889 39.134)"/></g></svg>