<?xml version="1.0" encoding="iso-8859-1"?>
<!-- Generator: Adobe Illustrator 19.0.0, SVG Export Plug-In . SVG Version: 6.00 Build 0)  -->
<svg version="1.1" id="Capa_1" xmlns="http://www.w3.org/2000/svg" xmlns:xlink="http://www.w3.org/1999/xlink" x="0px" y="0px"
	 viewBox="0 0 512 512" style="enable-background:new 0 0 512 512;" xml:space="preserve">
<linearGradient id="SVGID_1_" gradientUnits="userSpaceOnUse" x1="436.7917" y1="153.0958" x2="533.4217" y2="56.4759" gradientTransform="matrix(1.0039 0 0 -1.0039 0.1922 516.5603)">
	<stop  offset="0" style="stop-color:#FCC344"/>
	<stop  offset="1" style="stop-color:#F7AE3D"/>
</linearGradient>
<path style="fill:url(#SVGID_1_);" d="M461.634,478.135c2.612-0.316,5.348,0.6,7.249,2.75l0.167,0.189
	c3.256,3.686,9.017,3.653,12.23-0.07l0,0c3.3-3.825,9.21-3.878,12.578-0.113l0.004,0.004c3.316,3.75,9.166,3.749,12.482-0.001l0,0
	c0.985-1.113,2.193-1.896,3.491-2.348c2.236-0.778,2.902-3.608,1.228-5.283l0,0c-22.391-22.391-34.971-52.76-34.971-84.426V256
	h-98.264v164.58c0,34.234,27.752,61.986,61.986,61.986h1.336c6.802,0,13.426-1.673,19.734-4.216
	C461.165,478.237,461.418,478.162,461.634,478.135z"/>
<linearGradient id="SVGID_2_" gradientUnits="userSpaceOnUse" x1="546.2666" y1="43.6207" x2="436.0966" y2="153.7907" gradientTransform="matrix(1.0039 0 0 -1.0039 0.1922 516.5603)">
	<stop  offset="0" style="stop-color:#FCC344;stop-opacity:0"/>
	<stop  offset="1" style="stop-color:#D48000"/>
</linearGradient>
<path style="fill:url(#SVGID_2_);" d="M461.634,478.135c2.612-0.316,5.348,0.6,7.249,2.75l0.167,0.189
	c3.256,3.686,9.017,3.653,12.23-0.07l0,0c3.3-3.825,9.21-3.878,12.578-0.113l0.004,0.004c3.316,3.75,9.166,3.749,12.482-0.001l0,0
	c0.985-1.113,2.193-1.896,3.491-2.348c2.236-0.778,2.902-3.608,1.228-5.283l0,0c-22.391-22.391-34.971-52.76-34.971-84.426V256
	h-98.264v164.58c0,34.234,27.752,61.986,61.986,61.986h1.336c6.802,0,13.426-1.673,19.734-4.216
	C461.165,478.237,461.418,478.162,461.634,478.135z"/>
<linearGradient id="SVGID_3_" gradientUnits="userSpaceOnUse" x1="30.0829" y1="301.6848" x2="504.3129" y2="205.0648" gradientTransform="matrix(1.0039 0 0 -1.0039 0.1922 516.5603)">
	<stop  offset="0" style="stop-color:#FCC344"/>
	<stop  offset="1" style="stop-color:#F7AE3D"/>
</linearGradient>
<path style="fill:url(#SVGID_3_);" d="M238.046,17.954C106.575,17.954,0,124.528,0,256s106.575,238.046,238.046,238.046
	S476.093,387.471,476.093,256S369.517,17.954,238.046,17.954z M238.046,357.197c-55.888,0-101.197-45.31-101.197-101.197
	s45.31-101.197,101.197-101.197S339.244,200.111,339.244,256S293.934,357.197,238.046,357.197z"/>
<linearGradient id="SVGID_4_" gradientUnits="userSpaceOnUse" x1="446.3029" y1="45.5833" x2="9.3228" y2="492.1243" gradientTransform="matrix(1.0039 0 0 -1.0039 0.1922 516.5603)">
	<stop  offset="0" style="stop-color:#FCC344"/>
	<stop  offset="1" style="stop-color:#F7AE3D"/>
</linearGradient>
<path style="fill:url(#SVGID_4_);" d="M238.046,480.146c-59.872,0-116.16-23.316-158.495-65.651S13.9,315.872,13.9,256
	s23.315-116.16,65.65-158.495s98.623-65.651,158.495-65.651s116.16,23.316,158.495,65.651s65.65,98.623,65.65,158.495
	s-23.315,116.16-65.65,158.495S297.918,480.146,238.046,480.146z M238.046,35.869c-58.799,0-114.079,22.898-155.655,64.475
	C40.813,141.921,17.916,197.201,17.916,256s22.897,114.079,64.475,155.656c41.577,41.576,96.856,64.475,155.655,64.475
	s114.079-22.898,155.655-64.475c41.577-41.577,64.475-96.857,64.475-155.656s-22.897-114.079-64.475-155.656
	C352.125,58.767,296.846,35.869,238.046,35.869z"/>
<linearGradient id="SVGID_5_" gradientUnits="userSpaceOnUse" x1="445.3929" y1="66.3788" x2="8.413" y2="471.2789" gradientTransform="matrix(1.0039 0 0 -1.0039 0.1922 516.5603)">
	<stop  offset="0" style="stop-color:#FCC344"/>
	<stop  offset="1" style="stop-color:#F7AE3D"/>
</linearGradient>
<path style="fill:url(#SVGID_5_);" d="M238.046,459.239C125.98,459.239,34.807,368.067,34.807,256S125.98,52.761,238.046,52.761
	c112.067,0,203.239,91.172,203.239,203.239S350.113,459.239,238.046,459.239z M238.046,56.777
	C128.194,56.777,38.823,146.148,38.823,256s89.371,199.223,199.223,199.223S437.269,365.852,437.269,256
	S347.899,56.777,238.046,56.777z"/>
<linearGradient id="SVGID_6_" gradientUnits="userSpaceOnUse" x1="444.4964" y1="85.1362" x2="7.5164" y2="452.2963" gradientTransform="matrix(1.0039 0 0 -1.0039 0.1922 516.5603)">
	<stop  offset="0" style="stop-color:#FCC344"/>
	<stop  offset="1" style="stop-color:#F7AE3D"/>
</linearGradient>
<path style="fill:url(#SVGID_6_);" d="M238.046,440.3c-101.624,0-184.3-82.677-184.3-184.3s82.677-184.3,184.3-184.3
	s184.3,82.677,184.3,184.3S339.67,440.3,238.046,440.3z M238.046,75.716c-99.409,0-180.284,80.876-180.284,180.284
	s80.875,180.284,180.284,180.284S418.33,355.408,418.33,256S337.455,75.716,238.046,75.716z"/>
<linearGradient id="SVGID_7_" gradientUnits="userSpaceOnUse" x1="443.631" y1="102.0322" x2="6.651" y2="435.0121" gradientTransform="matrix(1.0039 0 0 -1.0039 0.1922 516.5603)">
	<stop  offset="0" style="stop-color:#FCC344"/>
	<stop  offset="1" style="stop-color:#F7AE3D"/>
</linearGradient>
<path style="fill:url(#SVGID_7_);" d="M238.046,423.143c-92.163,0-167.143-74.981-167.143-167.143s74.98-167.143,167.143-167.143
	S405.19,163.837,405.19,256S330.209,423.143,238.046,423.143z M238.046,92.873c-89.948,0-163.127,73.179-163.127,163.127
	s73.179,163.127,163.127,163.127c89.949,0,163.128-73.179,163.128-163.127S327.995,92.873,238.046,92.873z"/>
<linearGradient id="SVGID_8_" gradientUnits="userSpaceOnUse" x1="433.537" y1="62.9212" x2="238.157" y2="258.3112" gradientTransform="matrix(1.0039 0 0 -1.0039 0.1922 516.5603)">
	<stop  offset="0" style="stop-color:#FCC344;stop-opacity:0"/>
	<stop  offset="1" style="stop-color:#D48000"/>
</linearGradient>
<path style="fill:url(#SVGID_8_);" d="M473.141,293.511L339.765,160.135c-25.49-27.036-61.632-43.919-101.718-43.919
	c-77.196,0-139.783,62.587-139.783,139.783c0,40.088,16.883,76.23,43.92,101.719l133.375,133.375
	C376.984,475.038,457.085,394.937,473.141,293.511z M136.849,256c0-55.888,45.31-101.197,101.197-101.197
	S339.244,200.111,339.244,256s-45.31,101.197-101.197,101.197S136.849,311.888,136.849,256z"/>
<linearGradient id="SVGID_9_" gradientUnits="userSpaceOnUse" x1="97.6886" y1="259.5427" x2="376.1616" y2="259.5427" gradientTransform="matrix(1.0039 0 0 -1.0039 0.1922 516.5603)">
	<stop  offset="0" style="stop-color:#FFF2EB"/>
	<stop  offset="1" style="stop-color:#F1DACB"/>
</linearGradient>
<path style="fill:url(#SVGID_9_);" d="M238.046,116.217c-77.195,0-139.782,62.587-139.782,139.783s62.587,139.783,139.783,139.783
	S377.829,333.195,377.829,256S315.241,116.217,238.046,116.217z M238.046,357.197c-55.888,0-101.197-45.31-101.197-101.197
	s45.31-101.197,101.197-101.197S339.244,200.111,339.244,256S293.934,357.197,238.046,357.197z"/>
<linearGradient id="SVGID_10_" gradientUnits="userSpaceOnUse" x1="371.5576" y1="259.5427" x2="102.2926" y2="259.5427" gradientTransform="matrix(1.0039 0 0 -1.0039 0.1922 516.5603)">
	<stop  offset="0" style="stop-color:#FFF2EB"/>
	<stop  offset="1" style="stop-color:#F1DACB"/>
</linearGradient>
<path style="fill:url(#SVGID_10_);" d="M102.886,256c0,74.643,60.517,135.16,135.16,135.16S373.207,330.642,373.207,256
	s-60.517-135.16-135.16-135.16S102.886,181.357,102.886,256z M140.195,256c0-54.04,43.811-97.851,97.851-97.851
	S335.897,201.96,335.897,256s-43.811,97.851-97.851,97.851S140.195,310.04,140.195,256z"/>
<g>
</g>
<g>
</g>
<g>
</g>
<g>
</g>
<g>
</g>
<g>
</g>
<g>
</g>
<g>
</g>
<g>
</g>
<g>
</g>
<g>
</g>
<g>
</g>
<g>
</g>
<g>
</g>
<g>
</g>
</svg>
