<svg id="Layer_1" enable-background="new 0 0 256 256" height="512" viewBox="0 0 256 256" width="512" xmlns="http://www.w3.org/2000/svg"><path d="m131.998 152.071-28.069-28.069c-37.881.495-68.47 31.083-68.965 68.965l28.069 28.069z" fill="#f4efed"/><path d="m110.825 130.898-6.896-6.896c-37.881.495-68.47 31.084-68.965 68.965l6.896 6.896c.495-37.881 31.084-68.47 68.965-68.965z" fill="#fff"/><path d="m19.486 218.868 17.645 17.645-5.831 5.831c-4.873 4.873-12.773 4.873-17.646 0-4.873-4.873-4.873-12.773 0-17.645z" fill="#fcc24c"/><path d="m249.143 21.133-14.276-14.276c-3.809-3.809-9.984-3.809-13.793 0l-29.953 29.953 28.069 28.069 29.953-29.953c3.809-3.809 3.809-9.984 0-13.793z" fill="#f4efed"/><path d="m249.143 21.133-6.718-6.718c3.809 3.809 3.809 9.984 0 13.793l-29.953 29.953 6.718 6.718 29.953-29.953c3.809-3.809 3.809-9.984 0-13.793z" fill="#d6d1cf"/><path d="m234.867 6.857 6.718 6.718c-3.809-3.809-9.984-3.809-13.793 0l-29.953 29.953-6.718-6.718 29.953-29.953c3.809-3.809 9.984-3.809 13.793 0z" fill="#fff"/><path d="m99.905 74.592h123.309v39.696h-123.309z" fill="#526faa" transform="matrix(.707 -.707 .707 .707 -19.46 141.901)"/><path d="m110.581 100.366h123.309v9.5h-123.309z" fill="#34518c" transform="matrix(.707 -.707 .707 .707 -23.882 152.577)"/><path d="m89.229 79.014h123.309v9.501h-123.309z" fill="#708dc8" transform="matrix(.707 -.707 .707 .707 -15.038 131.225)"/><path d="m131.998 154.071c-.512 0-1.023-.195-1.414-.586l-28.069-28.069c-.781-.781-.781-2.047 0-2.828l87.192-87.192c.781-.781 2.047-.781 2.828 0l28.069 28.069c.781.781.781 2.047 0 2.828l-87.192 87.192c-.391.391-.902.586-1.414.586zm-25.241-30.069 25.241 25.241 84.364-84.364-25.241-25.241z" fill="#690589"/><path d="m45.391 178.445h97.531v9.501h-97.531z" fill="#d6d1cf" transform="matrix(.707 -.707 .707 .707 -101.961 120.235)"/><path d="m63.033 223.037c-.53 0-1.039-.211-1.414-.586l-28.07-28.07c-.382-.381-.593-.901-.586-1.44.247-18.845 7.722-36.563 21.049-49.89s31.045-20.802 49.89-21.048c.553.02 1.059.204 1.44.586l28.069 28.069c.781.781.781 2.047 0 2.828l-68.965 68.965c-.374.375-.883.586-1.413.586zm-26.054-30.883 26.054 26.054 66.137-66.137-26.054-26.054c-17.483.44-33.889 7.474-46.276 19.861-12.387 12.388-19.421 28.793-19.861 46.276z" fill="#690589"/><path d="m38.895 238.278-21.173-21.173c-1.905-1.904-1.905-4.992 0-6.896l17.241-17.241 28.069 28.069-17.241 17.241c-1.904 1.904-4.991 1.904-6.896 0z" fill="#526faa"/><path d="m56.315 214.318-20.69 20.69 3.27 3.27c1.904 1.904 4.992 1.904 6.896 0l17.241-17.241z" fill="#34518c"/><path d="m34.964 192.967-17.241 17.241c-1.905 1.904-1.905 4.992 0 6.896l3.27 3.27 20.689-20.69z" fill="#708dc8"/><g fill="#690589"><path d="m42.343 241.703c-1.761 0-3.521-.67-4.862-2.01l-21.173-21.173c-2.681-2.682-2.681-7.044 0-9.725l17.241-17.242c.75-.75 2.078-.75 2.828 0l28.07 28.07c.375.375.586.884.586 1.414s-.211 1.039-.586 1.414l-17.242 17.241c-1.34 1.34-3.101 2.011-4.862 2.011zm-2.034-4.839c1.123 1.122 2.947 1.121 4.068 0l15.827-15.827-25.241-25.241-15.827 15.827c-1.121 1.122-1.121 2.947 0 4.068z"/><path d="m156.25 87.493c-.512 0-1.023-.195-1.414-.586-.781-.781-.781-2.047 0-2.828l8.7-8.7c.781-.781 2.047-.781 2.828 0s.781 2.047 0 2.828l-8.7 8.7c-.391.391-.902.586-1.414.586z"/><path d="m219.19 66.879c-.512 0-1.023-.195-1.414-.586l-28.069-28.069c-.781-.781-.781-2.047 0-2.828l29.953-29.954c4.582-4.583 12.039-4.583 16.621 0l14.276 14.276c4.582 4.583 4.582 12.039 0 16.621l-29.953 29.953c-.39.392-.902.587-1.414.587zm-25.241-30.069 25.241 25.24 28.539-28.539c3.022-3.023 3.022-7.941 0-10.965l-14.276-14.275c-3.023-3.022-7.941-3.022-10.965 0z"/><path d="m22.478 248c-3.867 0-7.503-1.506-10.237-4.241-2.735-2.734-4.241-6.37-4.241-10.237s1.506-7.502 4.241-10.237l5.831-5.831c.78-.781 2.048-.781 2.828 0l17.645 17.646c.781.781.781 2.047 0 2.828l-5.831 5.831c-2.734 2.735-6.369 4.241-10.236 4.241zm-2.992-26.303-4.417 4.416c-1.979 1.979-3.069 4.61-3.069 7.409s1.09 5.43 3.069 7.409 4.61 3.069 7.409 3.069c2.798 0 5.43-1.09 7.409-3.069l4.416-4.417z"/><path d="m119.289 90.336c-.512 0-1.024-.195-1.414-.586-.781-.781-.781-2.047 0-2.828l56.861-56.861c1.665-1.665 3.878-2.582 6.232-2.582s4.566.917 6.231 2.582l5.335 5.335c.781.781.781 2.047 0 2.828s-2.047.781-2.828 0l-5.335-5.335c-.909-.909-2.118-1.41-3.403-1.41-1.286 0-2.495.5-3.404 1.41l-56.861 56.861c-.39.391-.902.586-1.414.586z"/><path d="m4 254c-.512 0-1.024-.195-1.414-.586-.781-.781-.781-2.047 0-2.828l9.655-9.655c.78-.781 2.048-.781 2.828 0 .781.781.781 2.047 0 2.828l-9.655 9.655c-.39.391-.902.586-1.414.586z"/></g></svg>