<svg id="Capa_1" enable-background="new 0 0 512 512" height="512" viewBox="0 0 512 512" width="512" xmlns="http://www.w3.org/2000/svg"><path d="m151 60v392h150v-392z" fill="#76e2f8"/><path d="m435.99 422c-8.26 0-14.99-6.73-14.99-15v-302c0-7.98 6.45-14 15-14h14.99l.01-91h-390l.01 91h14.99c8.55 0 15 6.02 15 14v302c0 8.27-6.73 15-15 15h-15v90h390l-.01-90z" fill="#ff9100"/><path d="m450.99 422 .01 90h-195v-512h195l-.01 91h-14.99c-8.55 0-15 6.02-15 14v302c0 8.27 6.73 15 14.99 15z" fill="#ff5e39"/><path d="m361 452h-60c-8.284 0-15-6.716-15-15v-362c0-8.284 6.716-15 15-15h60z" fill="#f42130"/><path d="m151 60h150v392h-150z" fill="#f2ebee"/><path d="m256 60h45v392h-45z" fill="#e8dde3"/><path d="m211 242h30v30h-30z" fill="#6c6fa9"/></svg>