<?xml version="1.0" encoding="iso-8859-1"?>
<!-- Generator: Adobe Illustrator 19.0.0, SVG Export Plug-In . SVG Version: 6.00 Build 0)  -->
<svg version="1.1" id="Layer_1" xmlns="http://www.w3.org/2000/svg" xmlns:xlink="http://www.w3.org/1999/xlink" x="0px" y="0px"
	 viewBox="0 0 512 512" style="enable-background:new 0 0 512 512;" xml:space="preserve">
<path style="fill:#FFDAAA;" d="M328.158,284.496H183.842l-14.783,54.455c0,0,49.713,11.268,49.713,59.297v91.691
	c0,12.133,9.928,22.061,22.061,22.061h30.333c12.133,0,22.061-9.928,22.061-22.061v-91.691c0-48.029,49.713-59.297,49.713-59.297
	L328.158,284.496z"/>
<g>
	<path style="fill:#FFC477;" d="M256,284.496h-72.158l-14.783,54.455c0,0,49.713,11.268,49.713,59.297v91.691
		c0,12.133,9.928,22.061,22.061,22.061H256V284.496z"/>
	<path style="fill:#FFC477;" d="M276.509,512h-41.019c-9.195,0-16.718-7.523-16.718-16.718V301.215
		c0-9.195,7.523-16.718,16.718-16.718h41.019c9.195,0,16.718,7.523,16.718,16.718v194.067C293.228,504.477,285.704,512,276.509,512z
		"/>
</g>
<g>
	<path style="fill:#FFB655;" d="M218.772,301.215v194.067c0,9.195,7.523,16.718,16.718,16.718h38.988
		c0.039-0.171,0.081-0.29,0.135-0.299C264.106,510.03,256,500.898,256,489.939V306.557c0-10.959,8.106-20.091,18.614-21.762
		c-0.063-0.01-0.134-0.121-0.211-0.299h-38.912C226.296,284.496,218.772,292.02,218.772,301.215z"/>
	<ellipse style="fill:#FFB655;" cx="256" cy="338.954" rx="37.228" ry="31.598"/>
</g>
<path style="fill:#FFA733;" d="M218.772,338.951c0,17.453,16.667,31.602,37.228,31.602v-63.204
	C235.44,307.349,218.772,321.498,218.772,338.951z"/>
<path style="fill:#3E3D42;" d="M258.894,484.884h-5.788c-4.981,0-9.056-4.075-9.056-9.056v-57.493c0-4.981,4.075-9.056,9.056-9.056
	h5.788c4.981,0,9.056,4.075,9.056,9.056v57.493C267.949,480.809,263.874,484.884,258.894,484.884z"/>
<path style="fill:#2D2D30;" d="M244.051,418.334v57.493c0,4.981,4.075,9.056,9.056,9.056H256l0,0v-75.605h-2.894
	C248.126,409.279,244.051,413.354,244.051,418.334z"/>
<path style="fill:#FF0C38;" d="M256,0C130.219,0,90.178,138.441,90.178,230.021c0,59.697,31.551,92.984,78.881,108.931h173.881l0,0
	c47.331-15.946,78.881-49.234,78.881-108.931C421.822,138.441,381.781,0,256,0z"/>
<g>
	<path style="fill:#D80027;" d="M178.422,229.36c0-71.344,18.103-163.857,66.275-228.974
		C127.809,8.432,90.178,141.242,90.178,230.021c0,59.697,31.551,92.984,78.881,108.931h51.593
		C194.098,313.695,178.422,278.09,178.422,229.36z"/>
	<path style="fill:#D80027;" d="M376.577,169.829c-5.322-26.443-13.873-50.664-24.706-70.05c-2.112-3.778-0.761-8.552,3.019-10.664
		c3.775-2.111,8.552-0.761,10.663,3.019c11.615,20.787,20.74,46.583,26.389,74.597c0.855,4.243-1.891,8.376-6.134,9.231
		C385.286,176.068,378.253,178.155,376.577,169.829z"/>
	<path style="fill:#D80027;" d="M390.011,221.276c-4.132,0-7.59-3.233-7.818-7.408c-0.329-6.042-0.851-12.179-1.546-18.242
		c-0.494-4.3,2.591-8.186,6.892-8.68c4.289-0.488,8.186,2.591,8.68,6.892c0.731,6.371,1.623,12.813,1.627,19.174
		C397.849,222.041,390.155,221.276,390.011,221.276z"/>
</g>
<g>
</g>
<g>
</g>
<g>
</g>
<g>
</g>
<g>
</g>
<g>
</g>
<g>
</g>
<g>
</g>
<g>
</g>
<g>
</g>
<g>
</g>
<g>
</g>
<g>
</g>
<g>
</g>
<g>
</g>
</svg>
