<?xml version="1.0" encoding="UTF-8"?>
<svg xmlns="http://www.w3.org/2000/svg" xmlns:xlink="http://www.w3.org/1999/xlink" width="512" height="512" viewBox="0 0 60 60" version="1.1"><!-- Generator: Sketch 51.3 (57544) - http://www.bohemiancoding.com/sketch --><title>082 - Paint</title><desc>Created with Sketch.</desc><defs/><g id="Page-1" stroke="none" stroke-width="1" fill="none" fill-rule="evenodd"><g id="082---Paint" fill-rule="nonzero"><path d="M41,59 C39.8848293,59.0000126 38.9711022,58.1146181 38.936,57 L38,28 L44,28 L43.064,57 C43.0288978,58.1146181 42.1151707,59.0000126 41,59 Z" id="Shape" fill="#6D4122"/><path d="M39.5,59 C38.943,59 38.486,58.115 38.468,57 L38,28 L41,28 L40.532,57 C40.514,58.115 40.057,59 39.5,59 Z" id="Shape" fill="#91562D"/><rect id="Rectangle-path" fill="#9E9E9E" x="1" y="1" width="32" height="58" rx="4"/><rect id="Rectangle-path" fill="#CFD8DC" x="1" y="1" width="29" height="58" rx="4"/><path d="M13,9 C13,11.209139 11.209139,13 9,13 C8.48471464,13.0039542 7.97412717,12.9018367 7.5,12.7 C5.98956585,12.0925605 5,10.6280031 5,9 C5,7.37199692 5.98956585,5.90743946 7.5,5.3 C7.97412717,5.09816328 8.48471464,4.99604578 9,5 C10.060866,5 11.0782816,5.42142736 11.8284271,6.17157288 C12.5785726,6.92171839 13,7.93913404 13,9 Z" id="Shape" fill="#FEC108"/><path d="M13,23 C13,25.209139 11.209139,27 9,27 C8.48471464,27.0039542 7.97412717,26.9018367 7.5,26.7 C5.98956585,26.0925605 5,24.6280031 5,23 C5,21.3719969 5.98956585,19.9074395 7.5,19.3 C7.97412717,19.0981633 8.48471464,18.9960458 9,19 C10.060866,19 11.0782816,19.4214274 11.8284271,20.1715729 C12.5785726,20.9217184 13,21.939134 13,23 Z" id="Shape" fill="#D84315"/><path d="M13,37 C13,39.209139 11.209139,41 9,41 C8.48471464,41.0039542 7.97412717,40.9018367 7.5,40.7 C5.98956585,40.0925605 5,38.6280031 5,37 C5,35.3719969 5.98956585,33.9074395 7.5,33.3 C7.97412717,33.0981633 8.48471464,32.9960458 9,33 C10.060866,33 11.0782816,33.4214274 11.8284271,34.1715729 C12.5785726,34.9217184 13,35.939134 13,37 Z" id="Shape" fill="#C81E1E"/><path d="M13,51 C13,53.209139 11.209139,55 9,55 C8.48471464,55.0039542 7.97412717,54.9018367 7.5,54.7 C5.98956585,54.0925605 5,52.6280031 5,51 C5,49.3719969 5.98956585,47.9074395 7.5,47.3 C7.97412717,47.0981633 8.48471464,46.9960458 9,47 C10.060866,47 11.0782816,47.4214274 11.8284271,48.1715729 C12.5785726,48.9217184 13,49.939134 13,51 Z" id="Shape" fill="#BB193B"/><path d="M29,9 C29,11.209139 27.209139,13 25,13 C24.4847146,13.0039542 23.9741272,12.9018367 23.5,12.7 C21.9895658,12.0925605 21,10.6280031 21,9 C21,7.37199692 21.9895658,5.90743946 23.5,5.3 C23.9741272,5.09816328 24.4847146,4.99604578 25,5 C27.209139,5 29,6.790861 29,9 Z" id="Shape" fill="#0377BC"/><path d="M29,23 C29,25.209139 27.209139,27 25,27 C24.4847146,27.0039542 23.9741272,26.9018367 23.5,26.7 C21.9895658,26.0925605 21,24.6280031 21,23 C21,21.3719969 21.9895658,19.9074395 23.5,19.3 C23.9741272,19.0981633 24.4847146,18.9960458 25,19 C27.209139,19 29,20.790861 29,23 Z" id="Shape" fill="#283593"/><path d="M29,37 C29,39.209139 27.209139,41 25,41 C24.4847146,41.0039542 23.9741272,40.9018367 23.5,40.7 C21.9895658,40.0925605 21,38.6280031 21,37 C21,35.3719969 21.9895658,33.9074395 23.5,33.3 C23.9741272,33.0981633 24.4847146,32.9960458 25,33 C27.209139,33 29,34.790861 29,37 Z" id="Shape" fill="#549414"/><path d="M29,51 C29,53.209139 27.209139,55 25,55 C24.4847146,55.0039542 23.9741272,54.9018367 23.5,54.7 C21.9895658,54.0925605 21,52.6280031 21,51 C21,49.3719969 21.9895658,47.9074395 23.5,47.3 C23.9741272,47.0981633 24.4847146,46.9960458 25,47 C27.209139,47 29,48.790861 29,51 Z" id="Shape" fill="#007900"/><ellipse id="Oval" fill="#FFDC00" cx="7.5" cy="9" rx="2.5" ry="3.7"/><ellipse id="Oval" fill="#FF5722" cx="7.5" cy="23" rx="2.5" ry="3.7"/><ellipse id="Oval" fill="#F44335" cx="7.5" cy="37" rx="2.5" ry="3.7"/><ellipse id="Oval" fill="#E91E63" cx="7.5" cy="51" rx="2.5" ry="3.7"/><ellipse id="Oval" fill="#02A9F4" cx="23.5" cy="9" rx="2.5" ry="3.7"/><ellipse id="Oval" fill="#3F51B5" cx="23.5" cy="23" rx="2.5" ry="3.7"/><ellipse id="Oval" fill="#60A917" cx="23.5" cy="37" rx="2.5" ry="3.7"/><ellipse id="Oval" fill="#008A00" cx="23.5" cy="51" rx="2.5" ry="3.7"/><path d="M41,17 C43.412601,17.0755535 45.5021755,15.3387476 45.869,12.953 C46.937,7.623 41.124,6.027 41,1 C40.876,6.027 35.063,7.623 36.131,12.953 C36.4978245,15.3387476 38.587399,17.0755535 41,17 Z" id="Shape" fill="#37474F"/><path d="M40,17 C41.663,17 43.432,15.843 43.9,12.953 C44.75,7.623 40.1,6.027 40,1 C39.9,6.027 35.25,7.623 36.1,12.953 C36.568,15.843 38.337,17 40,17 Z" id="Shape" fill="#545C60"/><path d="M44.07,16 L44.14,16 L44.74,19.4 C45.2742863,22.2809022 45.0185721,25.2527158 44,28 L38,28 C36.9814279,25.2527158 36.7257137,22.2809022 37.26,19.4 L37.86,16 L44.07,16 Z" id="Shape" fill="#9E9E9E"/><path d="M41.416,16 L41.46,16 L41.834,19.4 C42.1679132,22.2721516 42.0116928,25.1801515 41.372,28 L37.628,28 C36.9883072,25.1801515 36.8320868,22.2721516 37.166,19.4 L37.54,16 L41.416,16 Z" id="Shape" fill="#CFD8DC"/><path d="M54,59 C52.8848293,59.0000126 51.9711022,58.1146181 51.936,57 L51,28 L57,28 L56.064,57 C56.0288978,58.1146181 55.1151707,59.0000126 54,59 Z" id="Shape" fill="#6D4122"/><path d="M53,59 C52.628,59 52.324,58.115 52.312,57 L52,28 L54,28 L53.688,57 C53.676,58.115 53.372,59 53,59 Z" id="Shape" fill="#91562D"/><path d="M54,17 C56.412601,17.0755535 58.5021755,15.3387476 58.869,12.953 C59.937,7.623 54.124,6.027 54,1 C53.876,6.027 48.063,7.623 49.131,12.953 C49.4978245,15.3387476 51.587399,17.0755535 54,17 Z" id="Shape" fill="#37474F"/><path d="M53,17 C54.663,17 56.432,15.843 56.9,12.953 C57.75,7.623 53.1,6.027 53,1 C52.9,6.027 48.25,7.623 49.1,12.953 C49.568,15.843 51.337,17 53,17 Z" id="Shape" fill="#545C60"/><path d="M57.07,16 L57.14,16 L57.74,19.4 C58.2742863,22.2809022 58.0185721,25.2527158 57,28 L51,28 C49.9814279,25.2527158 49.7257137,22.2809022 50.26,19.4 L50.86,16 L57.07,16 Z" id="Shape" fill="#9E9E9E"/><path d="M54.416,16 L54.46,16 L54.834,19.4 C55.1679132,22.2721516 55.0116928,25.1801515 54.372,28 L50.628,28 C49.9883072,25.1801515 49.8320868,22.2721516 50.166,19.4 L50.54,16 L54.416,16 Z" id="Shape" fill="#CFD8DC"/><path d="M29,60 L5,60 C2.23994685,59.9966939 0.00330611633,57.7600532 0,55 L0,5 C0.00330611633,2.23994685 2.23994685,0.00330611633 5,0 L29,0 C31.7600532,0.00330611633 33.9966939,2.23994685 34,5 L34,55 C33.9966939,57.7600532 31.7600532,59.9966939 29,60 Z M5,2 C3.34314575,2 2,3.34314575 2,5 L2,55 C2,56.6568542 3.34314575,58 5,58 L29,58 C30.6568542,58 32,56.6568542 32,55 L32,5 C32,3.34314575 30.6568542,2 29,2 L5,2 Z" id="Shape" fill="#000000"/><path d="M9,14 C6.23857625,14 4,11.7614237 4,9 C4,6.23857625 6.23857625,4 9,4 C11.7614237,4 14,6.23857625 14,9 C13.9966939,11.7600532 11.7600532,13.9966939 9,14 Z M9,6 C7.34314575,6 6,7.34314575 6,9 C6,10.6568542 7.34314575,12 9,12 C10.6568542,12 12,10.6568542 12,9 C12,8.20435053 11.6839295,7.44128879 11.1213203,6.87867966 C10.5587112,6.31607052 9.79564947,6 9,6 Z" id="Shape" fill="#000000"/><path d="M9,28 C6.23857625,28 4,25.7614237 4,23 C4,20.2385763 6.23857625,18 9,18 C11.7614237,18 14,20.2385763 14,23 C13.9966939,25.7600532 11.7600532,27.9966939 9,28 Z M9,20 C7.34314575,20 6,21.3431458 6,23 C6,24.6568542 7.34314575,26 9,26 C10.6568542,26 12,24.6568542 12,23 C12,21.3431458 10.6568542,20 9,20 Z" id="Shape" fill="#000000"/><path d="M9,42 C6.23857625,42 4,39.7614237 4,37 C4,34.2385763 6.23857625,32 9,32 C11.7614237,32 14,34.2385763 14,37 C13.9966939,39.7600532 11.7600532,41.9966939 9,42 Z M9,34 C7.34314575,34 6,35.3431458 6,37 C6,38.6568542 7.34314575,40 9,40 C10.6568542,40 12,38.6568542 12,37 C12,35.3431458 10.6568542,34 9,34 Z" id="Shape" fill="#000000"/><path d="M9,56 C6.23857625,56 4,53.7614237 4,51 C4,48.2385763 6.23857625,46 9,46 C11.7614237,46 14,48.2385763 14,51 C13.9966939,53.7600532 11.7600532,55.9966939 9,56 Z M9,48 C7.34314575,48 6,49.3431458 6,51 C6,52.6568542 7.34314575,54 9,54 C10.6568542,54 12,52.6568542 12,51 C12,49.3431458 10.6568542,48 9,48 Z" id="Shape" fill="#000000"/><path d="M25,14 C22.2385763,14 20,11.7614237 20,9 C20,6.23857625 22.2385763,4 25,4 C27.7614237,4 30,6.23857625 30,9 C29.9966939,11.7600532 27.7600532,13.9966939 25,14 Z M25,6 C23.3431458,6 22,7.34314575 22,9 C22,10.6568542 23.3431458,12 25,12 C26.6568542,12 28,10.6568542 28,9 C28,8.20435053 27.6839295,7.44128879 27.1213203,6.87867966 C26.5587112,6.31607052 25.7956495,6 25,6 Z" id="Shape" fill="#000000"/><path d="M25,28 C22.2385763,28 20,25.7614237 20,23 C20,20.2385763 22.2385763,18 25,18 C27.7614237,18 30,20.2385763 30,23 C29.9966939,25.7600532 27.7600532,27.9966939 25,28 Z M25,20 C23.3431458,20 22,21.3431458 22,23 C22,24.6568542 23.3431458,26 25,26 C26.6568542,26 28,24.6568542 28,23 C28,21.3431458 26.6568542,20 25,20 Z" id="Shape" fill="#000000"/><path d="M25,42 C22.2385763,42 20,39.7614237 20,37 C20,34.2385763 22.2385763,32 25,32 C27.7614237,32 30,34.2385763 30,37 C29.9966939,39.7600532 27.7600532,41.9966939 25,42 Z M25,34 C23.3431458,34 22,35.3431458 22,37 C22,38.6568542 23.3431458,40 25,40 C26.6568542,40 28,38.6568542 28,37 C28,35.3431458 26.6568542,34 25,34 Z" id="Shape" fill="#000000"/><path d="M25,56 C22.2385763,56 20,53.7614237 20,51 C20,48.2385763 22.2385763,46 25,46 C27.7614237,46 30,48.2385763 30,51 C29.9966939,53.7600532 27.7600532,55.9966939 25,56 Z M25,48 C23.3431458,48 22,49.3431458 22,51 C22,52.6568542 23.3431458,54 25,54 C26.6568542,54 28,52.6568542 28,51 C28,49.3431458 26.6568542,48 25,48 Z" id="Shape" fill="#000000"/><path d="M17,55 C16.4477153,55 16,54.5522847 16,54 L16,6 C16,5.44771525 16.4477153,5 17,5 C17.5522847,5 18,5.44771525 18,6 L18,54 C18,54.5522847 17.5522847,55 17,55 Z" id="Shape" fill="#000000"/><path d="M41,18 C38.1158664,18.0592444 35.6250513,15.9933581 35.15,13.148 C34.483,9.819 36.167,7.706 37.65,5.842 C38.834,4.357 39.952,2.956 40,0.976 C40.0085744,0.61873441 40.2070963,0.293181765 40.5207846,0.121974596 C40.8344729,-0.0492325729 41.2156707,-0.0400838246 41.5207846,0.145974596 C41.8258985,0.332033017 42.0085744,0.66673441 42,1.024 C41.934,3.677 40.49,5.489 39.216,7.088 C37.827,8.832 36.627,10.338 37.111,12.756 C37.3928674,14.6694694 39.0670062,16.0659482 41,16 C41.5522847,16 42,16.4477153 42,17 C42,17.5522847 41.5522847,18 41,18 Z" id="Shape" fill="#000000"/><path d="M41,18 C40.4477153,18 40,17.5522847 40,17 C40,16.4477153 40.4477153,16 41,16 C42.9329938,16.0659482 44.6071326,14.6694694 44.889,12.756 C45.373,10.338 44.173,8.832 42.784,7.088 C41.51,5.489 40.066,3.677 40,1.024 C39.9867452,0.47171525 40.4237153,0.013254834 40.976,-1.31947404e-16 C41.5282847,-0.013254834 41.9867452,0.42371525 42,0.976 C42.048,2.956 43.166,4.357 44.348,5.842 C45.833,7.706 47.517,9.819 46.848,13.148 C46.3730557,15.992593 43.8833816,18.0582392 41,18 Z" id="Shape" fill="#000000"/><path d="M38,29 C37.5872264,28.9997664 37.2170112,28.7459386 37.068,28.361 C35.9837688,25.4430939 35.7097417,22.2860809 36.275,19.225 L36.875,15.825 C36.9598642,15.347545 37.3750617,14.9997907 37.86,15 C38.421218,14.9943137 38.8836818,15.4389905 38.9,16 C38.9002304,16.1552147 38.8660792,16.3085536 38.8,16.449 L38.249,19.574 C37.7461031,22.2750759 37.9834928,25.0618997 38.936,27.639 C39.055297,27.9471723 39.014646,28.2943818 38.8273901,28.5666632 C38.6401341,28.8389445 38.3304552,29.0011356 38,29 Z" id="Shape" fill="#000000"/><path d="M44,29 C43.6702519,28.9998134 43.3617926,28.83708 43.1754816,28.56501 C42.9891707,28.2929401 42.9489609,27.9465118 43.068,27.639 C44.0202823,25.0625614 44.2580089,22.2765304 43.756,19.576 L43.2,16.4 C43.140867,16.2748957 43.1098082,16.1383732 43.109,16 C43.100904,15.7384477 43.1988265,15.4847195 43.3805358,15.2964196 C43.5622452,15.1081197 43.8123253,15.0012236 44.074,15 L44.144,15 C44.6292548,14.9998766 45.0445657,15.3481474 45.129,15.826 L45.729,19.226 C46.2941909,22.286421 46.0201612,25.4427732 44.936,28.36 C44.7867866,28.7466973 44.414485,29.0012625 44,29 Z" id="Shape" fill="#000000"/><path d="M41,60 C39.3426277,60.0066289 37.9826737,58.6897282 37.936,57.033 L37,28.033 C36.9910558,27.7621132 37.0924508,27.4991981 37.2809653,27.3044626 C37.4694799,27.109727 37.7289656,26.9998524 38,27 L44,27 C44.2708551,26.9998613 44.5301814,27.1095994 44.7186654,27.3041149 C44.9071494,27.4986304 45.0086674,27.7612836 45,28.032 L44.064,57.032 C44.0178586,58.6891211 42.6577502,60.0066152 41,60 Z M39.033,29 L39.933,56.969 C39.9577175,57.5392466 40.4272179,57.9888372 40.998,57.9888372 C41.5687821,57.9888372 42.0382825,57.5392466 42.063,56.969 L42.967,29 L39.033,29 Z" id="Shape" fill="#000000"/><path d="M54,18 C51.1158664,18.0592444 48.6250513,15.9933581 48.15,13.148 C47.483,9.819 49.167,7.706 50.65,5.842 C51.834,4.357 52.952,2.956 53,0.976 C53.0085744,0.61873441 53.2070963,0.293181765 53.5207846,0.121974596 C53.8344729,-0.0492325729 54.2156707,-0.0400838246 54.5207846,0.145974596 C54.8258985,0.332033017 55.0085744,0.66673441 55,1.024 C54.934,3.677 53.49,5.489 52.216,7.088 C50.827,8.832 49.627,10.338 50.111,12.756 C50.3928674,14.6694694 52.0670062,16.0659482 54,16 C54.5522847,16 55,16.4477153 55,17 C55,17.5522847 54.5522847,18 54,18 Z" id="Shape" fill="#000000"/><path d="M54,18 C53.4477153,18 53,17.5522847 53,17 C53,16.4477153 53.4477153,16 54,16 C55.9329938,16.0659482 57.6071326,14.6694694 57.889,12.756 C58.373,10.338 57.173,8.832 55.784,7.088 C54.51,5.489 53.066,3.677 53,1.024 C52.9867452,0.47171525 53.4237153,0.013254834 53.976,-1.31947404e-16 C54.5282847,-0.013254834 54.9867452,0.42371525 55,0.976 C55.048,2.956 56.166,4.357 57.348,5.842 C58.833,7.706 60.517,9.819 59.848,13.148 C59.3730557,15.992593 56.8833816,18.0582392 54,18 Z" id="Shape" fill="#000000"/><path d="M51,29 C50.5872264,28.9997664 50.2170112,28.7459386 50.068,28.361 C48.9837688,25.4430939 48.7097417,22.2860809 49.275,19.225 L49.875,15.825 C49.9598642,15.347545 50.3750617,14.9997907 50.86,15 C51.421218,14.9943137 51.8836818,15.4389905 51.9,16 C51.9002304,16.1552147 51.8660792,16.3085536 51.8,16.449 L51.249,19.574 C50.7461031,22.2750759 50.9834928,25.0618997 51.936,27.639 C52.055297,27.9471723 52.014646,28.2943818 51.8273901,28.5666632 C51.6401341,28.8389445 51.3304552,29.0011356 51,29 Z" id="Shape" fill="#000000"/><path d="M57,29 C56.6702519,28.9998134 56.3617926,28.83708 56.1754816,28.56501 C55.9891707,28.2929401 55.9489609,27.9465118 56.068,27.639 C57.0202823,25.0625614 57.2580089,22.2765304 56.756,19.576 L56.2,16.4 C56.140867,16.2748957 56.1098082,16.1383732 56.109,16 C56.100904,15.7384477 56.1988265,15.4847195 56.3805358,15.2964196 C56.5622452,15.1081197 56.8123253,15.0012236 57.074,15 L57.144,15 C57.6292548,14.9998766 58.0445657,15.3481474 58.129,15.826 L58.729,19.226 C59.2941909,22.286421 59.0201612,25.4427732 57.936,28.36 C57.7867866,28.7466973 57.414485,29.0012625 57,29 Z" id="Shape" fill="#000000"/><path d="M54,60 C52.3426277,60.0066289 50.9826737,58.6897282 50.936,57.033 L50,28.033 C49.9910558,27.7621132 50.0924508,27.4991981 50.2809653,27.3044626 C50.4694799,27.109727 50.7289656,26.9998524 51,27 L57,27 C57.2708551,26.9998613 57.5301814,27.1095994 57.7186654,27.3041149 C57.9071494,27.4986304 58.0086674,27.7612836 58,28.032 L57.064,57.032 C57.0178586,58.6891211 55.6577502,60.0066152 54,60 Z M52.033,29 L52.933,56.969 C52.9577175,57.5392466 53.4272179,57.9888372 53.998,57.9888372 C54.5687821,57.9888372 55.0382825,57.5392466 55.063,56.969 L55.967,29 L52.033,29 Z" id="Shape" fill="#000000"/></g></g></svg>
