<?xml version="1.0" encoding="iso-8859-1"?>
<!-- Generator: Adobe Illustrator 19.0.0, SVG Export Plug-In . SVG Version: 6.00 Build 0)  -->
<svg version="1.1" id="Layer_1" xmlns="http://www.w3.org/2000/svg" xmlns:xlink="http://www.w3.org/1999/xlink" x="0px" y="0px"
	 viewBox="0 0 512 512" style="enable-background:new 0 0 512 512;" xml:space="preserve">
<path style="fill:#C6C5CB;" d="M472.333,84.383c-11.058-6.384-21.079-6.976-28.315-2.771L11.61,333.389
	c0.023-0.014,0.048-0.024,0.071-0.038C4.496,337.487,0.036,346.327,0,358.913c-0.071,25.257,17.69,56.016,39.666,68.703
	c11.373,6.566,21.637,6.995,28.915,2.394c-0.2,0.126-0.393,0.262-0.598,0.38l432.408-251.778
	c7.143-4.151,11.572-12.979,11.608-25.526C512.071,127.836,494.314,97.073,472.333,84.383z"/>
<path style="fill:#E0E0E2;" d="M11.61,333.389L444.018,81.612c7.236-4.206,17.257-3.613,28.315,2.771L39.925,336.16
	C28.867,329.776,18.846,329.185,11.61,333.389z"/>
<path style="fill:#C6C5CB;" d="M500.391,178.613L67.983,430.391c7.143-4.151,11.572-12.979,11.608-25.526
	c0.071-25.251-17.685-56.013-39.666-68.703L472.334,84.383c21.98,12.69,39.737,43.453,39.666,68.703
	C511.964,165.634,507.535,174.462,500.391,178.613z"/>
<path style="fill:#D8D8DA;" d="M39.925,336.16c21.98,12.69,39.737,43.453,39.666,68.703c-0.072,25.258-17.945,35.442-39.925,22.752
	C17.691,414.929-0.071,384.17,0,358.913C0.072,333.662,17.95,323.473,39.925,336.16z"/>
<g>
</g>
<g>
</g>
<g>
</g>
<g>
</g>
<g>
</g>
<g>
</g>
<g>
</g>
<g>
</g>
<g>
</g>
<g>
</g>
<g>
</g>
<g>
</g>
<g>
</g>
<g>
</g>
<g>
</g>
</svg>
