<svg height="512pt" viewBox="0 0 512 512" width="512pt" xmlns="http://www.w3.org/2000/svg"><path d="m437.019531 74.980469c-48.347656-48.351563-112.640625-74.980469-181.019531-74.980469-36.980469 0-72.761719 7.789062-105.46875 22.589844-27.78125 12.558594-53.339844 30.179687-75.550781 52.390625-24.570313 24.570312-43.53125 53.25-56.230469 84.5-12.308594 30.238281-18.75 62.890625-18.75 96.519531 0 68.378906 26.628906 132.671875 74.980469 181.019531 48.347656 48.351563 112.640625 74.980469 181.019531 74.980469 36.609375 0 72.039062-7.628906 104.480469-22.140625 28.160156-12.589844 54.070312-30.371094 76.539062-52.839844 24.171875-24.167969 42.902344-52.320312 55.601563-82.960937 12.71875-30.667969 19.378906-63.859375 19.378906-98.058594 0-68.378906-26.628906-132.671875-74.980469-181.019531zm-181.019531 228.660156h-.058594c-26.460937 0-47.980468-21.519531-47.980468-47.980469 0-26.449218 21.519531-47.96875 47.980468-47.96875h.058594c26.421875.027344 47.910156 21.539063 47.910156 47.96875 0 26.441406-21.488281 47.949219-47.910156 47.980469zm0 0" fill="#0db2ff"/><path d="m512 256c0 34.199219-6.660156 67.390625-19.378906 98.058594-12.699219 30.640625-31.429688 58.792968-55.601563 82.960937-22.46875 22.46875-48.378906 40.25-76.539062 52.839844-32.441407 14.511719-67.871094 22.140625-104.480469 22.140625v-208.359375c26.421875-.03125 47.910156-21.539063 47.910156-47.980469 0-26.429687-21.488281-47.941406-47.910156-47.96875v-207.691406c68.378906 0 132.671875 26.628906 181.019531 74.980469 48.351563 48.347656 74.980469 112.640625 74.980469 181.019531zm0 0" fill="#0089ff"/><path d="m229 191-40 42-170.25-73.519531c12.699219-31.25 31.660156-59.929688 56.230469-84.5 22.210937-22.210938 47.769531-39.832031 75.550781-52.390625zm0 0" fill="#0089ff"/><path d="m492.621094 354.058594c-12.699219 30.640625-31.429688 58.792968-55.601563 82.960937-22.46875 22.46875-48.378906 40.25-76.539062 52.839844l-81.480469-175.859375 49-32zm0 0" fill="#0052c2"/><path d="m256 163.730469h-.339844c-50.488281 0-91.570312 41.097656-91.570312 91.628906s41.082031 91.640625 91.570312 91.640625h.339844c50.328125-.191406 91.21875-41.21875 91.21875-91.640625 0-50.417969-40.890625-91.4375-91.21875-91.628906zm0 139.910156h-.058594c-26.460937 0-47.980468-21.519531-47.980468-47.980469 0-26.449218 21.519531-47.96875 47.980468-47.96875h.058594c26.421875.027344 47.910156 21.539063 47.910156 47.96875 0 26.441406-21.488281 47.949219-47.910156 47.980469zm0 0" fill="#daf0fa"/><path d="m347.21875 255.359375c0 50.421875-40.890625 91.449219-91.21875 91.640625v-43.359375c26.421875-.03125 47.910156-21.539063 47.910156-47.980469 0-26.429687-21.488281-47.941406-47.910156-47.96875v-43.960937c50.328125.191406 91.21875 41.210937 91.21875 91.628906zm0 0" fill="#b0e1ff"/></svg>