<svg id="Capa_1" enable-background="new 0 0 512.105 512.105" height="512" viewBox="0 0 512.105 512.105" width="512" xmlns="http://www.w3.org/2000/svg"><path d="m512.105 31.648-89.25 89.25-47.77-15.8-15.86-47.84 25.6-25.61z" fill="#ffda2d"/><path d="m512.105 31.648-89.25 89.25-47.77-15.8-.12-.35 73.12-73.1z" fill="#fdbf00"/><path d="m377.345 244.628c-83.12 71.6-154.76 133.32-215.73 185.86l-72.05-40.38-.01-.01-40.37-72.05c28.35-32.89 130.05-150.9 185.9-215.69l88 54.27z" fill="#ffda2d"/><path d="m377.345 244.628c-83.12 71.6-154.76 133.32-215.73 185.86l-72.05-40.38-.01-.01 233.53-233.47z" fill="#fdbf00"/><path d="m161.615 430.488-56.98 49.08-104.57-104.57 49.12-56.95z" fill="#6c6fa9"/><path d="m161.615 430.488-56.98 49.08-52.28-52.28 53.04-53.02z" fill="#574f7f"/><path d="m104.637 479.57c-1.342 1.156-1.401 1.207 0 0z"/><path d="m.065 375.003-.003-.003c-.084.099-.082.1.003.003z"/><path d="m434.325 195.538c-.02.02-23.07 19.87-56.98 49.09l-142.26-142.27c15.43-17.91 31.77-36.88 49.09-56.97l11.41 11.4c17.58 17.59 46.05 17.59 63.64 0l63.63 63.64c-17.58 17.59-17.58 46.05 0 63.64z" fill="#6c6fa9"/><path d="m434.325 195.538c-.02.02-23.07 19.87-56.98 49.09l-71.13-71.14 84.86-84.84 31.78 31.78c-17.58 17.59-17.58 46.05 0 63.64z" fill="#574f7f"/></svg>