<?xml version="1.0" encoding="UTF-8"?>
<svg xmlns="http://www.w3.org/2000/svg" xmlns:xlink="http://www.w3.org/1999/xlink" width="512" height="512" viewBox="0 0 42 58" version="1.1"><!-- Generator: Sketch 51.3 (57544) - http://www.bohemiancoding.com/sketch --><title>099 - Lanyard</title><desc>Created with Sketch.</desc><defs/><g id="Page-1" stroke="none" stroke-width="1" fill="none" fill-rule="evenodd"><g id="099---Lanyard" fill-rule="nonzero"><path d="M23,20.23 L23,28 C23,29.1045695 22.1045695,30 21,30 C19.8954305,30 19,29.1045695 19,28 L19,20.23" id="Shape" fill="#84B5CB"/><path d="M24,15.42 C27.5496577,13.9840928 29.5841149,10.2342432 28.8526934,6.47566341 C28.1212719,2.71708366 24.8290859,0.0038015129 21,0.0038015129 C17.1709141,0.0038015129 13.8787281,2.71708366 13.1473066,6.47566341 C12.4158851,10.2342432 14.4503423,13.9840928 18,15.42" id="Shape" fill="#2980BA"/><path d="M24,8 L24,18 C24,19.6568542 22.6568542,21 21,21 C19.3431458,21 18,19.6568542 18,18 L18,8 C18,7.44771525 18.4477153,7 19,7 L23,7 C23.5522847,7 24,7.44771525 24,8 Z" id="Shape" fill="#3B97D3"/><polyline id="Shape" fill="#547580" points="19 28 19 34 23 34 23 28"/><rect id="Rectangle-path" fill="#90BAE1" x="0" y="34" width="42" height="24" rx="2"/><path d="M42,42 L42,56 C41.9967052,57.1032019 41.1032019,57.9967052 40,58 L2,58 C0.896798134,57.9967052 0.00329480111,57.1032019 0,56 L0,42 L12,42 C12,42 14,45 21,45 C28,45 30,42 30,42 L42,42 Z" id="Shape" fill="#B0D3F0"/><circle id="Oval" fill="#35495E" cx="21" cy="28" r="2"/></g></g></svg>
