<svg height="512pt" viewBox="-52 0 511 512" width="512pt" xmlns="http://www.w3.org/2000/svg"><path d="m392.339844 0h-376.730469c-8.34375 0-15.109375 6.765625-15.109375 15.109375v481.78125c0 8.34375 6.765625 15.109375 15.109375 15.109375h323.171875c8.34375 0 15.109375-6.765625 15.109375-15.109375v-376.273437h38.449219c8.34375 0 15.109375-6.765626 15.109375-15.109376v-90.398437c0-8.34375-6.765625-15.109375-15.109375-15.109375zm0 0" fill="#f9f5e5"/><path d="m392.339844 0h-189.378906v512h135.820312c8.34375 0 15.109375-6.765625 15.109375-15.109375v-376.273437h38.449219c8.34375 0 15.109375-6.765626 15.109375-15.109376v-90.398437c0-8.34375-6.765625-15.109375-15.109375-15.109375zm0 0" fill="#f9f1cf"/><path d="m407.449219 112.6875h-83.78125v80.34375c0 8.34375 6.765625 15.109375 15.113281 15.109375h53.558594c8.34375 0 15.109375-6.765625 15.109375-15.109375zm0 0" fill="#ff6c52"/><path d="m365.558594 112.6875v95.453125h26.78125c8.34375 0 15.109375-6.765625 15.109375-15.109375v-80.34375zm0 0" fill="#fc3c32"/><path d="m407.449219 177.917969h-83.78125v80.339843c0 8.347657 6.765625 15.109376 15.113281 15.109376h53.558594c8.34375 0 15.109375-6.761719 15.109375-15.109376zm0 0" fill="#65b1fc"/><path d="m365.558594 177.917969v95.449219h26.78125c8.34375 0 15.109375-6.761719 15.109375-15.109376v-80.339843zm0 0" fill="#2e92e5"/><path d="m407.449219 243.148438h-83.78125v80.339843c0 8.347657 6.765625 15.113281 15.113281 15.113281h53.558594c8.34375 0 15.109375-6.765624 15.109375-15.113281zm0 0" fill="#06ccab"/><path d="m365.558594 243.148438v95.453124h26.78125c8.34375 0 15.109375-6.765624 15.109375-15.113281v-80.339843zm0 0" fill="#08bc84"/><path d="m407.449219 308.378906h-83.78125v80.339844c0 8.347656 6.765625 15.113281 15.113281 15.113281h53.558594c8.34375 0 15.109375-6.765625 15.109375-15.113281zm0 0" fill="#ffda45"/><path d="m365.558594 308.378906v95.453125h26.78125c8.34375 0 15.109375-6.765625 15.109375-15.113281v-80.339844zm0 0" fill="#ffbc36"/><path d="m407.449219 373.609375h-83.78125v80.339844c0 8.34375 6.765625 15.109375 15.113281 15.109375h53.558594c8.34375 0 15.109375-6.765625 15.109375-15.109375zm0 0" fill="#d4eeff"/><path d="m365.558594 373.609375v95.449219h26.78125c8.34375 0 15.109375-6.765625 15.109375-15.109375v-80.339844zm0 0" fill="#99d3f2"/><path d="m407.449219 439.164062h-83.78125v72.835938h68.671875c8.34375 0 15.109375-6.765625 15.109375-15.109375zm0 0" fill="#636978"/><path d="m365.558594 439.164062v72.835938h26.78125c8.34375 0 15.109375-6.765625 15.109375-15.109375v-57.726563zm0 0" fill="#414952"/><g fill="#d4eeff"><path d="m70.996094 442.636719c-8.34375 0-15.109375-6.765625-15.109375-15.113281v-28.480469c0-8.34375 6.765625-15.109375 15.109375-15.109375 8.347656 0 15.109375 6.765625 15.109375 15.109375v28.480469c0 8.347656-6.761719 15.113281-15.109375 15.113281zm0 0"/><path d="m70.996094 124.28125c-8.34375 0-15.109375-6.765625-15.109375-15.109375v-28.480469c0-8.347656 6.765625-15.109375 15.109375-15.109375 8.347656 0 15.109375 6.761719 15.109375 15.109375v28.480469c0 8.34375-6.761719 15.109375-15.109375 15.109375zm0 0"/><path d="m70.996094 271.484375c-8.34375 0-15.109375-6.765625-15.109375-15.109375s6.765625-15.152344 15.109375-15.152344c8.347656 0 15.109375 6.722656 15.109375 15.070313v.082031c0 8.34375-6.761719 15.109375-15.109375 15.109375zm0 0"/></g></svg>