<?xml version="1.0" encoding="iso-8859-1"?>
<!-- Generator: Adobe Illustrator 19.0.0, SVG Export Plug-In . SVG Version: 6.00 Build 0)  -->
<svg version="1.1" id="Layer_1" xmlns="http://www.w3.org/2000/svg" xmlns:xlink="http://www.w3.org/1999/xlink" x="0px" y="0px"
	 viewBox="0 0 512.064 512.064" style="enable-background:new 0 0 512.064 512.064;" xml:space="preserve">
<g>
	<rect x="68.512" y="114.112" style="fill:#FCB5B5;" width="62.272" height="60.224"/>
	<rect x="381.216" y="114.112" style="fill:#FCB5B5;" width="62.272" height="60.224"/>
</g>
<rect x="11.616" y="162.816" style="fill:#F9D4DB;" width="488.832" height="337.728"/>
<circle style="fill:#FCB5B5;" cx="407.264" cy="407.232" r="57.92"/>
<circle style="fill:#FC7576;" cx="104.864" cy="256" r="57.92"/>
<circle style="fill:#F9545B;" cx="256.032" cy="256" r="57.92"/>
<circle style="fill:#FD3B6D;" cx="407.264" cy="256" r="57.92"/>
<circle style="fill:#FF9690;" cx="256.032" cy="407.232" r="57.92"/>
<circle style="fill:#FF738E;" cx="104.864" cy="407.232" r="57.92"/>
<g>
	<polygon style="fill:#FFD37D;" points="500.448,57.92 345.248,43.2 263.456,43.2 263.456,124.928 500.448,124.928 	"/>
	<polygon style="fill:#FFD37D;" points="11.616,57.92 11.616,124.928 181.536,124.928 270.432,80.512 270.432,36.096 	"/>
</g>
<polygon style="fill:#FFE9BF;" points="270.432,36.096 181.536,124.928 263.456,124.928 345.248,43.2 "/>
<path style="fill:#FCB5B5;" d="M477.216,11.584H34.848c-12.8,0-23.232,10.432-23.232,23.232v23.232h488.832V34.816
	C500.448,22.016,490.016,11.584,477.216,11.584z"/>
<g>
	<path style="fill:#000030;" d="M477.216,0H34.848C15.648,0,0.032,15.616,0.032,34.816v90.176c0,6.4,5.184,11.584,11.584,11.584
		h45.312v14.592H11.616c-6.4,0-11.584,5.184-11.584,11.584V500.48c0,6.4,5.184,11.584,11.584,11.584h488.832
		c6.4,0,11.584-5.184,11.584-11.584V162.816c0-6.4-5.184-11.584-11.584-11.584h-45.312V136.64h45.312
		c6.4,0,11.584-5.184,11.584-11.584v-90.24C512.032,15.616,496.416,0,477.216,0z M34.848,23.232h442.496
		c6.4,0,11.584,5.184,11.584,11.584V46.4H23.264V34.816C23.264,28.416,28.448,23.232,34.848,23.232z M23.264,69.504H220.64
		l-43.904,43.904H23.264V69.504z M142.432,151.232V136.64H369.76v14.592H142.432z M80.032,136.512h39.232v14.592H80.032V136.512z
		 M488.864,488.832h-465.6v-314.56h465.728v314.496h-0.128V488.832z M432.032,151.232H392.8V136.64h39.232V151.232z
		 M209.504,113.408l43.904-43.904h49.088l-14.592,14.592c-4.48,4.48-4.48,11.904,0,16.384c2.304,2.304,5.184,3.392,8.192,3.392
		c3.008,0,5.888-1.088,8.192-3.392L335.2,69.568h153.6v43.904H209.504V113.408z"/>
	<path style="fill:#000030;" d="M104.864,186.496c-38.272,0-69.504,31.232-69.504,69.504s31.168,69.504,69.504,69.504
		s69.44-31.232,69.44-69.504S143.264,186.496,104.864,186.496z M104.864,302.272c-25.472,0-46.272-20.8-46.272-46.272
		s20.8-46.272,46.272-46.272s46.272,20.8,46.272,46.272S130.4,302.272,104.864,302.272z"/>
	<path style="fill:#000030;" d="M256.032,186.496c-38.272,0-69.504,31.232-69.504,69.504s31.232,69.504,69.504,69.504
		s69.504-31.232,69.504-69.504S294.304,186.496,256.032,186.496z M256.032,302.272c-25.472,0-46.272-20.8-46.272-46.272
		s20.8-46.272,46.272-46.272s46.272,20.8,46.272,46.272S281.504,302.272,256.032,302.272z"/>
	<path style="fill:#000030;" d="M337.76,256c0,38.272,31.232,69.504,69.504,69.504s69.504-31.232,69.504-69.504
		s-31.232-69.504-69.504-69.504C368.928,186.496,337.76,217.728,337.76,256z M453.536,256c0,25.472-20.8,46.272-46.272,46.272
		c-25.472,0-46.272-20.8-46.272-46.272s20.8-46.272,46.272-46.272C432.736,209.728,453.536,230.528,453.536,256z"/>
	<path style="fill:#000030;" d="M407.264,337.728c-38.272,0-69.504,31.232-69.504,69.504s31.232,69.504,69.504,69.504
		s69.504-31.232,69.504-69.504C476.704,368.896,445.536,337.728,407.264,337.728z M407.264,453.504
		c-25.472,0-46.272-20.8-46.272-46.272c0-25.472,20.8-46.272,46.272-46.272c25.472,0,46.272,20.8,46.272,46.272
		C453.536,432.704,432.736,453.504,407.264,453.504z"/>
	<path style="fill:#000030;" d="M256.032,337.728c-38.272,0-69.504,31.232-69.504,69.504s31.232,69.504,69.504,69.504
		s69.504-31.232,69.504-69.504C325.536,368.896,294.304,337.728,256.032,337.728z M256.032,453.504
		c-25.472,0-46.272-20.8-46.272-46.272c0-25.472,20.8-46.272,46.272-46.272s46.272,20.8,46.272,46.272
		C302.304,432.704,281.504,453.504,256.032,453.504z"/>
	<path style="fill:#000030;" d="M104.864,337.728c-38.272,0-69.504,31.232-69.504,69.504s31.168,69.504,69.504,69.504
		s69.504-31.232,69.504-69.504C174.304,368.896,143.264,337.728,104.864,337.728z M104.864,453.504
		c-25.472,0-46.272-20.8-46.272-46.272c0-25.472,20.8-46.272,46.272-46.272s46.272,20.8,46.272,46.272
		C151.264,432.704,130.4,453.504,104.864,453.504z"/>
	<path style="fill:#000030;" d="M106.016,267.392c-5.824,0-10.624,4.672-10.624,10.624c0,5.952,4.672,10.624,10.624,10.624
		s10.624-4.672,10.624-10.624C116.64,272.064,111.84,267.392,106.016,267.392z"/>
	<path style="fill:#000030;" d="M82.848,244.288c-5.824,0-10.624,4.672-10.624,10.624c0,5.824,4.672,10.624,10.624,10.624
		c5.952,0,10.624-4.672,10.624-10.624C93.408,249.024,88.736,244.288,82.848,244.288z"/>
	<path style="fill:#000030;" d="M390.816,381.824c-5.824,0-10.624,4.672-10.624,10.624s4.8,10.624,10.624,10.624
		c5.824,0,10.624-4.672,10.624-10.624S396.64,381.824,390.816,381.824z"/>
</g>
<g>
</g>
<g>
</g>
<g>
</g>
<g>
</g>
<g>
</g>
<g>
</g>
<g>
</g>
<g>
</g>
<g>
</g>
<g>
</g>
<g>
</g>
<g>
</g>
<g>
</g>
<g>
</g>
<g>
</g>
</svg>
