<?xml version="1.0" encoding="iso-8859-1"?>
<!-- Generator: Adobe Illustrator 19.0.0, SVG Export Plug-In . SVG Version: 6.00 Build 0)  -->
<svg version="1.1" id="Capa_1" xmlns="http://www.w3.org/2000/svg" xmlns:xlink="http://www.w3.org/1999/xlink" x="0px" y="0px"
	 viewBox="0 0 512 512" style="enable-background:new 0 0 512 512;" xml:space="preserve">
<path style="fill:#303C42;" d="M426.667,362.668c23.521,0,42.667-19.135,42.667-42.667c23.521,0,42.667-19.135,42.667-42.667
	v-69.854c0-33.135-21.313-61.844-53.021-71.458L172.104,49.095c-14.287-4.325-29.21-6.529-44.12-6.427
	c-22.835,0.156-45.637,5.56-66.067,15.781L20.479,79.168C7.854,85.481,0,98.179,0,112.304c0,20.417,16.625,37.031,37.042,37.031
	h69.625c56.75,0,111,27.125,145.083,72.552c6.055,8.077,12.783,15.582,19.98,22.585l-123.647,76.082
	c-22.87,14.072-37.573,37.279-40.74,63.448H42.667C19.146,384.002,0,403.137,0,426.668v32c0,5.896,4.771,10.667,10.667,10.667
	h490.667c5.896,0,10.667-4.771,10.667-10.667v-32c0-23.531-19.146-42.667-42.667-42.667h-64v-21.333H426.667z"/>
<path style="fill:#0288D1;" d="M106.667,128.002H37.042c-8.667,0-15.708-7.042-15.708-15.698c0-5.99,3.333-11.375,8.688-14.052
	l41.438-20.719c17.708-8.854,37.521-13.531,57.313-13.531c12.583,0,25.083,1.854,37.167,5.51l286.854,86.927
	c22.667,6.865,37.875,27.375,37.875,51.042v69.854c0,11.76-9.563,21.333-21.333,21.333c-6.125,0-12.271-0.802-18.229-2.385
	l-87.875-23.438c-37.563-10.021-71.104-32.667-94.417-63.781C230.708,158.304,170.104,128.002,106.667,128.002z"/>
<path style="opacity:0.2;fill:#FFFFFF;enable-background:new    ;" d="M452.792,156.439L165.938,69.512
	c-12.083-3.656-24.583-5.51-37.167-5.51c-19.792,0-39.604,4.677-57.313,13.531L30.021,98.252c-5.354,2.677-8.688,8.063-8.688,14.052
	c0,4.145,1.685,7.863,4.319,10.672c1.254-1.336,2.661-2.538,4.368-3.391l41.438-20.719c17.708-8.854,37.521-13.531,57.313-13.531
	c12.583,0,25.083,1.854,37.167,5.51l286.854,86.927c22.667,6.865,37.875,27.375,37.875,51.042v-21.333
	C490.667,183.814,475.458,163.304,452.792,156.439z"/>
<path style="fill:#0288D1;" d="M159.25,338.72l129.393-79.617c20.458,15.799,43.934,27.642,69.086,34.346l87.875,23.448
	c0.79,0.21,1.602,0.284,2.396,0.473v2.632c0,11.76-9.563,21.333-21.333,21.333h-32h-21.333h-74.667
	c-23.521,0-42.667,19.135-42.667,42.667H128.854C131.875,365.325,142.771,348.866,159.25,338.72z"/>
<path style="opacity:0.2;fill:#FFFFFF;enable-background:new    ;" d="M180.583,338.72l118.055-72.641
	c-3.362-2.285-6.777-4.492-9.995-6.977L159.25,338.72c-16.479,10.146-27.375,26.604-30.396,45.281h21.333
	C153.208,365.325,164.104,348.866,180.583,338.72z"/>
<path style="fill:#455A64;" d="M490.667,426.668v21.333H21.333v-21.333c0-11.76,9.563-21.333,21.333-21.333h426.667
	C481.104,405.335,490.667,414.908,490.667,426.668z"/>
<path style="opacity:0.2;fill:#FFFFFF;enable-background:new    ;" d="M469.333,405.335H42.667
	c-11.771,0-21.333,9.573-21.333,21.333v10.667c0-11.76,9.563-21.333,21.333-21.333h426.667c11.771,0,21.333,9.573,21.333,21.333
	v-10.667C490.667,414.908,481.104,405.335,469.333,405.335z"/>
<path style="fill:#E6E6E6;" d="M362.667,384.002h-85.333c0-11.76,9.563-21.333,21.333-21.333h64V384.002z"/>
<circle style="fill:#303C42;" cx="426.667" cy="213.333" r="21.333"/>
<linearGradient id="SVGID_1_" gradientUnits="userSpaceOnUse" x1="-31.9869" y1="635.524" x2="-26.6206" y2="630.1537" gradientTransform="matrix(21.3333 0 0 -21.3333 996.3334 13791.667)">
	<stop  offset="0" style="stop-color:#000000;stop-opacity:0.1"/>
	<stop  offset="1" style="stop-color:#000000;stop-opacity:0"/>
</linearGradient>
<path style="fill:url(#SVGID_1_);" d="M373.333,341.335h21.333h32c11.771,0,21.333-9.573,21.333-21.333v-2.632
	c-0.794-0.189-1.605-0.263-2.396-0.473l-87.875-23.448c-25.152-6.704-48.628-18.547-69.086-34.346l82.232,82.232H373.333z"/>
<linearGradient id="SVGID_2_" gradientUnits="userSpaceOnUse" x1="-48.3063" y1="638.1705" x2="-22.1827" y2="625.9892" gradientTransform="matrix(21.3333 0 0 -21.3333 996.3334 13791.667)">
	<stop  offset="0" style="stop-color:#FFFFFF;stop-opacity:0.2"/>
	<stop  offset="1" style="stop-color:#FFFFFF;stop-opacity:0"/>
</linearGradient>
<path style="fill:url(#SVGID_2_);" d="M426.667,362.668c23.521,0,42.667-19.135,42.667-42.667c23.521,0,42.667-19.135,42.667-42.667
	v-69.854c0-33.135-21.313-61.844-53.021-71.458L172.104,49.095c-14.287-4.325-29.21-6.529-44.12-6.427
	c-22.835,0.156-45.637,5.56-66.067,15.781L20.479,79.168C7.854,85.481,0,98.179,0,112.304c0,20.417,16.625,37.031,37.042,37.031
	h69.625c56.75,0,111,27.125,145.083,72.552c6.055,8.077,12.783,15.582,19.98,22.585l-123.647,76.082
	c-22.87,14.072-37.573,37.279-40.74,63.448H42.667C19.146,384.002,0,403.137,0,426.668v32c0,5.896,4.771,10.667,10.667,10.667
	h490.667c5.896,0,10.667-4.771,10.667-10.667v-32c0-23.531-19.146-42.667-42.667-42.667h-64v-21.333H426.667z"/>
<g>
</g>
<g>
</g>
<g>
</g>
<g>
</g>
<g>
</g>
<g>
</g>
<g>
</g>
<g>
</g>
<g>
</g>
<g>
</g>
<g>
</g>
<g>
</g>
<g>
</g>
<g>
</g>
<g>
</g>
</svg>
