<?xml version="1.0" encoding="iso-8859-1"?>
<!-- Generator: Adobe Illustrator 19.0.0, SVG Export Plug-In . SVG Version: 6.00 Build 0)  -->
<svg version="1.1" id="Layer_1" xmlns="http://www.w3.org/2000/svg" xmlns:xlink="http://www.w3.org/1999/xlink" x="0px" y="0px"
	 viewBox="0 0 512.002 512.002" style="enable-background:new 0 0 512.002 512.002;" xml:space="preserve">
<polygon style="fill:#556080;" points="317.877,251.879 109.039,454.928 51.426,397.405 349.894,104.725 394.664,149.496 
	305.124,239.036 "/>
<path style="fill:#1F436D;" d="M500.123,69.542l-35.093,35.183l0,0c-7.046-6.955-18.369-6.955-25.415,0l-45.223,45.222
	l-44.499-45.222l91.349-91.349c16.343-16.624,43.052-16.859,59.694-0.543C515.996,28.86,515.644,53.95,500.123,69.542z"/>
<path style="fill:#212F3F;" d="M464.94,130.412L337.051,258.211c-3.527,3.509-9.225,3.509-12.753,0l-19.174-19.174l134.582-134.401
	c7.046-6.955,18.369-6.955,25.415,0l0,0c7.073,7.064,7.073,18.514,0.018,25.578C465.067,130.285,465.003,130.348,464.94,130.412z"/>
<path style="fill:#EFCE4A;" d="M51.426,397.405L0.957,498.161c-2.234,4.468-0.425,9.904,4.043,12.138
	c2.74,1.366,5.978,1.257,8.619-0.289l95.419-55.262L51.426,397.405z"/>
<rect x="334.346" y="208.129" transform="matrix(0.7071 -0.7071 0.7071 0.7071 -59.3836 309.0715)" width="18.089" height="36.178"/>
<g>
</g>
<g>
</g>
<g>
</g>
<g>
</g>
<g>
</g>
<g>
</g>
<g>
</g>
<g>
</g>
<g>
</g>
<g>
</g>
<g>
</g>
<g>
</g>
<g>
</g>
<g>
</g>
<g>
</g>
</svg>
