<svg height="512" viewBox="0 0 64 64" width="512" xmlns="http://www.w3.org/2000/svg"><g id="Pin"><path d="m58.784 19.651 1.416-1.414a2 2 0 0 0 0-2.829l-11.315-11.314a2 2 0 0 0 -2.829 0l-1.414 1.415 2.829 2.828 8.485 8.485z" fill="#d80027"/><path d="m60.2 15.408-2-2a2 2 0 0 1 0 2.829l-1.414 1.414 2 2 1.414-1.414a2 2 0 0 0 0-2.829z" fill="#b2151b"/><path d="m31.228 15.065h24v12h-24z" fill="#ed1c24" transform="matrix(.707 -.707 .707 .707 -2.234 36.737)"/><path d="m34.471 22.893h24v2.828h-24z" fill="#b2151b" transform="matrix(.707 -.707 .707 .707 -3.577 39.979)"/><path d="m29.086 38.036 8.364 8.363 1.535-12.606-8.485-8.485-12.607 1.535 8.364 8.364z" fill="#d80027"/><path d="m17.893 26.843 8.364 8.364-2-2z" fill="#d80027"/><path d="m36.985 31.793-1.535 12.606 2 2 1.535-12.606z" fill="#b2151b"/><path d="m29.086 38.036-2.829-2.829-21.92 21.92-.707 3.536 3.535-.707z" fill="#ffcd00"/><path d="m28.086 37.036-21.921 21.92-2.285.457-.25 1.25 3.535-.707 21.921-21.92z" fill="#ebbf00"/><path d="m29.086 38.036-2.829-2.829z" fill="#9bc9ff"/><g fill="#f1f2f2"><path d="m39.349 20.772h12v2h-12z" transform="matrix(.707 -.707 .707 .707 -2.113 38.444)"/><path d="m37.985 27.136h2v2h-2z" transform="matrix(.707 -.707 .707 .707 -8.477 35.808)"/></g></g></svg>